<svg width="52" height="102" viewBox="0 0 52 102" fill="none" xmlns="http://www.w3.org/2000/svg">
<rect x="0.669922" y="25.2832" width="50.5654" height="50.5654" rx="25.2827" fill="#2B2830"/>
<g clip-path="url(#clip0_422_3922)">
<path d="M18.6685 50.5525C18.6761 46.5301 21.9609 43.268 25.9833 43.2833C29.9906 43.2985 33.245 46.5681 33.2374 50.5829C33.2298 54.6053 29.9449 57.8674 25.9225 57.8522C21.9153 57.837 18.6609 54.5673 18.6685 50.5525ZM30.8042 50.5677C30.8042 47.8836 28.6523 45.7241 25.9681 45.7165C23.2764 45.7089 21.1017 47.876 21.1093 50.5677C21.1093 53.2519 23.2688 55.4113 25.9453 55.419C28.6371 55.4266 30.8042 53.2595 30.8042 50.5677Z" fill="#C0BCCA"/>
<path d="M17.0029 42.9782C17.0257 42.3471 17.2463 41.9669 17.6949 41.754C18.1435 41.5335 18.5921 41.5715 18.9723 41.8985C19.3449 42.2179 19.6947 42.5676 20.014 42.9402C20.4323 43.4193 20.379 44.1188 19.9304 44.5598C19.4894 44.9932 18.805 45.0465 18.3336 44.6435C17.9534 44.3165 17.596 43.9591 17.2767 43.5789C17.117 43.3812 17.0638 43.1075 17.0029 42.9782Z" fill="#C0BCCA"/>
<path d="M34.8871 42.832C34.8871 43.159 34.7731 43.4479 34.5449 43.676C34.256 43.9726 33.9671 44.2767 33.6629 44.5581C33.1534 45.0295 32.4235 45.0219 31.952 44.5429C31.4882 44.0714 31.4806 43.3491 31.9444 42.8548C32.241 42.5355 32.5451 42.2237 32.8721 41.9348C33.2523 41.5926 33.6933 41.5318 34.1648 41.7371C34.6134 41.9272 34.8871 42.353 34.8871 42.832Z" fill="#C0BCCA"/>
<path d="M18.3641 59.5174C17.733 59.487 17.3604 59.2741 17.1399 58.8407C16.9194 58.3997 16.9422 57.9435 17.2616 57.5633C17.5809 57.1831 17.9459 56.8257 18.3185 56.4987C18.7975 56.0805 19.4971 56.1414 19.9381 56.59C20.3715 57.031 20.4171 57.7229 20.0065 58.1944C19.6872 58.567 19.3374 58.9167 18.9572 59.2361C18.7747 59.3958 18.4934 59.4566 18.3641 59.5174Z" fill="#C0BCCA"/>
<path d="M34.9023 58.1566C34.8719 58.7953 34.6514 59.1755 34.2028 59.3884C33.7542 59.6013 33.3055 59.5633 32.9253 59.2363C32.5527 58.917 32.203 58.5672 31.8836 58.1946C31.473 57.7232 31.5262 57.0312 31.9597 56.5978C32.4007 56.1492 33.1002 56.0883 33.5793 56.5065C33.9519 56.8259 34.3016 57.1757 34.6134 57.5559C34.7807 57.746 34.8415 58.0273 34.9023 58.1566Z" fill="#C0BCCA"/>
<path d="M27.1618 40.2566C27.1618 40.4771 27.1694 40.69 27.1618 40.9105C27.1314 41.5644 26.6067 42.0663 25.9604 42.0739C25.3141 42.0739 24.7742 41.572 24.7514 40.9257C24.7362 40.4695 24.7362 40.0132 24.7514 39.5646C24.7742 38.9183 25.3065 38.4316 25.9452 38.4316C26.5915 38.4316 27.1162 38.9107 27.1542 39.5494C27.1694 39.7851 27.1542 40.0208 27.1618 40.2566C27.1542 40.2566 27.1542 40.2566 27.1618 40.2566Z" fill="#C0BCCA"/>
<path d="M15.6267 51.7773C15.4062 51.7773 15.1933 51.7849 14.9728 51.7773C14.3113 51.7469 13.817 51.2298 13.817 50.5759C13.817 49.922 14.3037 49.3897 14.9576 49.3669C15.4138 49.3517 15.87 49.3517 16.3187 49.3669C16.9498 49.3897 17.4516 49.9296 17.4516 50.5607C17.4592 51.1918 16.965 51.7317 16.3339 51.7697C16.0982 51.7849 15.8624 51.7697 15.6267 51.7773Z" fill="#C0BCCA"/>
<path d="M36.2788 49.3588C36.5069 49.3588 36.735 49.3512 36.9631 49.3588C37.6018 49.3893 38.0885 49.9139 38.0885 50.5526C38.0885 51.199 37.6094 51.7312 36.9707 51.7617C36.5069 51.7845 36.0431 51.7845 35.5792 51.7617C34.9481 51.7388 34.4539 51.199 34.4463 50.5679C34.4386 49.9215 34.9481 49.3893 35.5944 49.3588C35.8301 49.3512 36.0507 49.3588 36.2788 49.3588Z" fill="#C0BCCA"/>
<path d="M27.1542 60.8932C27.1542 61.1213 27.1618 61.3494 27.1542 61.5775C27.1238 62.2162 26.5992 62.7029 25.9604 62.7029C25.3141 62.7029 24.7818 62.2238 24.7514 61.5851C24.7286 61.1213 24.7286 60.6574 24.7514 60.1936C24.7742 59.5625 25.3141 59.0682 25.9452 59.0606C26.5763 59.053 27.1162 59.5549 27.1542 60.186C27.1694 60.4217 27.1542 60.6574 27.1542 60.8932Z" fill="#C0BCCA"/>
</g>
<defs>
<clipPath id="clip0_422_3922">
<rect width="24.2714" height="24.2714" fill="white" transform="translate(13.817 38.4316)"/>
</clipPath>
</defs>
</svg>
