<svg width="25" height="25" viewBox="0 0 25 25" fill="none" xmlns="http://www.w3.org/2000/svg">
<path d="M20.9921 9.30965C21.8836 9.59686 22.5048 10.4504 22.5048 11.4304V15.7648C22.5048 16.9137 21.6506 17.8886 20.508 17.9826C20.1651 18.0099 19.8222 18.0352 19.4793 18.0554V21.1814L16.4538 18.1475C15.0883 18.1475 13.7369 18.0918 12.3996 17.9826C12.1085 17.959 11.8253 17.8757 11.5676 17.7379M20.9921 9.30965C20.8362 9.25935 20.6752 9.22712 20.512 9.21357C17.8112 8.98874 15.0964 8.98874 12.3956 9.21357C11.255 9.30864 10.4028 10.2825 10.4028 11.4304V15.7648C10.4028 16.6113 10.8667 17.3627 11.5676 17.7379M20.9921 9.30965V7.41446C20.9921 5.77513 19.8303 4.35424 18.2086 4.14288C16.1218 3.87163 14.0198 3.73584 11.9156 3.73633C9.78258 3.73633 7.68187 3.87488 5.62251 4.14288C4.00084 4.35424 2.83905 5.77513 2.83905 7.41446V13.7109C2.83905 15.3502 4.00084 16.7711 5.62251 16.9824C6.20442 17.0583 6.78935 17.124 7.3773 17.1786V21.9399L11.5676 17.7379" stroke="#8102FF" stroke-width="1.51696" stroke-linecap="round" stroke-linejoin="round"/>
</svg>
