<svg width="32" height="33" viewBox="0 0 32 33" fill="none" xmlns="http://www.w3.org/2000/svg">
<g opacity="0.6" clip-path="url(#clip0_447_659)">
<path d="M14.1996 8.75977C12.2655 8.75977 10.3748 9.3333 8.76666 10.4078C7.15849 11.4824 5.90508 13.0097 5.16493 14.7966C4.42477 16.5835 4.23111 18.5497 4.60844 20.4467C4.98577 22.3436 5.91714 24.0861 7.28477 25.4537C8.6524 26.8214 10.3949 27.7527 12.2918 28.13C14.1888 28.5074 16.155 28.3137 17.9419 27.5736C19.7288 26.8334 21.2561 25.58 22.3306 23.9718C23.4052 22.3637 23.9787 20.473 23.9787 18.5389H14.1996V8.75977Z" stroke="white" stroke-width="1.95582" stroke-linecap="round" stroke-linejoin="round"/>
<path d="M18.1111 14.6287H27.8902C27.8902 12.0351 26.8599 9.54777 25.0259 7.71384C23.192 5.8799 20.7047 4.84961 18.1111 4.84961V14.6287Z" stroke="white" stroke-width="1.95582" stroke-linecap="round" stroke-linejoin="round"/>
</g>
<defs>
<clipPath id="clip0_447_659">
<rect width="31.2931" height="31.2931" fill="white" transform="translate(0.508667 0.941406)"/>
</clipPath>
</defs>
</svg>
