<svg width="32" height="32" viewBox="0 0 32 32" fill="none" xmlns="http://www.w3.org/2000/svg">
<g clip-path="url(#clip0_447_686)">
<path d="M10.2879 11.1657H22.0228M10.2879 15.0773H16.1553M3.4425 17.0462C3.4425 19.1324 4.90676 20.95 6.97211 21.2538C8.44418 21.4702 9.93191 21.6358 11.4353 21.748C11.8916 21.7819 12.3089 22.0218 12.5631 22.4012L16.1553 27.7901L19.7475 22.4012C19.8735 22.2138 20.0406 22.0576 20.236 21.9444C20.4314 21.8312 20.6501 21.764 20.8754 21.748C22.3685 21.6365 23.8572 21.4717 25.3385 21.2538C27.4039 20.95 28.8681 19.1337 28.8681 17.0449V9.19813C28.8681 7.10931 27.4039 5.29301 25.3385 4.98921C22.2978 4.54291 19.2286 4.31935 16.1553 4.32032C13.0364 4.32032 9.96972 4.54849 6.97211 4.98921C4.90676 5.29301 3.4425 7.11062 3.4425 9.19813V17.0449V17.0462Z" stroke="white" stroke-width="1.95582" stroke-linecap="round" stroke-linejoin="round"/>
</g>
<defs>
<clipPath id="clip0_447_686">
<rect width="31.2931" height="31.2931" fill="white" transform="translate(0.508667 0.40625)"/>
</clipPath>
</defs>
</svg>
