<svg width="32" height="32" viewBox="0 0 32 32" fill="none" xmlns="http://www.w3.org/2000/svg">
<g opacity="0.6" clip-path="url(#clip0_447_695)">
<path d="M22.7516 20.2308C23.3616 19.8142 24.077 19.5789 24.8151 19.552C25.5532 19.5251 26.2838 19.7077 26.9225 20.0788C27.5611 20.4498 28.0817 20.994 28.4239 21.6486C28.7662 22.3031 28.9161 23.0411 28.8564 23.7773C27.292 24.3241 25.6303 24.5368 23.9786 24.4019C23.9735 22.9241 23.5479 21.477 22.7516 20.2321C22.0448 19.1235 21.0698 18.2111 19.9168 17.5793C18.7638 16.9476 17.47 16.6168 16.1553 16.6177C14.8408 16.617 13.5473 16.9479 12.3946 17.5797C11.2418 18.2114 10.267 19.1237 9.56028 20.2321M23.9773 24.4006L23.9786 24.441C23.9786 24.7344 23.9629 25.0238 23.9303 25.3094C21.5643 26.6669 18.8831 27.3791 16.1553 27.3747C13.3259 27.3747 10.6699 26.6237 8.38027 25.3094C8.34675 25.0076 8.33064 24.7042 8.33203 24.4006M8.33203 24.4006C6.68083 24.5404 5.02005 24.3285 3.45682 23.7786C3.3973 23.0427 3.54731 22.3049 3.88949 21.6506C4.23167 20.9963 4.75206 20.4522 5.39048 20.0812C6.0289 19.7102 6.75928 19.5275 7.49718 19.5542C8.23507 19.5809 8.95034 19.8159 9.56028 20.2321M8.33203 24.4006C8.33671 22.9229 8.76442 21.4771 9.56028 20.2321M20.0669 8.79445C20.0669 9.83188 19.6548 10.8268 18.9212 11.5604C18.1877 12.294 17.1927 12.7061 16.1553 12.7061C15.1179 12.7061 14.1229 12.294 13.3894 11.5604C12.6558 10.8268 12.2437 9.83188 12.2437 8.79445C12.2437 7.75702 12.6558 6.76208 13.3894 6.0285C14.1229 5.29493 15.1179 4.88281 16.1553 4.88281C17.1927 4.88281 18.1877 5.29493 18.9212 6.0285C19.6548 6.76208 20.0669 7.75702 20.0669 8.79445ZM27.8902 12.7061C27.8902 13.0913 27.8143 13.4728 27.6669 13.8288C27.5195 14.1847 27.3034 14.5081 27.0309 14.7805C26.7585 15.053 26.4351 15.2691 26.0792 15.4165C25.7232 15.5639 25.3417 15.6398 24.9565 15.6398C24.5712 15.6398 24.1897 15.5639 23.8338 15.4165C23.4779 15.2691 23.1544 15.053 22.882 14.7805C22.6096 14.5081 22.3935 14.1847 22.2461 13.8288C22.0986 13.4728 22.0228 13.0913 22.0228 12.7061C22.0228 11.928 22.3318 11.1818 22.882 10.6316C23.4322 10.0814 24.1784 9.77236 24.9565 9.77236C25.7346 9.77236 26.4808 10.0814 27.0309 10.6316C27.5811 11.1818 27.8902 11.928 27.8902 12.7061ZM10.2878 12.7061C10.2878 13.0913 10.212 13.4728 10.0645 13.8288C9.9171 14.1847 9.701 14.5081 9.42858 14.7805C9.15615 15.053 8.83274 15.2691 8.47681 15.4165C8.12087 15.5639 7.73938 15.6398 7.35412 15.6398C6.96886 15.6398 6.58736 15.5639 6.23143 15.4165C5.87549 15.2691 5.55208 15.053 5.27966 14.7805C5.00724 14.5081 4.79114 14.1847 4.64371 13.8288C4.49627 13.4728 4.42039 13.0913 4.42039 12.7061C4.42039 11.928 4.72948 11.1818 5.27966 10.6316C5.82984 10.0814 6.57604 9.77236 7.35412 9.77236C8.13219 9.77236 8.8784 10.0814 9.42858 10.6316C9.97876 11.1818 10.2878 11.928 10.2878 12.7061Z" stroke="white" stroke-width="1.95582" stroke-linecap="round" stroke-linejoin="round"/>
</g>
<defs>
<clipPath id="clip0_447_695">
<rect width="31.2931" height="31.2931" fill="white" transform="translate(0.508667 -0.0078125)"/>
</clipPath>
</defs>
</svg>
