<svg width="32" height="33" viewBox="0 0 32 33" fill="none" xmlns="http://www.w3.org/2000/svg">
<g opacity="0.6" clip-path="url(#clip0_447_677)">
<path d="M6.06321 14.0471C5.70457 16.7925 5.49087 19.5549 5.423 22.3228C9.17659 23.8908 12.7706 25.8164 16.1552 28.0729C19.5403 25.8163 23.1347 23.8907 26.8888 22.3228C26.8208 19.5549 26.6071 16.7925 26.2486 14.0471M26.2486 14.0471C27.3895 13.6638 28.546 13.3091 29.7143 12.9857C25.4592 10.0028 20.917 7.45193 16.1552 5.37109C11.3935 7.45237 6.85126 10.0037 2.59619 12.987C3.76092 13.3086 4.9166 13.6621 6.0619 14.0471C9.5415 15.2168 12.9176 16.6744 16.1552 18.4047C19.3924 16.6745 22.7694 15.2169 26.2486 14.0471ZM9.30986 20.3748C9.56922 20.3748 9.81796 20.2718 10.0014 20.0884C10.1847 19.905 10.2878 19.6563 10.2878 19.3969C10.2878 19.1376 10.1847 18.8888 10.0014 18.7054C9.81796 18.522 9.56922 18.419 9.30986 18.419C9.05051 18.419 8.80177 18.522 8.61838 18.7054C8.43498 18.8888 8.33196 19.1376 8.33196 19.3969C8.33196 19.6563 8.43498 19.905 8.61838 20.0884C8.80177 20.2718 9.05051 20.3748 9.30986 20.3748ZM9.30986 20.3748V15.5831C11.5222 14.2079 13.8073 12.9535 16.1552 11.8253M7.01895 26.8851C7.74648 26.1594 8.3234 25.297 8.71655 24.3476C9.10971 23.3981 9.31134 22.3803 9.30986 21.3527V19.3969" stroke="white" stroke-width="1.95582" stroke-linecap="round" stroke-linejoin="round"/>
</g>
<defs>
<clipPath id="clip0_447_677">
<rect width="31.2931" height="31.2931" fill="white" transform="translate(0.508667 0.818359)"/>
</clipPath>
</defs>
</svg>
