<svg width="32" height="33" viewBox="0 0 32 33" fill="none" xmlns="http://www.w3.org/2000/svg">
<g opacity="0.6" clip-path="url(#clip0_447_726)">
<path d="M15.1774 15.4133L15.2309 15.3872C15.3981 15.3036 15.5857 15.2698 15.7715 15.2896C15.9574 15.3094 16.1337 15.382 16.2795 15.4989C16.4253 15.6158 16.5346 15.7721 16.5944 15.9491C16.6542 16.1262 16.662 16.3167 16.6169 16.4981L15.6937 20.1959C15.6483 20.3773 15.6559 20.568 15.7155 20.7453C15.7752 20.9226 15.8844 21.0791 16.0303 21.1962C16.1762 21.3132 16.3526 21.386 16.5387 21.4059C16.7247 21.4257 16.9125 21.3918 17.0798 21.3081L17.1332 21.2807M27.8902 16.3912C27.8902 17.9322 27.5867 19.4582 26.997 20.8819C26.4072 22.3057 25.5428 23.5993 24.4532 24.689C23.3635 25.7787 22.0698 26.6431 20.6461 27.2328C19.2223 27.8225 17.6964 28.1261 16.1553 28.1261C14.6143 28.1261 13.0883 27.8225 11.6646 27.2328C10.2408 26.6431 8.94717 25.7787 7.85749 24.689C6.7678 23.5993 5.90341 22.3057 5.31368 20.8819C4.72394 19.4582 4.42041 17.9322 4.42041 16.3912C4.42041 13.2789 5.65676 10.294 7.85749 8.09333C10.0582 5.8926 13.043 4.65625 16.1553 4.65625C19.2676 4.65625 22.2524 5.8926 24.4532 8.09333C26.6539 10.294 27.8902 13.2789 27.8902 16.3912ZM16.1553 11.5016H16.1658V11.512H16.1553V11.5016Z" stroke="white" stroke-width="1.95582" stroke-linecap="round" stroke-linejoin="round"/>
</g>
<defs>
<clipPath id="clip0_447_726">
<rect width="31.2931" height="31.2931" fill="white" transform="translate(0.508667 0.75)"/>
</clipPath>
</defs>
</svg>
