<svg width="32" height="32" viewBox="0 0 32 32" fill="none" xmlns="http://www.w3.org/2000/svg">
<g opacity="0.6" clip-path="url(#clip0_447_739)">
<path d="M28.8681 9.13881V22.8295C28.8681 23.6076 28.5591 24.3538 28.0089 24.904C27.4587 25.4542 26.7125 25.7633 25.9344 25.7633H6.37623C5.59816 25.7633 4.85195 25.4542 4.30177 24.904C3.75159 24.3538 3.4425 23.6076 3.4425 22.8295V9.13881M28.8681 9.13881C28.8681 8.36073 28.5591 7.61453 28.0089 7.06435C27.4587 6.51417 26.7125 6.20508 25.9344 6.20508H6.37623C5.59816 6.20508 4.85195 6.51417 4.30177 7.06435C3.75159 7.61453 3.4425 8.36073 3.4425 9.13881M28.8681 9.13881V9.45565C28.8682 9.95653 28.74 10.4491 28.4958 10.8864C28.2516 11.3237 27.8995 11.6912 27.473 11.9539L17.6939 17.9713C17.2313 18.2562 16.6986 18.4071 16.1553 18.4071C15.612 18.4071 15.0794 18.2562 14.6167 17.9713L4.83766 11.9552C4.41118 11.6925 4.05907 11.325 3.81485 10.8877C3.57064 10.4504 3.44245 9.95783 3.4425 9.45695V9.13881" stroke="white" stroke-width="1.95582" stroke-linecap="round" stroke-linejoin="round"/>
</g>
<defs>
<clipPath id="clip0_447_739">
<rect width="31.2931" height="31.2931" fill="white" transform="translate(0.508667 0.335938)"/>
</clipPath>
</defs>
</svg>
