<svg width="32" height="32" viewBox="0 0 32 32" fill="none" xmlns="http://www.w3.org/2000/svg">
<g opacity="0.6" clip-path="url(#clip0_447_650)">
<path d="M15.3079 5.35897C15.2232 5.63278 15.1775 5.92355 15.1775 6.22474C15.1775 6.76455 15.6156 7.20265 16.1554 7.20265H22.0229C22.2823 7.20265 22.531 7.09962 22.7144 6.91623C22.8978 6.73284 23.0008 6.4841 23.0008 6.22474C23.0009 5.93125 22.9569 5.63941 22.8704 5.35897M15.3079 5.35897C15.4931 4.76009 15.8652 4.23624 16.3696 3.86412C16.8741 3.492 17.4844 3.29116 18.1113 3.29102H20.0671C21.3866 3.29102 22.5014 4.16201 22.8704 5.35897M15.3079 5.35897C14.8177 5.38896 14.33 5.42416 13.8424 5.46328C12.3677 5.58584 11.2659 6.84148 11.2659 8.32138V11.1143M22.8704 5.35897C23.3607 5.38896 23.8483 5.42416 24.336 5.46328C25.8107 5.58584 26.9124 6.84148 26.9124 8.32138V21.8713C26.9124 22.6494 26.6034 23.3956 26.0532 23.9458C25.503 24.4959 24.7568 24.805 23.9787 24.805H21.045M11.2659 11.1143H6.8653C6.05559 11.1143 5.39844 11.7714 5.39844 12.5812V27.2498C5.39844 28.0595 6.05559 28.7167 6.8653 28.7167H19.5781C20.3878 28.7167 21.045 28.0595 21.045 27.2498V24.805M11.2659 11.1143H19.5781C20.3878 11.1143 21.045 11.7714 21.045 12.5812V24.805M10.288 20.8934L12.2438 22.8492L16.1554 17.9597" stroke="white" stroke-width="1.95582" stroke-linecap="round" stroke-linejoin="round"/>
</g>
<defs>
<clipPath id="clip0_447_650">
<rect width="31.2931" height="31.2931" fill="white" transform="translate(0.508667 0.353516)"/>
</clipPath>
</defs>
</svg>
