<svg width="32" height="32" viewBox="0 0 32 32" fill="none" xmlns="http://www.w3.org/2000/svg">
<g opacity="0.6" clip-path="url(#clip0_447_770)">
<path d="M12.2437 16.7206L15.1774 19.6544L20.067 12.809M27.8902 15.7427C27.8902 17.2838 27.5867 18.8097 26.997 20.2335C26.4072 21.6572 25.5428 22.9509 24.4532 24.0406C23.3635 25.1302 22.0698 25.9946 20.6461 26.5844C19.2223 27.1741 17.6964 27.4776 16.1553 27.4776C14.6143 27.4776 13.0883 27.1741 11.6646 26.5844C10.2408 25.9946 8.94717 25.1302 7.85749 24.0406C6.7678 22.9509 5.90341 21.6572 5.31368 20.2335C4.72394 18.8097 4.42041 17.2838 4.42041 15.7427C4.42041 12.6304 5.65676 9.64561 7.85749 7.44489C10.0582 5.24417 13.043 4.00781 16.1553 4.00781C19.2676 4.00781 22.2524 5.24417 24.4532 7.44489C26.6539 9.64561 27.8902 12.6304 27.8902 15.7427Z" stroke="white" stroke-width="1.95582" stroke-linecap="round" stroke-linejoin="round"/>
</g>
<defs>
<clipPath id="clip0_447_770">
<rect width="31.2931" height="31.2931" fill="white" transform="translate(0.508667 0.0957031)"/>
</clipPath>
</defs>
</svg>
