<svg width="43" height="42" viewBox="0 0 43 42" fill="none" xmlns="http://www.w3.org/2000/svg">
<g clip-path="url(#clip0_447_602)">
<path d="M21.1549 8.85921V0.0507812L1.63376 19.1381C0.895657 19.8598 0.888998 21.0453 1.61895 21.7754L4.92889 25.0853" fill="#2196F3"/>
<path d="M21.1553 8.85921V0.0507812L40.6764 19.1381C41.4146 19.8598 41.4212 21.0453 40.6913 21.7754L37.3813 25.0853" fill="#1878C6"/>
<path d="M4.92883 25.0843L12.8101 17.2031H21.1549V25.0843" fill="#1565C0"/>
<path d="M37.3813 25.0843L29.5001 17.2031H21.1553V25.0843" fill="#10519D"/>
<path d="M21.155 33.8931H13.2738L17.2145 29.7207L21.155 33.8931Z" fill="#1565C0"/>
<path d="M21.1553 41.7718L29.0364 33.8906H21.1553V41.7718Z" fill="#1878C6"/>
<path d="M21.1552 41.7718L13.2739 33.8906H21.1552V41.7718Z" fill="#2196F3"/>
<path d="M21.1552 33.8931H29.0363L25.0957 29.7207L21.1552 33.8931Z" fill="#10519D"/>
<path d="M10.3637 28.4094C9.66279 29.1374 9.67369 30.2925 10.3882 31.007L13.2739 33.8928L21.1551 25.5479V17.2031" fill="#2196F3"/>
<path d="M31.9467 28.4094C32.6477 29.1374 32.6367 30.2925 31.9222 31.007L29.0364 33.8928L21.1553 25.5479V17.2031" fill="#1878C6"/>
</g>
<defs>
<clipPath id="clip0_447_602">
<rect width="41.7241" height="41.7241" fill="white" transform="translate(0.293091 0.0507812)"/>
</clipPath>
</defs>
</svg>
