<svg width="25" height="25" viewBox="0 0 25 25" fill="none" xmlns="http://www.w3.org/2000/svg">
<g clip-path="url(#clip0_422_3911)">
<path d="M16.4507 21.23C15.9012 23.5436 13.9708 24.686 12.2283 24.7004C10.4859 24.7149 8.49761 23.6014 7.92644 21.23C7.83244 21.23 7.73845 21.23 7.63723 21.23C6.11891 21.23 4.6006 21.23 3.08228 21.23C2.34481 21.23 1.78086 20.9263 1.45551 20.2611C1.13016 19.5887 1.23861 18.9597 1.68687 18.3596C2.2219 17.6366 2.728 16.8847 3.23411 16.14C3.44378 15.8363 3.51608 15.4821 3.50885 15.1133C3.50162 13.1106 3.46547 11.1079 3.51608 9.10512C3.6173 5.38885 5.36699 2.6848 8.7579 1.15925C13.6527 -1.04592 19.4657 1.91118 20.6369 7.15299C20.7888 7.82539 20.8466 8.52671 20.8611 9.21357C20.89 11.1585 20.8755 13.1106 20.8683 15.0555C20.8683 15.5182 20.984 15.9231 21.2515 16.2991C21.7648 17.0148 22.2709 17.7451 22.777 18.4681C23.1747 19.032 23.2325 19.6466 22.9216 20.2611C22.618 20.8757 22.0902 21.2083 21.3961 21.2155C19.8488 21.23 18.3016 21.2227 16.7616 21.2227C16.6604 21.23 16.5592 21.23 16.4507 21.23ZM21.3455 19.4875C20.8177 18.7356 20.326 18.0054 19.8127 17.2896C19.3427 16.6244 19.1186 15.8942 19.1258 15.0844C19.1331 13.1467 19.1331 11.2091 19.1258 9.26418C19.1258 8.96775 19.1114 8.67131 19.0825 8.37488C18.6487 4.14528 14.4552 1.28939 10.3485 2.43175C7.33357 3.27044 5.25853 5.96003 5.24407 9.08343C5.22961 11.0862 5.23684 13.0889 5.24407 15.0916C5.24407 15.9014 5.01994 16.6316 4.54999 17.2968C4.08726 17.9475 3.639 18.5982 3.19073 19.2489C3.14012 19.3212 3.08951 19.3935 3.02444 19.4875C9.14109 19.4875 15.2216 19.4875 21.3455 19.4875ZM14.5998 21.2517C12.9875 21.2517 11.3824 21.2517 9.77011 21.2517C10.0665 22.2566 11.1294 22.9869 12.25 22.9652C13.3129 22.9435 14.3684 22.1771 14.5998 21.2517Z" fill="#C0BCCA"/>
</g>
<defs>
<clipPath id="clip0_422_3911">
<rect width="24.2714" height="24.2714" fill="white" transform="translate(0.0529785 0.431641)"/>
</clipPath>
</defs>
</svg>
