<svg width="32" height="32" viewBox="0 0 32 32" fill="none" xmlns="http://www.w3.org/2000/svg">
<path d="M22.0228 14.2531V9.36355C22.0228 7.8074 21.4046 6.31499 20.3042 5.21463C19.2039 4.11427 17.7115 3.49609 16.1553 3.49609C14.5992 3.49609 13.1068 4.11427 12.0064 5.21463C10.906 6.31499 10.2879 7.8074 10.2879 9.36355V14.2531M9.30995 28.9217H23.0007C23.7788 28.9217 24.525 28.6126 25.0751 28.0625C25.6253 27.5123 25.9344 26.7661 25.9344 25.988V17.1868C25.9344 16.4088 25.6253 15.6625 25.0751 15.1124C24.525 14.5622 23.7788 14.2531 23.0007 14.2531H9.30995C8.53188 14.2531 7.78567 14.5622 7.23549 15.1124C6.68531 15.6625 6.37622 16.4088 6.37622 17.1868V25.988C6.37622 26.7661 6.68531 27.5123 7.23549 28.0625C7.78567 28.6126 8.53188 28.9217 9.30995 28.9217Z" stroke="white" stroke-width="1.95582" stroke-linecap="round" stroke-linejoin="round"/>
</svg>
