<svg width="33" height="32" viewBox="0 0 33 32" fill="none" xmlns="http://www.w3.org/2000/svg">
<path d="M20.3363 22.5351C22.7657 22.2474 25.1527 21.6741 27.4477 20.827C25.5041 18.674 24.4301 15.8755 24.4344 12.975V12.0623V11.9971C24.4344 9.92224 23.6102 7.93236 22.143 6.46521C20.6759 4.99806 18.686 4.17383 16.6112 4.17383C14.5363 4.17383 12.5464 4.99806 11.0793 6.46521C9.61212 7.93236 8.78788 9.92224 8.78788 11.9971V12.975C8.79182 15.8757 7.71738 18.6742 5.77332 20.827C8.03294 21.6615 10.4151 22.2417 12.886 22.5351M20.3363 22.5351C17.8616 22.8286 15.3608 22.8286 12.886 22.5351M20.3363 22.5351C20.5242 23.1216 20.571 23.7443 20.4727 24.3523C20.3745 24.9603 20.134 25.5366 19.7709 26.0341C19.4079 26.5316 18.9325 26.9364 18.3834 27.2155C17.8343 27.4945 17.2271 27.64 16.6112 27.64C15.9952 27.64 15.388 27.4945 14.8389 27.2155C14.2899 26.9364 13.8144 26.5316 13.4514 26.0341C13.0883 25.5366 12.8479 24.9603 12.7496 24.3523C12.6514 23.7443 12.6981 23.1216 12.886 22.5351" stroke="#94A3B8" stroke-width="1.95582" stroke-linecap="round" stroke-linejoin="round"/>
</svg>
