<svg width="24" height="25" viewBox="0 0 24 25" fill="none" xmlns="http://www.w3.org/2000/svg">
<path d="M17.059 16.021C17.5268 15.7015 18.0755 15.5211 18.6416 15.5004C19.2076 15.4798 19.768 15.6199 20.2578 15.9044C20.7476 16.189 21.1469 16.6064 21.4093 17.1084C21.6718 17.6104 21.7868 18.1764 21.741 18.741C20.5412 19.1603 19.2668 19.3235 18 19.22C17.9961 18.0866 17.6697 16.9768 17.059 16.022C16.5169 15.1718 15.7691 14.472 14.8848 13.9875C14.0005 13.503 13.0083 13.2493 12 13.25C10.9918 13.2495 9.99983 13.5032 9.11573 13.9877C8.23163 14.4723 7.484 15.1719 6.942 16.022M17.999 19.219L18 19.25C18 19.475 17.988 19.697 17.963 19.916C16.1484 20.9571 14.0921 21.5033 12 21.5C9.83 21.5 7.793 20.924 6.037 19.916C6.01129 19.6846 5.99894 19.4519 6 19.219M6 19.219C4.73363 19.3263 3.45991 19.1637 2.261 18.742C2.21535 18.1776 2.33039 17.6117 2.59283 17.1099C2.85526 16.6081 3.25437 16.1908 3.744 15.9063C4.23364 15.6218 4.7938 15.4817 5.35972 15.5021C5.92564 15.5226 6.47421 15.7028 6.942 16.022M6 19.219C6.00359 18.0857 6.33162 16.9769 6.942 16.022M15 7.25C15 8.04565 14.6839 8.80871 14.1213 9.37132C13.5587 9.93393 12.7956 10.25 12 10.25C11.2044 10.25 10.4413 9.93393 9.87868 9.37132C9.31607 8.80871 9 8.04565 9 7.25C9 6.45435 9.31607 5.69129 9.87868 5.12868C10.4413 4.56607 11.2044 4.25 12 4.25C12.7956 4.25 13.5587 4.56607 14.1213 5.12868C14.6839 5.69129 15 6.45435 15 7.25ZM21 10.25C21 10.5455 20.9418 10.8381 20.8287 11.111C20.7157 11.384 20.5499 11.6321 20.341 11.841C20.1321 12.0499 19.884 12.2157 19.611 12.3287C19.3381 12.4418 19.0455 12.5 18.75 12.5C18.4545 12.5 18.1619 12.4418 17.889 12.3287C17.616 12.2157 17.3679 12.0499 17.159 11.841C16.9501 11.6321 16.7843 11.384 16.6713 11.111C16.5582 10.8381 16.5 10.5455 16.5 10.25C16.5 9.65326 16.7371 9.08097 17.159 8.65901C17.581 8.23705 18.1533 8 18.75 8C19.3467 8 19.919 8.23705 20.341 8.65901C20.7629 9.08097 21 9.65326 21 10.25ZM7.5 10.25C7.5 10.5455 7.4418 10.8381 7.32873 11.111C7.21566 11.384 7.04992 11.6321 6.84099 11.841C6.63206 12.0499 6.38402 12.2157 6.11104 12.3287C5.83806 12.4418 5.54547 12.5 5.25 12.5C4.95453 12.5 4.66195 12.4418 4.38896 12.3287C4.11598 12.2157 3.86794 12.0499 3.65901 11.841C3.45008 11.6321 3.28434 11.384 3.17127 11.111C3.0582 10.8381 3 10.5455 3 10.25C3 9.65326 3.23705 9.08097 3.65901 8.65901C4.08097 8.23705 4.65326 8 5.25 8C5.84674 8 6.41903 8.23705 6.84099 8.65901C7.26295 9.08097 7.5 9.65326 7.5 10.25Z" stroke="white" stroke-width="1.5" stroke-linecap="round" stroke-linejoin="round"/>
</svg>
