<svg width="24" height="25" viewBox="0 0 24 25" fill="none" xmlns="http://www.w3.org/2000/svg">
<path d="M7.5 8.75H16.5M7.5 11.75H12M2.25 13.26C2.25 14.86 3.373 16.254 4.957 16.487C6.086 16.653 7.227 16.78 8.38 16.866C8.73 16.892 9.05 17.076 9.245 17.367L12 21.5L14.755 17.367C14.8516 17.2233 14.9798 17.1034 15.1297 17.0166C15.2795 16.9298 15.4472 16.8783 15.62 16.866C16.7652 16.7805 17.9069 16.6541 19.043 16.487C20.627 16.254 21.75 14.861 21.75 13.259V7.241C21.75 5.639 20.627 4.246 19.043 4.013C16.711 3.67072 14.357 3.49926 12 3.5C9.608 3.5 7.256 3.675 4.957 4.013C3.373 4.246 2.25 5.64 2.25 7.241V13.259V13.26Z" stroke="white" stroke-width="1.5" stroke-linecap="round" stroke-linejoin="round"/>
</svg>
