<svg width="32" height="32" viewBox="0 0 32 32" fill="none" xmlns="http://www.w3.org/2000/svg">
<path d="M16.1553 7.96632V15.7896H22.0228M27.8902 15.7896C27.8902 17.3306 27.5867 18.8566 26.997 20.2804C26.4072 21.7041 25.5428 22.9977 24.4532 24.0874C23.3635 25.1771 22.0698 26.0415 20.6461 26.6312C19.2223 27.221 17.6964 27.5245 16.1553 27.5245C14.6143 27.5245 13.0883 27.221 11.6646 26.6312C10.2408 26.0415 8.94717 25.1771 7.85749 24.0874C6.7678 22.9977 5.90341 21.7041 5.31368 20.2804C4.72394 18.8566 4.42041 17.3306 4.42041 15.7896C4.42041 12.6773 5.65676 9.69249 7.85749 7.49176C10.0582 5.29104 13.043 4.05469 16.1553 4.05469C19.2676 4.05469 22.2524 5.29104 24.4532 7.49176C26.6539 9.69249 27.8902 12.6773 27.8902 15.7896Z" stroke="white" stroke-width="1.95582" stroke-linecap="round" stroke-linejoin="round"/>
</svg>
