<svg width="32" height="32" viewBox="0 0 32 32" fill="none" xmlns="http://www.w3.org/2000/svg">
<path d="M3.4425 4.49219H5.24968C5.91466 4.49219 6.49489 4.93942 6.667 5.58093L7.16638 7.4546M7.16638 7.4546C14.4298 7.25105 21.6863 8.05849 28.7273 9.85374C27.6529 13.0535 26.3764 16.1619 24.9148 19.1608H10.2879M7.16638 7.4546L10.2879 19.1608M10.2879 19.1608C9.25044 19.1608 8.2555 19.5729 7.52192 20.3065C6.78835 21.0401 6.37623 22.035 6.37623 23.0725H26.9123M8.33205 26.9841C8.33205 27.2435 8.22902 27.4922 8.04563 27.6756C7.86223 27.859 7.6135 27.962 7.35414 27.962C7.09478 27.962 6.84605 27.859 6.66266 27.6756C6.47926 27.4922 6.37623 27.2435 6.37623 26.9841C6.37623 26.7247 6.47926 26.476 6.66266 26.2926C6.84605 26.1092 7.09478 26.0062 7.35414 26.0062C7.6135 26.0062 7.86223 26.1092 8.04563 26.2926C8.22902 26.476 8.33205 26.7247 8.33205 26.9841ZM24.9565 26.9841C24.9565 27.2435 24.8535 27.4922 24.6701 27.6756C24.4867 27.859 24.238 27.962 23.9786 27.962C23.7192 27.962 23.4705 27.859 23.2871 27.6756C23.1037 27.4922 23.0007 27.2435 23.0007 26.9841C23.0007 26.7247 23.1037 26.476 23.2871 26.2926C23.4705 26.1092 23.7192 26.0062 23.9786 26.0062C24.238 26.0062 24.4867 26.1092 24.6701 26.2926C24.8535 26.476 24.9565 26.7247 24.9565 26.9841Z" stroke="white" stroke-width="1.95582" stroke-linecap="round" stroke-linejoin="round"/>
</svg>
