<svg width="32" height="32" viewBox="0 0 32 32" fill="none" xmlns="http://www.w3.org/2000/svg">
<path d="M3.44238 19.7288C3.44238 21.2849 4.06056 22.7773 5.16092 23.8777C6.26128 24.9781 7.75369 25.5962 9.30984 25.5962H23.9785C25.1231 25.5975 26.2318 25.1971 27.1116 24.465C27.9913 23.7328 28.5863 22.7152 28.793 21.5894C28.9996 20.4636 28.8047 19.3011 28.2423 18.3042C27.68 17.3073 26.7857 16.5393 25.7152 16.134C25.9572 15.4458 26.0019 14.7038 25.8443 13.9915C25.6868 13.2793 25.3332 12.6254 24.8235 12.1035C24.3139 11.5816 23.6685 11.2127 22.9602 11.0383C22.2519 10.8639 21.5089 10.8911 20.8153 11.1167C20.3666 9.39557 19.2657 7.91668 17.7456 6.99317C16.2256 6.06965 14.4057 5.77403 12.6715 6.1689C10.9373 6.56377 9.42485 7.61814 8.45447 9.10871C7.48409 10.5993 7.13197 12.409 7.47267 14.1547C6.29994 14.5418 5.27915 15.2888 4.55556 16.2896C3.83196 17.2903 3.44243 18.4938 3.44238 19.7288Z" stroke="white" stroke-width="1.95582" stroke-linecap="round" stroke-linejoin="round"/>
</svg>
