<svg width="24" height="25" viewBox="0 0 24 25" fill="none" xmlns="http://www.w3.org/2000/svg">
<path d="M2.25 15.5004C2.25 16.6939 2.72411 17.8385 3.56802 18.6824C4.41193 19.5263 5.55653 20.0004 6.75 20.0004H18C18.8778 20.0014 19.7282 19.6943 20.4029 19.1328C21.0776 18.5713 21.534 17.7908 21.6924 16.9274C21.8509 16.064 21.7015 15.1724 21.2701 14.4078C20.8388 13.6433 20.1529 13.0543 19.332 12.7434C19.5176 12.2156 19.5519 11.6465 19.431 11.1003C19.3102 10.554 19.039 10.0525 18.6481 9.65225C18.2572 9.25202 17.7622 8.96905 17.219 8.83531C16.6758 8.70157 16.106 8.72239 15.574 8.89541C15.2299 7.57543 14.3856 6.44121 13.2198 5.73293C12.054 5.02464 10.6583 4.79792 9.32821 5.10076C7.99817 5.40361 6.83821 6.21224 6.09398 7.35543C5.34976 8.49861 5.0797 9.88658 5.341 11.2254C4.44158 11.5223 3.65869 12.0952 3.10374 12.8627C2.54879 13.6303 2.25004 14.5533 2.25 15.5004Z" stroke="white" stroke-width="1.5" stroke-linecap="round" stroke-linejoin="round"/>
</svg>
