<svg width="24" height="24" viewBox="0 0 24 24" fill="none" xmlns="http://www.w3.org/2000/svg">
<path d="M4.26001 10.1472C3.98496 12.2527 3.82106 14.3713 3.76901 16.4942C6.6478 17.6967 9.40417 19.1735 12 20.9042C14.5962 19.1735 17.3529 17.6967 20.232 16.4942C20.1799 14.3713 20.016 12.2527 19.741 10.1472M19.741 10.1472C20.616 9.85316 21.503 9.58116 22.399 9.33316C19.1356 7.04541 15.652 5.08905 12 3.49316C8.348 5.08938 4.86441 7.04608 1.60101 9.33416C2.49429 9.58076 3.38063 9.85186 4.25901 10.1472C6.92767 11.0443 9.51695 12.1622 12 13.4892C14.4828 12.1622 17.0727 11.0444 19.741 10.1472ZM6.75001 15.0002C6.94893 15.0002 7.13969 14.9211 7.28034 14.7805C7.421 14.6398 7.50001 14.4491 7.50001 14.2502C7.50001 14.0513 7.421 13.8605 7.28034 13.7198C7.13969 13.5792 6.94893 13.5002 6.75001 13.5002C6.5511 13.5002 6.36034 13.5792 6.21968 13.7198C6.07903 13.8605 6.00001 14.0513 6.00001 14.2502C6.00001 14.4491 6.07903 14.6398 6.21968 14.7805C6.36034 14.9211 6.5511 15.0002 6.75001 15.0002ZM6.75001 15.0002V11.3252C8.44675 10.2705 10.1993 9.30843 12 8.44316M4.99301 19.9932C5.55099 19.4366 5.99345 18.7752 6.29498 18.047C6.5965 17.3189 6.75115 16.5383 6.75001 15.7502V14.2502" stroke="white" stroke-width="1.5" stroke-linecap="round" stroke-linejoin="round"/>
</svg>
