<svg width="20" height="19" viewBox="0 0 20 19" fill="none" xmlns="http://www.w3.org/2000/svg">
<g clip-path="url(#clip0_422_3917)">
<path d="M6.16766 1.78335C4.87147 1.78335 3.59428 1.78335 2.29335 1.78335C2.29335 3.08429 2.29335 4.37097 2.29335 5.66716C1.85179 5.66716 1.43398 5.66716 0.987671 5.66716C0.987671 5.60543 0.987671 5.54371 0.987671 5.48199C0.987671 4.06236 0.987671 2.63798 0.987671 1.21835C0.987671 0.734062 1.23931 0.482422 1.71885 0.482422C3.14798 0.482422 4.57235 0.482422 6.00148 0.482422C6.05371 0.482422 6.10593 0.482422 6.17241 0.482422C6.16766 0.914483 6.16766 1.33705 6.16766 1.78335Z" fill="#C0BCCA"/>
<path d="M13.9737 17.3506C15.2699 17.3506 16.5471 17.3506 17.848 17.3506C17.848 16.0497 17.848 14.763 17.848 13.4668C18.2895 13.4668 18.7074 13.4668 19.1537 13.4668C19.1537 13.5285 19.1537 13.5902 19.1537 13.652C19.1537 15.0716 19.1537 16.496 19.1537 17.9156C19.1537 18.3999 18.902 18.6515 18.4225 18.6515C16.9934 18.6515 15.569 18.6515 14.1399 18.6515C14.0876 18.6515 14.0354 18.6515 13.9689 18.6515C13.9737 18.2195 13.9737 17.7969 13.9737 17.3506Z" fill="#C0BCCA"/>
<path d="M2.2886 13.4715C2.2886 14.7677 2.2886 16.0449 2.2886 17.3459C3.58953 17.3459 4.87622 17.3459 6.17241 17.3459C6.17241 17.7874 6.17241 18.2052 6.17241 18.6515C6.11068 18.6515 6.04896 18.6515 5.98724 18.6515C4.56761 18.6515 3.14323 18.6515 1.7236 18.6515C1.23931 18.6515 0.987671 18.3999 0.987671 17.9204C0.987671 16.4912 0.987671 15.0668 0.987671 13.6377C0.987671 13.5855 0.987671 13.5333 0.987671 13.4668C1.41973 13.4715 1.8423 13.4715 2.2886 13.4715Z" fill="#C0BCCA"/>
<path d="M17.8527 5.66241C17.8527 4.36622 17.8527 3.08903 17.8527 1.7881C16.5518 1.7881 15.2651 1.7881 13.9689 1.7881C13.9689 1.34654 13.9689 0.928727 13.9689 0.482422C14.0307 0.482422 14.0924 0.482422 14.1541 0.482422C15.5737 0.482422 16.9981 0.482422 18.4177 0.482422C18.902 0.482422 19.1537 0.734062 19.1537 1.2136C19.1537 2.64273 19.1537 4.0671 19.1537 5.49623C19.1537 5.54846 19.1537 5.60069 19.1537 5.66716C18.7216 5.66241 18.299 5.66241 17.8527 5.66241Z" fill="#C0BCCA"/>
</g>
<defs>
<clipPath id="clip0_422_3917">
<rect width="18.2035" height="18.2035" fill="white" transform="translate(0.968933 0.466797)"/>
</clipPath>
</defs>
</svg>
