<svg width="26" height="25" viewBox="0 0 26 25" fill="none" xmlns="http://www.w3.org/2000/svg">
<g clip-path="url(#clip0_422_3924)">
<path d="M5.66847 12.5525C5.67607 8.53009 8.96092 5.26805 12.9833 5.28326C16.9906 5.29846 20.245 8.56811 20.2374 12.5829C20.2298 16.6053 16.9449 19.8674 12.9225 19.8522C8.9153 19.837 5.66087 16.5673 5.66847 12.5525ZM17.8042 12.5677C17.8042 9.88357 15.6523 7.72408 12.9681 7.71648C10.2764 7.70888 8.10169 9.87596 8.1093 12.5677C8.1093 15.2519 10.2688 17.4113 12.9453 17.419C15.6371 17.4266 17.8042 15.2595 17.8042 12.5677Z" fill="#C0BCCA"/>
<path d="M4.00293 4.97824C4.02574 4.34712 4.24625 3.96693 4.69488 3.75402C5.1435 3.53351 5.59213 3.57153 5.97232 3.89849C6.34491 4.21785 6.69468 4.56763 7.01404 4.94022C7.43225 5.41926 7.37903 6.11881 6.9304 6.55983C6.48938 6.99325 5.80503 7.04648 5.3336 6.64347C4.95341 6.31651 4.59603 5.95913 4.27667 5.57894C4.11699 5.38124 4.06376 5.1075 4.00293 4.97824Z" fill="#C0BCCA"/>
<path d="M21.8871 4.83201C21.8871 5.15898 21.7731 5.44792 21.5449 5.67604C21.256 5.97259 20.9671 6.27674 20.6629 6.55808C20.1534 7.02952 19.4235 7.02192 18.952 6.54287C18.4882 6.07144 18.4806 5.34907 18.9444 4.85483C19.241 4.53547 19.5451 4.22371 19.8721 3.93476C20.2523 3.59259 20.6933 3.53176 21.1648 3.73706C21.6134 3.92716 21.8871 4.35297 21.8871 4.83201Z" fill="#C0BCCA"/>
<path d="M5.36411 21.5174C4.73299 21.487 4.3604 21.2741 4.13989 20.8407C3.91938 20.3997 3.94219 19.9435 4.26155 19.5633C4.58091 19.1831 4.9459 18.8257 5.31848 18.4987C5.79752 18.0805 6.49707 18.1414 6.9381 18.59C7.37151 19.031 7.41714 19.7229 7.00653 20.1944C6.68717 20.567 6.33739 20.9167 5.9572 21.2361C5.77471 21.3958 5.49337 21.4566 5.36411 21.5174Z" fill="#C0BCCA"/>
<path d="M21.9023 20.1566C21.8719 20.7953 21.6514 21.1755 21.2028 21.3884C20.7542 21.6013 20.3055 21.5633 19.9253 21.2363C19.5527 20.917 19.203 20.5672 18.8836 20.1946C18.473 19.7232 18.5262 19.0312 18.9597 18.5978C19.4007 18.1492 20.1002 18.0883 20.5793 18.5065C20.9519 18.8259 21.3016 19.1757 21.6134 19.5559C21.7807 19.746 21.8415 20.0273 21.9023 20.1566Z" fill="#C0BCCA"/>
<path d="M14.1618 2.25656C14.1618 2.47707 14.1694 2.68998 14.1618 2.91049C14.1314 3.56441 13.6067 4.06627 12.9604 4.07387C12.3141 4.07387 11.7742 3.57202 11.7514 2.92569C11.7362 2.46946 11.7362 2.01324 11.7514 1.56461C11.7742 0.918285 12.3065 0.431641 12.9452 0.431641C13.5915 0.431641 14.1162 0.910681 14.1542 1.5494C14.1694 1.78512 14.1542 2.02084 14.1618 2.25656C14.1542 2.25656 14.1542 2.25656 14.1618 2.25656Z" fill="#C0BCCA"/>
<path d="M2.62673 13.7773C2.40621 13.7773 2.19331 13.7849 1.9728 13.7773C1.31126 13.7469 0.817017 13.2298 0.817017 12.5759C0.817017 11.922 1.30366 11.3897 1.95759 11.3669C2.41382 11.3517 2.87005 11.3517 3.31867 11.3669C3.94979 11.3897 4.45164 11.9296 4.45164 12.5607C4.45925 13.1918 3.965 13.7317 3.33388 13.7697C3.09816 13.7849 2.86244 13.7697 2.62673 13.7773Z" fill="#C0BCCA"/>
<path d="M23.2788 11.3588C23.5069 11.3588 23.735 11.3512 23.9631 11.3588C24.6018 11.3893 25.0885 11.9139 25.0885 12.5526C25.0885 13.199 24.6094 13.7312 23.9707 13.7617C23.5069 13.7845 23.0431 13.7845 22.5792 13.7617C21.9481 13.7388 21.4539 13.199 21.4463 12.5679C21.4386 11.9215 21.9481 11.3893 22.5944 11.3588C22.8301 11.3512 23.0507 11.3588 23.2788 11.3588Z" fill="#C0BCCA"/>
<path d="M14.1542 22.8932C14.1542 23.1213 14.1618 23.3494 14.1542 23.5775C14.1238 24.2162 13.5992 24.7029 12.9604 24.7029C12.3141 24.7029 11.7818 24.2238 11.7514 23.5851C11.7286 23.1213 11.7286 22.6574 11.7514 22.1936C11.7742 21.5625 12.3141 21.0682 12.9452 21.0606C13.5763 21.053 14.1162 21.5549 14.1542 22.186C14.1694 22.4217 14.1542 22.6574 14.1542 22.8932Z" fill="#C0BCCA"/>
</g>
<defs>
<clipPath id="clip0_422_3924">
<rect width="24.2714" height="24.2714" fill="white" transform="translate(0.817017 0.431641)"/>
</clipPath>
</defs>
</svg>
