<svg width="20" height="21" viewBox="0 0 20 21" fill="none" xmlns="http://www.w3.org/2000/svg">
<path fill-rule="evenodd" clip-rule="evenodd" d="M4.375 8C4.375 6.50816 4.96763 5.07742 6.02253 4.02252C7.07742 2.96763 8.50816 2.375 10 2.375C11.4918 2.375 12.9226 2.96763 13.9775 4.02252C15.0324 5.07742 15.625 6.50816 15.625 8V8.625C15.625 10.3942 16.2917 12.0058 17.39 13.225C17.4584 13.3008 17.5072 13.3923 17.5321 13.4913C17.557 13.5903 17.5573 13.694 17.5329 13.7932C17.5084 13.8923 17.4601 13.984 17.392 14.0601C17.324 14.1363 17.2383 14.1946 17.1425 14.23C15.8558 14.705 14.5092 15.055 13.1167 15.2658C13.148 15.6943 13.0907 16.1246 12.9483 16.5299C12.8059 16.9352 12.5814 17.3068 12.2889 17.6214C11.9964 17.9361 11.6422 18.1871 11.2484 18.3587C10.8546 18.5303 10.4296 18.6189 10 18.6189C9.57041 18.6189 9.14542 18.5303 8.7516 18.3587C8.35777 18.1871 8.00356 17.9361 7.71108 17.6214C7.4186 17.3068 7.19415 16.9352 7.05173 16.5299C6.90931 16.1246 6.85198 15.6943 6.88334 15.2658C5.50971 15.0577 4.16083 14.7103 2.8575 14.2292C2.76178 14.1938 2.67617 14.1356 2.60814 14.0595C2.54011 13.9835 2.49173 13.8919 2.46724 13.7929C2.44274 13.6938 2.44287 13.5903 2.46761 13.4913C2.49235 13.3923 2.54095 13.3009 2.60917 13.225C3.74818 11.9639 4.37757 10.3243 4.375 8.625V8ZM8.12667 15.4167C8.11601 15.6693 8.15657 15.9215 8.24591 16.1581C8.33524 16.3947 8.47152 16.6107 8.64652 16.7933C8.82153 16.9758 9.03165 17.1211 9.26425 17.2203C9.49685 17.3196 9.74712 17.3707 10 17.3707C10.2529 17.3707 10.5032 17.3196 10.7358 17.2203C10.9684 17.1211 11.1785 16.9758 11.3535 16.7933C11.5285 16.6107 11.6648 16.3947 11.7541 16.1581C11.8434 15.9215 11.884 15.6693 11.8733 15.4167C10.627 15.5289 9.37303 15.5289 8.12667 15.4167Z" fill="#F8FAFC"/>
</svg>
