<svg width="16" height="16" viewBox="0 0 16 16" fill="none" xmlns="http://www.w3.org/2000/svg">
<path fill-rule="evenodd" clip-rule="evenodd" d="M8.3594 10.8477C8.26565 10.9413 8.13856 10.9939 8.00606 10.9939C7.87356 10.9939 7.74648 10.9413 7.65273 10.8477L2.65273 5.8477C2.56441 5.75291 2.51633 5.62755 2.51861 5.49802C2.5209 5.36848 2.57337 5.24489 2.66498 5.15328C2.75659 5.06167 2.88018 5.0092 3.00972 5.00691C3.13925 5.00463 3.26461 5.05271 3.3594 5.14103L8.00606 9.7877L12.6527 5.14103C12.7475 5.05271 12.8729 5.00463 13.0024 5.00691C13.1319 5.0092 13.2555 5.06167 13.3471 5.15328C13.4388 5.24489 13.4912 5.36848 13.4935 5.49802C13.4958 5.62755 13.4477 5.75291 13.3594 5.8477L8.3594 10.8477Z" fill="white"/>
</svg>
