<svg width="16" height="16" viewBox="0 0 16 16" fill="none" xmlns="http://www.w3.org/2000/svg">
<path fill-rule="evenodd" clip-rule="evenodd" d="M10.8533 7.64689C10.947 7.74064 10.9996 7.86772 10.9996 8.00022C10.9996 8.13272 10.947 8.25981 10.8533 8.35356L5.85334 13.3536C5.75856 13.4419 5.6332 13.49 5.50366 13.4877C5.37413 13.4854 5.25054 13.4329 5.15893 13.3413C5.06732 13.2497 5.01485 13.1261 5.01256 12.9966C5.01027 12.867 5.05836 12.7417 5.14668 12.6469L9.79334 8.00022L5.14668 3.35356C5.05836 3.25877 5.01027 3.13341 5.01256 3.00387C5.01485 2.87434 5.06732 2.75075 5.15893 2.65914C5.25054 2.56753 5.37413 2.51506 5.50366 2.51277C5.6332 2.51049 5.75856 2.55857 5.85334 2.64689L10.8533 7.64689Z" fill="#94A3B8"/>
</svg>
