<svg width="16" height="16" viewBox="0 0 16 16" fill="none" xmlns="http://www.w3.org/2000/svg">
<path fill-rule="evenodd" clip-rule="evenodd" d="M10.8533 7.64689C10.9469 7.74064 10.9995 7.86772 10.9995 8.00022C10.9995 8.13272 10.9469 8.25981 10.8533 8.35356L5.85331 13.3536C5.75853 13.4419 5.63317 13.49 5.50363 13.4877C5.3741 13.4854 5.25051 13.4329 5.1589 13.3413C5.06729 13.2497 5.01481 13.1261 5.01253 12.9966C5.01024 12.867 5.05833 12.7417 5.14665 12.6469L9.79331 8.00022L5.14665 3.35356C5.05833 3.25877 5.01024 3.13341 5.01253 3.00387C5.01481 2.87434 5.06729 2.75075 5.1589 2.65914C5.25051 2.56753 5.3741 2.51506 5.50363 2.51277C5.63317 2.51049 5.75853 2.55857 5.85331 2.64689L10.8533 7.64689Z" fill="#F1F5F9"/>
</svg>
