<svg width="22" height="22" viewBox="0 0 22 22" fill="none" xmlns="http://www.w3.org/2000/svg">
<path d="M2.10495 8.22852V15.4594C2.10495 16.1299 2.37132 16.773 2.84546 17.2471C3.31961 17.7213 3.96268 17.9876 4.63322 17.9876H17.2746C17.9451 17.9876 18.5882 17.7213 19.0623 17.2471C19.5365 16.773 19.8028 16.1299 19.8028 15.4594V8.22852L12.2787 12.8578C11.8803 13.1029 11.4217 13.2327 10.9539 13.2327C10.4861 13.2327 10.0275 13.1029 9.62908 12.8578L2.10495 8.22852Z" fill="white"/>
<path d="M19.8028 6.74736V6.61421C19.8028 5.94367 19.5365 5.30059 19.0623 4.82645C18.5882 4.35231 17.9451 4.08594 17.2746 4.08594H4.63322C3.96268 4.08594 3.31961 4.35231 2.84546 4.82645C2.37132 5.30059 2.10495 5.94367 2.10495 6.61421V6.74736L10.2915 11.7854C10.4907 11.9079 10.72 11.9728 10.9539 11.9728C11.1878 11.9728 11.4171 11.9079 11.6163 11.7854L19.8028 6.74736Z" fill="white"/>
</svg>
