<svg width="24" height="25" viewBox="0 0 24 25" fill="none" xmlns="http://www.w3.org/2000/svg">
<path d="M16.862 4.98725L18.549 3.29925C18.9007 2.94757 19.3777 2.75 19.875 2.75C20.3723 2.75 20.8493 2.94757 21.201 3.29925C21.5527 3.65092 21.7502 4.1279 21.7502 4.62525C21.7502 5.12259 21.5527 5.59957 21.201 5.95125L10.582 16.5702C10.0533 17.0986 9.40137 17.487 8.685 17.7002L6 18.5002L6.8 15.8152C7.01328 15.0989 7.40163 14.4469 7.93 13.9182L16.862 4.98725ZM16.862 4.98725L19.5 7.62525M18 14.5002V19.2502C18 19.847 17.7629 20.4193 17.341 20.8412C16.919 21.2632 16.3467 21.5002 15.75 21.5002H5.25C4.65326 21.5002 4.08097 21.2632 3.65901 20.8412C3.23705 20.4193 3 19.847 3 19.2502V8.75025C3 8.15351 3.23705 7.58121 3.65901 7.15926C4.08097 6.7373 4.65326 6.50025 5.25 6.50025H10" stroke="white" stroke-width="1.5" stroke-linecap="round" stroke-linejoin="round"/>
</svg>
