<svg width="32" height="33" viewBox="0 0 32 33" fill="none" xmlns="http://www.w3.org/2000/svg">
<path d="M22.4948 6.77257L24.6944 4.57162C25.153 4.11308 25.7749 3.85547 26.4234 3.85547C27.0718 3.85547 27.6938 4.11308 28.1523 4.57162C28.6109 5.03016 28.8685 5.65208 28.8685 6.30056C28.8685 6.94904 28.6109 7.57096 28.1523 8.02951L14.3064 21.8754C13.6171 22.5643 12.767 23.0707 11.833 23.3488L8.33205 24.3919L9.37515 20.891C9.65324 19.9569 10.1596 19.1068 10.8485 18.4175L22.4948 6.77257ZM22.4948 6.77257L25.9344 10.2122M23.9786 19.1764V25.3698C23.9786 26.1479 23.6695 26.8941 23.1193 27.4443C22.5691 27.9944 21.8229 28.3035 21.0449 28.3035H7.35414C6.57606 28.3035 5.82986 27.9944 5.27968 27.4443C4.7295 26.8941 4.42041 26.1479 4.42041 25.3698V11.6791C4.42041 10.901 4.7295 10.1548 5.27968 9.60461C5.82986 9.05442 6.57606 8.74534 7.35414 8.74534H13.5476" stroke="white" stroke-width="1.95582" stroke-linecap="round" stroke-linejoin="round"/>
</svg>
