<svg width="21" height="21" viewBox="0 0 21 21" fill="none" xmlns="http://www.w3.org/2000/svg">
<path d="M7.34384 0.494579C3.66995 0.96863 0.811419 3.76079 0.275742 7.39202C0.171451 8.12205 0.204634 9.37829 0.346849 10.1036C0.982077 13.256 3.41396 15.74 6.53795 16.4322C8.62852 16.892 10.7807 16.5175 12.6058 15.3703C12.8428 15.2233 13.0751 15.0622 13.1273 15.01C13.2173 14.9199 13.241 14.9436 16.0427 17.7358C19.1145 20.8029 18.977 20.6844 19.5032 20.6465C20.001 20.6085 20.3565 20.253 20.3945 19.7553C20.4324 19.2291 20.5509 19.3665 17.4885 16.2947L14.6774 13.4741L14.8433 13.2608C15.123 12.9005 15.5307 12.1704 15.744 11.649C16.1375 10.6772 16.3129 9.88552 16.3603 8.87579C16.5499 4.75155 13.5349 1.12033 9.42966 0.532503C8.99827 0.470877 7.7136 0.447174 7.34384 0.494579ZM8.89398 2.50455C9.81364 2.6041 10.7191 2.9075 11.4539 3.36733C11.9184 3.6565 12.108 3.80819 12.5679 4.26328C13.2505 4.93643 13.7483 5.74232 14.0469 6.6525C14.4688 7.94191 14.4262 9.51102 13.9379 10.7388C13.3169 12.3032 12.0085 13.6068 10.4489 14.2089C9.54343 14.5549 8.28246 14.6782 7.31539 14.517C6.03546 14.3037 4.90722 13.7253 4.01126 12.8199C3.38551 12.1847 3.03472 11.6774 2.71236 10.9332C1.80693 8.82839 2.1672 6.40599 3.64624 4.64252C4.76974 3.30096 6.40996 2.51403 8.20661 2.45715C8.31564 2.45715 8.62852 2.47611 8.89398 2.50455Z" fill="#C0BCCA"/>
</svg>
