<svg width="12" height="7" viewBox="0 0 12 7" fill="none" xmlns="http://www.w3.org/2000/svg">
<path fill-rule="evenodd" clip-rule="evenodd" d="M6.35937 6.3477C6.26562 6.44133 6.13853 6.49392 6.00603 6.49392C5.87353 6.49392 5.74645 6.44133 5.6527 6.3477L0.652699 1.3477C0.564378 1.25291 0.516296 1.12755 0.518582 0.998016C0.520867 0.868482 0.573342 0.744891 0.664951 0.653282C0.756559 0.561674 0.880151 0.509199 1.00968 0.506914C1.13922 0.504628 1.26458 0.55271 1.35937 0.64103L6.00603 5.2877L10.6527 0.64103C10.7475 0.55271 10.8728 0.504628 11.0024 0.506914C11.1319 0.509199 11.2555 0.561674 11.3471 0.653282C11.4387 0.744891 11.4912 0.868482 11.4935 0.998016C11.4958 1.12755 11.4477 1.25291 11.3594 1.3477L6.35937 6.3477Z" fill="#94A3B8"/>
</svg>
