<svg width="17" height="18" viewBox="0 0 17 18" fill="none" xmlns="http://www.w3.org/2000/svg">
<path fill-rule="evenodd" clip-rule="evenodd" d="M8.63259 0.816406C7.86063 0.816406 7.20075 1.37515 7.07349 2.13701L6.9968 2.59968C6.97555 2.71582 6.92409 2.82431 6.84761 2.91426C6.77112 3.0042 6.67231 3.07243 6.5611 3.11208C6.42493 3.16302 6.29057 3.21867 6.15826 3.27894C6.05156 3.32967 5.93338 3.35139 5.81561 3.34192C5.69784 3.33245 5.58465 3.29213 5.48742 3.22501L5.10566 2.95195C4.80125 2.73447 4.42955 2.63204 4.0567 2.66291C3.68386 2.69377 3.33406 2.85592 3.06956 3.1205L2.86477 3.32529C2.60019 3.5898 2.43804 3.9396 2.40717 4.31244C2.37631 4.68528 2.47873 5.05698 2.69621 5.36139L2.96927 5.74316C3.03639 5.84039 3.07672 5.95358 3.08618 6.07135C3.09565 6.18911 3.07393 6.3073 3.0232 6.414C2.96293 6.5463 2.90728 6.68066 2.85634 6.81683C2.81669 6.92805 2.74847 7.02686 2.65852 7.10334C2.56858 7.17983 2.46008 7.23128 2.34394 7.25254L1.88043 7.33007C1.51165 7.39169 1.17667 7.58207 0.935029 7.86738C0.693388 8.15269 0.560741 8.51444 0.560669 8.88833V9.17824C0.560669 9.9502 1.11942 10.6101 1.88127 10.7373L2.34394 10.814C2.58076 10.8536 2.77206 11.0247 2.85634 11.2497C2.9069 11.3863 2.96337 11.5203 3.0232 11.6526C3.07393 11.7593 3.09565 11.8775 3.08618 11.9952C3.07672 12.113 3.03639 12.2262 2.96927 12.3234L2.69621 12.7052C2.47873 13.0096 2.37631 13.3813 2.40717 13.7541C2.43804 14.127 2.60019 14.4768 2.86477 14.7413L3.06956 14.9461C3.61566 15.4922 4.47696 15.5638 5.10566 15.1146L5.48742 14.8416C5.58465 14.7744 5.69784 14.7341 5.81561 14.7246C5.93338 14.7152 6.05156 14.7369 6.15826 14.7876C6.29057 14.8475 6.42457 14.9031 6.5611 14.9545C6.78611 15.0388 6.95719 15.2301 6.9968 15.4669L7.07434 15.9304C7.20075 16.6914 7.85979 17.2502 8.63259 17.2502H8.9225C9.69447 17.2502 10.3543 16.6914 10.4816 15.9296L10.5583 15.4669C10.5795 15.3508 10.631 15.2423 10.7075 15.1523C10.784 15.0624 10.8828 14.9941 10.994 14.9545C11.1302 14.9035 11.2645 14.8479 11.3968 14.7876C11.5035 14.7369 11.6217 14.7152 11.7395 14.7246C11.8573 14.7341 11.9704 14.7744 12.0677 14.8416L12.4494 15.1146C12.7538 15.3321 13.1255 15.4345 13.4984 15.4037C13.8712 15.3728 14.221 15.2106 14.4855 14.9461L14.6903 14.7413C15.2364 14.1952 15.3081 13.3339 14.8589 12.7052L14.5858 12.3234C14.5187 12.2262 14.4784 12.113 14.4689 11.9952C14.4594 11.8775 14.4812 11.7593 14.5319 11.6526C14.5917 11.5203 14.6473 11.3863 14.6988 11.2497C14.783 11.0247 14.9743 10.8536 15.2112 10.814L15.6747 10.7373C16.0436 10.6757 16.3787 10.4852 16.6203 10.1997C16.862 9.91422 16.9946 9.55227 16.9944 9.17824V8.88833C16.9944 8.11637 16.4357 7.45649 15.6738 7.32923L15.2112 7.25254C15.095 7.23128 14.9865 7.17983 14.8966 7.10334C14.8066 7.02686 14.7384 6.92805 14.6988 6.81683C14.6478 6.68068 14.5921 6.54632 14.5319 6.414C14.4812 6.3073 14.4594 6.18911 14.4689 6.07135C14.4784 5.95358 14.5187 5.84039 14.5858 5.74316L14.8589 5.36139C15.0764 5.05698 15.1788 4.68528 15.1479 4.31244C15.1171 3.9396 14.9549 3.5898 14.6903 3.32529L14.4855 3.1205C14.221 2.85592 13.8712 2.69377 13.4984 2.66291C13.1255 2.63204 12.7538 2.73447 12.4494 2.95195L12.0677 3.22501C11.9704 3.29213 11.8573 3.33245 11.7395 3.34192C11.6217 3.35139 11.5035 3.32967 11.3968 3.27894C11.2645 3.21868 11.1302 3.16302 10.994 3.11208C10.8828 3.07243 10.784 3.0042 10.7075 2.91426C10.631 2.82431 10.5795 2.71582 10.5583 2.59968L10.4816 2.13616C10.42 1.76725 10.2295 1.43215 9.94397 1.19049C9.65849 0.948835 9.29653 0.816279 8.9225 0.816406H8.63259ZM8.77755 12.1936C9.61572 12.1936 10.4196 11.8607 11.0122 11.268C11.6049 10.6753 11.9379 9.87146 11.9379 9.03329C11.9379 8.19511 11.6049 7.39127 11.0122 6.79859C10.4196 6.20591 9.61572 5.87295 8.77755 5.87295C7.93937 5.87295 7.13553 6.20591 6.54285 6.79859C5.95017 7.39127 5.61721 8.19511 5.61721 9.03329C5.61721 9.87146 5.95017 10.6753 6.54285 11.268C7.13553 11.8607 7.93937 12.1936 8.77755 12.1936Z" fill="white"/>
</svg>
