<svg xmlns="http://www.w3.org/2000/svg" xmlns:xlink="http://www.w3.org/1999/xlink" viewBox="0 0 106.87 239.64"><defs><style>.cls-1{fill:#000028;opacity:0.3;}.cls-2{fill:url(#Áåçûìÿííûé_ãðàäèåíò_462);}.cls-3{fill:url(#Áåçûìÿííûé_ãðàäèåíò_462-2);}.cls-4{fill:url(#Áåçûìÿííûé_ãðàäèåíò_462-3);}.cls-5{fill:#020230;opacity:0.6;}.cls-6{fill:#e2b1a6;}.cls-7{fill:url(#Áåçûìÿííûé_ãðàäèåíò_343);}.cls-8{fill:url(#Áåçûìÿííûé_ãðàäèåíò_343-2);}.cls-9{fill:#f0f6ff;}.cls-10{fill:#c4ccd6;}.cls-11{fill:url(#Áåçûìÿííûé_ãðàäèåíò_343-3);}.cls-12{fill:#fcd1c5;}.cls-13{fill:#aa8383;}.cls-14{fill:url(#Áåçûìÿííûé_ãðàäèåíò_80);}.cls-15{fill:#936d6d;}.cls-16{fill:#1e262d;}</style><linearGradient id="Áåçûìÿííûé_ãðàäèåíò_462" x1="-331.65" y1="217.39" x2="-164.59" y2="217.39" gradientTransform="matrix(-1, 0, 0, 1, -294.79, 0)" gradientUnits="userSpaceOnUse"><stop offset="0" stop-color="#2d0979"/><stop offset="1" stop-color="#5b04f7"/></linearGradient><linearGradient id="Áåçûìÿííûé_ãðàäèåíò_462-2" x1="-312.09" y1="195.24" x2="-279.91" y2="195.24" xlink:href="#Áåçûìÿííûé_ãðàäèåíò_462"/><linearGradient id="Áåçûìÿííûé_ãðàäèåíò_462-3" x1="-426.97" y1="157.74" x2="-224.45" y2="157.74" xlink:href="#Áåçûìÿííûé_ãðàäèåíò_462"/><radialGradient id="Áåçûìÿííûé_ãðàäèåíò_343" cx="-301.49" cy="52.3" r="133.34" gradientTransform="matrix(-1, 0, 0, 1, -294.79, 0)" gradientUnits="userSpaceOnUse"><stop offset="0" stop-color="#e39a65"/><stop offset="0.47" stop-color="#a92ffb"/><stop offset="0.59" stop-color="#891cfb"/><stop offset="0.73" stop-color="#6507fa"/><stop offset="1" stop-color="#3919bb"/></radialGradient><radialGradient id="Áåçûìÿííûé_ãðàäèåíò_343-2" cx="-325.36" cy="32.68" r="140.13" xlink:href="#Áåçûìÿííûé_ãðàäèåíò_343"/><radialGradient id="Áåçûìÿííûé_ãðàäèåíò_343-3" cx="-418.15" cy="94.13" r="113.75" xlink:href="#Áåçûìÿííûé_ãðàäèåíò_343"/><radialGradient id="Áåçûìÿííûé_ãðàäèåíò_80" cx="-491.32" cy="68.67" r="226.24" gradientTransform="matrix(-1, 0, 0, 1, -294.79, 0)" gradientUnits="userSpaceOnUse"><stop offset="0" stop-color="#e39a65"/><stop offset="0.47" stop-color="#a92ffb"/><stop offset="0.59" stop-color="#891cfb"/><stop offset="0.73" stop-color="#6507fa"/><stop offset="0.86" stop-color="#5010dc"/><stop offset="1" stop-color="#3919bb"/></radialGradient></defs><g id="Layer_2" data-name="Layer 2"><g id="Ñëîé_1" data-name="Ñëîé 1"><ellipse class="cls-1" cx="53.44" cy="208.79" rx="53.44" ry="30.85"/><path class="cls-2" d="M73,205.1s1.37,2.77,1,4.56-4.72,8-6,11.45-7.8,8.57-11.46,8.57-7-1.52-5.27-5.6A27.26,27.26,0,0,1,56,216.63c1.46-1.87,4.29-7.22,4.7-9.43S73,205.1,73,205.1Z"/><path class="cls-3" d="M55.07,188.34s.59,3.63,0,4.92-1.69,2.49-4.94,3.42-6.27,1.27-11.65,4.48-12.74,4.56-15,1S29,193.43,31.83,192,39,190,41.37,187.85s2.75-1.61,2.75-1.61Z"/><path class="cls-4" d="M74.72,124.83s-2.65,23.94-1.86,32.33,6.19,24,4.42,34.53-3.86,14.9-3.86,14.9-7.23,7.39-12.75.78c0,0,2.32-4.26,2-15.29-.16-5.62-.27-8.84-.35-10.65a8.05,8.05,0,0,0-1.12-3.85,99.91,99.91,0,0,1-7.77-16.53s1.24,15.53,1.15,22.52a16,16,0,0,0,.29,3.24,8.23,8.23,0,0,1,.1,3c-.38,1.81-6.82,8.62-12.08,3.16,0,0-2-1.37-1.6-5.65.29-2.82-.42-9-1-14a32.21,32.21,0,0,0-3.45-11c-1.46-2.79-2.83-8.49-3.7-11.12-1.73-5.23-8.16-30.29-8.27-36s6.92-9.76,6.92-9.76,16.14,7.89,15.82,8.75,20.22,9.48,20.22,9.48Z"/><path class="cls-5" d="M31.75,105.36s16.14,7.89,15.82,8.75,20.22,9.48,20.22,9.48l6.93,1.24s-2.65,23.94-1.86,32.33,6.19,24,4.42,34.53-3.86,14.9-3.86,14.9a14.69,14.69,0,0,1-3,2.2c1-3.1,4.08-14,4-23.52-.11-11.12-5-29.05-5.2-34.83a5.85,5.85,0,0,0-5.41-5.75c-4.69-.2-11.57-1-16.28-3.64,1.49,6.22,5.88,20,5.88,20s1.33,16.6,1.13,23.19a8.21,8.21,0,0,0,.19,2,9.41,9.41,0,0,1,.22,3.55,7.54,7.54,0,0,1-2.45,3.1c-.14-6.82-1.48-24.09-2-28.07-.56-4.43-5.24-22.2-5.24-22.2-2.46-1.93-3.67-6.49-4.14-8.77-2.08-4.5-2.4-8.74-6.29-8.82-.32,0-5.15,6-8.36,1.25a90.44,90.44,0,0,1-1.7-11.15C24.72,109.45,31.75,105.36,31.75,105.36Z"/><path class="cls-6" d="M25.63,116l.88,3s1.4.2,3.29-2a3.14,3.14,0,0,0,.09-4.19l-3.59.79Z"/><path class="cls-7" d="M38.14,33.26a7.33,7.33,0,0,0-3.27,1.15c-2.27,1.22-5.15,4.43-6.77,12.11s-8.44,27.84-9,31.56c-.5,3.56.74,27.41,3,37.55a1.3,1.3,0,0,0,1.68,1,29.73,29.73,0,0,0,7.48-3.54c2.84-2.19,2.33-19.43,2.33-19.43L31.67,71.53l3.14-18.11s4.49-14.3,3.83-15.22S38.14,33.26,38.14,33.26Z"/><path class="cls-8" d="M87.55,55.28s3.13,6-1,14S72.38,93.66,72.38,93.66s3.24,22.91,2.79,28.52-4.64,12.19-5.71,14.29-9.79,7.42-19.88,2.36-10.92-11.92-11.92-19.39-.69-7-.69-7-4.68,14.76-7.5,12c-1.21-1.19-1.3-4.81-1-8.64a187.76,187.76,0,0,0,.57-24.27c0-.29,0-.55,0-.75,0-2.57-.47-26.07.22-32.39S29,42.07,32.31,38a17,17,0,0,1,5.83-4.72L42.83,33s27.31-2.25,29.68,1.24A29.65,29.65,0,0,1,75.71,40S84,48.64,87.55,55.28Z"/><path class="cls-9" d="M65.91,30.35a3.83,3.83,0,0,1,1.59,1.91A35.26,35.26,0,0,0,70,38.07S58,49.5,53.44,55.37a36.61,36.61,0,0,0-5.95,10.71l-6.27-7.35,2-2.16,1.06-4.82,1.85-5.47,1.33-5.41,15-8.52Z"/><path class="cls-10" d="M53.93,45.9a9.69,9.69,0,0,1,3.27,3.89A16.32,16.32,0,0,0,54.15,48a16.7,16.7,0,0,0-2.07,2.37c-.32.68,0,6.86,0,6.86l-.85,1.27-1,.11S50.15,54.18,50,54a28.24,28.24,0,0,1-.23-4c.07-.28,3.27-3.31,3.27-3.31l1.12-.75Z"/><path class="cls-11" d="M47.58,44.55a5.28,5.28,0,0,1,2.54-.49,13.63,13.63,0,0,1,4.09,2.09c.41.53-.11,1.22-1.63,2.39s-1.71,1.9-1.71,1.9.89,5,.37,8.06c0,0-3.22,5.7-3.89,8.45s-3.55-8.86-3.55-8.86a44.92,44.92,0,0,1,1.45-4.66c.46-.94,2.23-6,1.77-6.83S47.58,44.55,47.58,44.55Z"/><path class="cls-5" d="M74.83,40.75,72.77,45l-3.63-.19.44,3.76S54.66,58.54,49,68.9L49.33,70S56,59,70.44,49.84l.48-.3-.73-3.64,3.22.61Z"/><path class="cls-12" d="M50.22,41.9a3.18,3.18,0,0,0,2.58,2c1.93.15,12.32-3.88,13.85-10,0,0-.63-2.92-.69-3.45a2.66,2.66,0,0,0,.87-1.5,25.2,25.2,0,0,1,1.23-3.6,4.72,4.72,0,0,0,.48-2.84s3.11-16.95-6.2-19.86-16.06-.09-19.11,9.52c0,0-.74,2.59-1.33,4.51a6.49,6.49,0,0,0-.06,3.73,6,6,0,0,1,.31,1.9A24.86,24.86,0,0,0,42,29.53s-.74,1.81.48,2.46,1,6,1,6l3.46,3.54S47.61,42.33,50.22,41.9Z"/><path class="cls-13" d="M68.62,23.51S75.28,8.4,64.55,2.28C56.14-2.52,46.09.2,43,11.09c0,0-1.17,2.41,2.6,3.75s8.61,2.83,10.82,2.78,3.31,1.18,3.35,4.08a5.28,5.28,0,0,0,.39,2.56,1.46,1.46,0,0,1,.22.89l0,.56a.91.91,0,0,0,.58.84c.53.16,1.13,0,1.14-.11h0a6.13,6.13,0,0,1,2.71-4.36C66.47,21,68.38,20.46,68.62,23.51Z"/><path class="cls-5" d="M45.25,53.43c.46-.94,2.23-6,1.77-6.83s.56-2.05.56-2.05a5.28,5.28,0,0,1,2.54-.49,2.28,2.28,0,0,1,.35.11v0s-1.3,2.31-1.59,2.87-1.49,6.46-2.15,7.78a57.35,57.35,0,0,0-1.89,5.9l-.39-.21c-.39-1.41-.65-2.47-.65-2.47A44.92,44.92,0,0,1,45.25,53.43Z"/><path class="cls-6" d="M46.23,38.32A12.93,12.93,0,0,1,48,42a2,2,0,0,1-1.13-.43l-1.38-1.41Z"/><path class="cls-12" d="M35.28,60.88S33.4,58,33.49,55.54a35.13,35.13,0,0,1,.73-5.33s-1.38,0-1.3-2,.67-4,1.36-4.47a1.94,1.94,0,0,1,1.4-.38s.51-1.66,2-1.41a2.71,2.71,0,0,1,1.3-1.9,1.42,1.42,0,0,1,2,.44s.51-1.78,1-2.09a3.9,3.9,0,0,1,1.4-.39s2.39-.32,2.82.31,1.6,7.53,1.5,7.88-.66,3.88-1,5-3.1,4-3.54,5.37-4.81,5.8-4.86,5.8S35.28,60.88,35.28,60.88Z"/><path class="cls-5" d="M37,112.41s.13-23.9,4.1-34.49L39,81.33a135.86,135.86,0,0,0-2.6,32.76Z"/><path class="cls-5" d="M37.6,74.92s17.81,16,17.89,16.19,26-16,26-16l.79,1.82c-4.52,7.88-9.94,16.78-9.94,16.78s.39,2.76.88,6.61c0,0-12.83,13.69-20.82,11.94-6.9-1.51-14.27-24.42-16.13-30.57a4.94,4.94,0,0,1,0-3Z"/><path class="cls-6" d="M34.21,58.47c2.56-1.53,7.18-2,7.18-2L36,61.24l-.72-.36a14.7,14.7,0,0,1-1.17-2.34Z"/><path class="cls-14" d="M67.11,65.08a40.63,40.63,0,0,1,10.06-8.51c3.25-2.11,6.81-3.71,8.74-2.37,4.18,2.89,3.3,8.2,1.34,13.53s-19.93,35.5-32.51,34.84c0,0-9.07-9.41-13.24-16.77C38,79.62,32.28,69,30.58,65.77a1.34,1.34,0,0,1,.29-1.63c2.45-2.23,10-8.83,12.24-7.73,0,0,5.12,13,10.26,19.33l4,3.84a106.68,106.68,0,0,1,6-9.69C64.35,68.61,65.78,66.77,67.11,65.08Z"/><path class="cls-6" d="M52.8,43.93a3.18,3.18,0,0,1-2.58-2S60.91,37.63,62,31.11c0,0,.09,6.87-2.74,10.49C56.46,43.15,53.7,44,52.8,43.93Z"/><path class="cls-15" d="M62.12,26.43h0c0,.12-.61.27-1.14.11a.91.91,0,0,1-.58-.84l0-.56a1.46,1.46,0,0,0-.22-.89,5.28,5.28,0,0,1-.39-2.56,5.33,5.33,0,0,0-.72-2.92h0s6,.45,10.9.36c-.18.7-.29,1.39-.48,2a21.66,21.66,0,0,1-.9,2.36c-.24-3.05-2.15-2.51-3.79-1.44A6.13,6.13,0,0,0,62.12,26.43Z"/><path class="cls-16" d="M53.44,161.05v.18A.57.57,0,0,1,53.44,161.05Z"/><path class="cls-5" d="M62.78,209.22a8.24,8.24,0,0,1-2.11-1.85s2.32-4.26,2-15.29c-.16-5.6-.27-8.83-.34-10.64a8.37,8.37,0,0,0-1.13-3.87,99.22,99.22,0,0,1-7.38-15.45l0-.14c1.81,3.18,10,13,11.06,20.43S63.57,204.61,62.78,209.22Z"/><path class="cls-16" d="M53.79,162l0-.1-.3-.83C53.48,160.85,53.6,161.21,53.79,162Z"/><path class="cls-5" d="M34.15,85.6a1.79,1.79,0,0,0,1.23,2.15C36.2,87.84,37,87,37.09,86a1.79,1.79,0,0,0-1.23-2.14C35.05,83.72,34.28,84.52,34.15,85.6Z"/><path class="cls-5" d="M33.12,98.68c0,1.1.63,2,1.45,2s1.51-.88,1.53-2-.63-2-1.45-2S33.14,97.57,33.12,98.68Z"/><path class="cls-5" d="M32,63.09S48.36,98.35,55.79,99.75,83.27,75.22,83.27,75.22l0,.1c-6.42,10.66-19,27.75-28.5,27.25,0,0-9.07-9.41-13.24-16.77C38,79.62,32.28,69,30.58,65.77a1.34,1.34,0,0,1,.29-1.63C31.18,63.85,31.58,63.49,32,63.09Z"/><path class="cls-5" d="M57.39,79.58A37.92,37.92,0,0,1,60.22,85L57.76,78.9Z"/></g></g></svg>