<svg xmlns="http://www.w3.org/2000/svg" xmlns:xlink="http://www.w3.org/1999/xlink" viewBox="0 0 863.07 702.59"><defs><style>.cls-1{isolation:isolate;}.cls-2{mix-blend-mode:multiply;opacity:0.1;}.cls-3{fill:url(#New_Gradient_Swatch_copy_13);}.cls-108,.cls-128,.cls-4{fill:#fff;}.cls-4{opacity:0.3;}.cls-11,.cls-15,.cls-17,.cls-23,.cls-27,.cls-29,.cls-35,.cls-39,.cls-41,.cls-47,.cls-5,.cls-51,.cls-53,.cls-59,.cls-63,.cls-65,.cls-71,.cls-75,.cls-77,.cls-83,.cls-87,.cls-89,.cls-95,.cls-99{mix-blend-mode:color-dodge;}.cls-5{fill:url(#Radial_Gradient_1);}.cls-6{fill:url(#New_Gradient_Swatch_copy_13-2);}.cls-7{fill:url(#New_Gradient_Swatch_copy_13-3);}.cls-8{fill:url(#New_Gradient_Swatch_copy_9);}.cls-9{fill:url(#New_Gradient_Swatch_copy_9-2);}.cls-10{fill:url(#New_Gradient_Swatch_copy_9-3);}.cls-11{fill:url(#Radial_Gradient_1-2);}.cls-12{fill:url(#New_Gradient_Swatch_copy_9-4);}.cls-13{fill:url(#New_Gradient_Swatch_copy_9-5);}.cls-14{fill:url(#New_Gradient_Swatch_copy_9-6);}.cls-15{fill:url(#Radial_Gradient_1-3);}.cls-16{fill:url(#New_Gradient_Swatch_copy_13-4);}.cls-17{fill:url(#Radial_Gradient_1-4);}.cls-18{fill:url(#New_Gradient_Swatch_copy_13-5);}.cls-19{fill:url(#New_Gradient_Swatch_copy_13-6);}.cls-20{fill:url(#New_Gradient_Swatch_copy_9-7);}.cls-21{fill:url(#New_Gradient_Swatch_copy_9-8);}.cls-22{fill:url(#New_Gradient_Swatch_copy_9-9);}.cls-23{fill:url(#Radial_Gradient_1-5);}.cls-24{fill:url(#New_Gradient_Swatch_copy_9-10);}.cls-25{fill:url(#New_Gradient_Swatch_copy_9-11);}.cls-26{fill:url(#New_Gradient_Swatch_copy_9-12);}.cls-27{fill:url(#Radial_Gradient_1-6);}.cls-28{fill:url(#New_Gradient_Swatch_copy_13-7);}.cls-29{fill:url(#Radial_Gradient_1-7);}.cls-30{fill:url(#New_Gradient_Swatch_copy_13-8);}.cls-31{fill:url(#New_Gradient_Swatch_copy_13-9);}.cls-32{fill:url(#New_Gradient_Swatch_copy_9-13);}.cls-33{fill:url(#New_Gradient_Swatch_copy_9-14);}.cls-34{fill:url(#New_Gradient_Swatch_copy_9-15);}.cls-35{fill:url(#Radial_Gradient_1-8);}.cls-36{fill:url(#New_Gradient_Swatch_copy_9-16);}.cls-37{fill:url(#New_Gradient_Swatch_copy_9-17);}.cls-38{fill:url(#New_Gradient_Swatch_copy_9-18);}.cls-39{fill:url(#Radial_Gradient_1-9);}.cls-40{fill:url(#New_Gradient_Swatch_copy_13-10);}.cls-41{fill:url(#Radial_Gradient_1-10);}.cls-42{fill:url(#New_Gradient_Swatch_copy_13-11);}.cls-43{fill:url(#New_Gradient_Swatch_copy_13-12);}.cls-44{fill:url(#New_Gradient_Swatch_copy_9-19);}.cls-45{fill:url(#New_Gradient_Swatch_copy_9-20);}.cls-46{fill:url(#New_Gradient_Swatch_copy_9-21);}.cls-47{fill:url(#Radial_Gradient_1-11);}.cls-48{fill:url(#New_Gradient_Swatch_copy_9-22);}.cls-49{fill:url(#New_Gradient_Swatch_copy_9-23);}.cls-50{fill:url(#New_Gradient_Swatch_copy_9-24);}.cls-51{fill:url(#Radial_Gradient_1-12);}.cls-52{fill:url(#New_Gradient_Swatch_copy_13-13);}.cls-53{fill:url(#Radial_Gradient_1-13);}.cls-54{fill:url(#New_Gradient_Swatch_copy_13-14);}.cls-55{fill:url(#New_Gradient_Swatch_copy_13-15);}.cls-56{fill:url(#New_Gradient_Swatch_copy_9-25);}.cls-57{fill:url(#New_Gradient_Swatch_copy_9-26);}.cls-58{fill:url(#New_Gradient_Swatch_copy_9-27);}.cls-59{fill:url(#Radial_Gradient_1-14);}.cls-60{fill:url(#New_Gradient_Swatch_copy_9-28);}.cls-61{fill:url(#New_Gradient_Swatch_copy_9-29);}.cls-62{fill:url(#New_Gradient_Swatch_copy_9-30);}.cls-63{fill:url(#Radial_Gradient_1-15);}.cls-64{fill:url(#New_Gradient_Swatch_copy_13-16);}.cls-65{fill:url(#Radial_Gradient_1-16);}.cls-66{fill:url(#New_Gradient_Swatch_copy_13-17);}.cls-67{fill:url(#New_Gradient_Swatch_copy_13-18);}.cls-68{fill:url(#New_Gradient_Swatch_copy_9-31);}.cls-69{fill:url(#New_Gradient_Swatch_copy_9-32);}.cls-70{fill:url(#New_Gradient_Swatch_copy_9-33);}.cls-71{fill:url(#Radial_Gradient_1-17);}.cls-72{fill:url(#New_Gradient_Swatch_copy_9-34);}.cls-73{fill:url(#New_Gradient_Swatch_copy_9-35);}.cls-74{fill:url(#New_Gradient_Swatch_copy_9-36);}.cls-75{fill:url(#Radial_Gradient_1-18);}.cls-76{fill:url(#New_Gradient_Swatch_copy_13-19);}.cls-77{fill:url(#Radial_Gradient_1-19);}.cls-78{fill:url(#New_Gradient_Swatch_copy_13-20);}.cls-79{fill:url(#New_Gradient_Swatch_copy_13-21);}.cls-80{fill:url(#New_Gradient_Swatch_copy_9-37);}.cls-81{fill:url(#New_Gradient_Swatch_copy_9-38);}.cls-82{fill:url(#New_Gradient_Swatch_copy_9-39);}.cls-83{fill:url(#Radial_Gradient_1-20);}.cls-84{fill:url(#New_Gradient_Swatch_copy_9-40);}.cls-85{fill:url(#New_Gradient_Swatch_copy_9-41);}.cls-86{fill:url(#New_Gradient_Swatch_copy_9-42);}.cls-87{fill:url(#Radial_Gradient_1-21);}.cls-88{fill:url(#New_Gradient_Swatch_copy_13-22);}.cls-89{fill:url(#Radial_Gradient_1-22);}.cls-90{fill:url(#New_Gradient_Swatch_copy_13-23);}.cls-91{fill:url(#New_Gradient_Swatch_copy_13-24);}.cls-92{fill:url(#New_Gradient_Swatch_copy_9-43);}.cls-93{fill:url(#New_Gradient_Swatch_copy_9-44);}.cls-94{fill:url(#New_Gradient_Swatch_copy_9-45);}.cls-95{fill:url(#Radial_Gradient_1-23);}.cls-96{fill:url(#New_Gradient_Swatch_copy_9-46);}.cls-97{fill:url(#New_Gradient_Swatch_copy_9-47);}.cls-98{fill:url(#New_Gradient_Swatch_copy_9-48);}.cls-99{fill:url(#Radial_Gradient_1-24);}.cls-100{fill:url(#Áåçûìÿííûé_ãðàäèåíò_33);}.cls-101{fill:url(#Áåçûìÿííûé_ãðàäèåíò_33-2);}.cls-102{fill:url(#Áåçûìÿííûé_ãðàäèåíò_33-3);}.cls-103{fill:#020230;opacity:0.6;}.cls-104{fill:url(#Áåçûìÿííûé_ãðàäèåíò_33-4);}.cls-105{fill:url(#Áåçûìÿííûé_ãðàäèåíò_113);}.cls-106{fill:url(#Áåçûìÿííûé_ãðàäèåíò_109);}.cls-107{fill:url(#Áåçûìÿííûé_ãðàäèåíò_343);}.cls-109,.cls-113{opacity:0.4;}.cls-110,.cls-113,.cls-114{fill:#06033e;}.cls-111{fill:url(#Áåçûìÿííûé_ãðàäèåíò_343-2);}.cls-112{fill:url(#Áåçûìÿííûé_ãðàäèåíò_441);}.cls-114,.cls-116,.cls-128{opacity:0.5;}.cls-115{fill:url(#Áåçûìÿííûé_ãðàäèåíò_343-3);}.cls-117{fill:#e8975b;}.cls-118{fill:#f8359e;}.cls-119{fill:url(#Áåçûìÿííûé_ãðàäèåíò_33-5);}.cls-120{fill:url(#Áåçûìÿííûé_ãðàäèåíò_199);}.cls-121{fill:url(#Áåçûìÿííûé_ãðàäèåíò_144);}.cls-122{fill:url(#Áåçûìÿííûé_ãðàäèåíò_483);}.cls-123{fill:url(#Áåçûìÿííûé_ãðàäèåíò_483-2);}.cls-124{fill:url(#Áåçûìÿííûé_ãðàäèåíò_193);}.cls-125{fill:url(#Áåçûìÿííûé_ãðàäèåíò_223);}.cls-126{fill:#0c0a78;}.cls-127{fill:url(#Áåçûìÿííûé_ãðàäèåíò_193-2);}</style><linearGradient id="New_Gradient_Swatch_copy_13" x1="190.1" y1="580.19" x2="246.39" y2="490.03" gradientUnits="userSpaceOnUse"><stop offset="0.04" stop-color="#6b24d6"/><stop offset="0.29" stop-color="#7733dc"/><stop offset="0.79" stop-color="#975ced"/><stop offset="1" stop-color="#a56ef4"/></linearGradient><radialGradient id="Radial_Gradient_1" cx="242.43" cy="534.34" r="37.62" gradientUnits="userSpaceOnUse"><stop offset="0" stop-color="#fff"/><stop offset="1"/></radialGradient><linearGradient id="New_Gradient_Swatch_copy_13-2" x1="216.34" y1="515.13" x2="307.86" y2="487.73" xlink:href="#New_Gradient_Swatch_copy_13"/><linearGradient id="New_Gradient_Swatch_copy_13-3" x1="129.44" y1="524.2" x2="247.18" y2="497.8" xlink:href="#New_Gradient_Swatch_copy_13"/><linearGradient id="New_Gradient_Swatch_copy_9" x1="216.34" y1="512.75" x2="307.86" y2="485.35" gradientUnits="userSpaceOnUse"><stop offset="0.04" stop-color="#9f19ab"/><stop offset="0.24" stop-color="#ae25b1"/><stop offset="0.65" stop-color="#d744bf"/><stop offset="1" stop-color="#ff63ce"/></linearGradient><linearGradient id="New_Gradient_Swatch_copy_9-2" x1="129.45" y1="521.81" x2="247.18" y2="495.42" xlink:href="#New_Gradient_Swatch_copy_9"/><linearGradient id="New_Gradient_Swatch_copy_9-3" x1="251.04" y1="413.66" x2="202.66" y2="505.85" xlink:href="#New_Gradient_Swatch_copy_9"/><radialGradient id="Radial_Gradient_1-2" cx="234.3" cy="514.09" r="28.93" xlink:href="#Radial_Gradient_1"/><linearGradient id="New_Gradient_Swatch_copy_9-4" x1="202.67" y1="490.93" x2="226.41" y2="483.82" xlink:href="#New_Gradient_Swatch_copy_9"/><linearGradient id="New_Gradient_Swatch_copy_9-5" x1="118.28" y1="492.96" x2="251.77" y2="463.04" xlink:href="#New_Gradient_Swatch_copy_9"/><linearGradient id="New_Gradient_Swatch_copy_9-6" x1="186.36" y1="439.24" x2="180.56" y2="450.3" xlink:href="#New_Gradient_Swatch_copy_9"/><radialGradient id="Radial_Gradient_1-3" cx="187.14" cy="466.35" r="24.13" xlink:href="#Radial_Gradient_1"/><linearGradient id="New_Gradient_Swatch_copy_13-4" x1="246.91" y1="613.77" x2="303.2" y2="523.61" xlink:href="#New_Gradient_Swatch_copy_13"/><radialGradient id="Radial_Gradient_1-4" cx="299.23" cy="567.92" r="37.62" xlink:href="#Radial_Gradient_1"/><linearGradient id="New_Gradient_Swatch_copy_13-5" x1="273.14" y1="548.71" x2="364.66" y2="521.31" xlink:href="#New_Gradient_Swatch_copy_13"/><linearGradient id="New_Gradient_Swatch_copy_13-6" x1="186.24" y1="557.77" x2="303.99" y2="531.38" xlink:href="#New_Gradient_Swatch_copy_13"/><linearGradient id="New_Gradient_Swatch_copy_9-7" x1="273.14" y1="546.33" x2="364.66" y2="518.93" xlink:href="#New_Gradient_Swatch_copy_9"/><linearGradient id="New_Gradient_Swatch_copy_9-8" x1="186.25" y1="555.39" x2="303.99" y2="529" xlink:href="#New_Gradient_Swatch_copy_9"/><linearGradient id="New_Gradient_Swatch_copy_9-9" x1="307.84" y1="447.24" x2="259.46" y2="539.43" xlink:href="#New_Gradient_Swatch_copy_9"/><radialGradient id="Radial_Gradient_1-5" cx="291.11" cy="547.67" r="28.93" xlink:href="#Radial_Gradient_1"/><linearGradient id="New_Gradient_Swatch_copy_9-10" x1="259.47" y1="524.51" x2="283.22" y2="517.4" xlink:href="#New_Gradient_Swatch_copy_9"/><linearGradient id="New_Gradient_Swatch_copy_9-11" x1="175.08" y1="526.54" x2="308.58" y2="496.62" xlink:href="#New_Gradient_Swatch_copy_9"/><linearGradient id="New_Gradient_Swatch_copy_9-12" x1="243.17" y1="472.82" x2="237.37" y2="483.88" xlink:href="#New_Gradient_Swatch_copy_9"/><radialGradient id="Radial_Gradient_1-6" cx="243.94" cy="499.93" r="24.13" xlink:href="#Radial_Gradient_1"/><linearGradient id="New_Gradient_Swatch_copy_13-7" x1="302.1" y1="646.19" x2="358.39" y2="556.04" xlink:href="#New_Gradient_Swatch_copy_13"/><radialGradient id="Radial_Gradient_1-7" cx="354.43" cy="600.34" r="37.62" xlink:href="#Radial_Gradient_1"/><linearGradient id="New_Gradient_Swatch_copy_13-8" x1="328.34" y1="581.14" x2="419.86" y2="553.74" xlink:href="#New_Gradient_Swatch_copy_13"/><linearGradient id="New_Gradient_Swatch_copy_13-9" x1="241.45" y1="590.2" x2="359.18" y2="563.81" xlink:href="#New_Gradient_Swatch_copy_13"/><linearGradient id="New_Gradient_Swatch_copy_9-13" x1="328.34" y1="578.76" x2="419.86" y2="551.35" xlink:href="#New_Gradient_Swatch_copy_9"/><linearGradient id="New_Gradient_Swatch_copy_9-14" x1="241.45" y1="587.82" x2="359.18" y2="561.43" xlink:href="#New_Gradient_Swatch_copy_9"/><linearGradient id="New_Gradient_Swatch_copy_9-15" x1="363.04" y1="479.66" x2="314.66" y2="571.86" xlink:href="#New_Gradient_Swatch_copy_9"/><radialGradient id="Radial_Gradient_1-8" cx="346.3" cy="580.1" r="28.93" xlink:href="#Radial_Gradient_1"/><linearGradient id="New_Gradient_Swatch_copy_9-16" x1="314.67" y1="556.94" x2="338.42" y2="549.83" xlink:href="#New_Gradient_Swatch_copy_9"/><linearGradient id="New_Gradient_Swatch_copy_9-17" x1="230.28" y1="558.97" x2="363.77" y2="529.05" xlink:href="#New_Gradient_Swatch_copy_9"/><linearGradient id="New_Gradient_Swatch_copy_9-18" x1="298.37" y1="505.25" x2="292.56" y2="516.3" xlink:href="#New_Gradient_Swatch_copy_9"/><radialGradient id="Radial_Gradient_1-9" cx="299.14" cy="532.36" r="24.13" xlink:href="#Radial_Gradient_1"/><linearGradient id="New_Gradient_Swatch_copy_13-10" x1="110.05" y1="626.66" x2="166.34" y2="536.5" xlink:href="#New_Gradient_Swatch_copy_13"/><radialGradient id="Radial_Gradient_1-10" cx="162.38" cy="580.81" r="37.62" xlink:href="#Radial_Gradient_1"/><linearGradient id="New_Gradient_Swatch_copy_13-11" x1="136.29" y1="561.61" x2="227.8" y2="534.2" xlink:href="#New_Gradient_Swatch_copy_13"/><linearGradient id="New_Gradient_Swatch_copy_13-12" x1="49.39" y1="570.67" x2="167.14" y2="544.27" xlink:href="#New_Gradient_Swatch_copy_13"/><linearGradient id="New_Gradient_Swatch_copy_9-19" x1="136.29" y1="559.22" x2="227.8" y2="531.82" xlink:href="#New_Gradient_Swatch_copy_9"/><linearGradient id="New_Gradient_Swatch_copy_9-20" x1="49.39" y1="568.29" x2="167.13" y2="541.89" xlink:href="#New_Gradient_Swatch_copy_9"/><linearGradient id="New_Gradient_Swatch_copy_9-21" x1="170.99" y1="460.13" x2="122.61" y2="552.32" xlink:href="#New_Gradient_Swatch_copy_9"/><radialGradient id="Radial_Gradient_1-11" cx="154.25" cy="560.57" r="28.93" xlink:href="#Radial_Gradient_1"/><linearGradient id="New_Gradient_Swatch_copy_9-22" x1="122.62" y1="537.4" x2="146.36" y2="530.29" xlink:href="#New_Gradient_Swatch_copy_9"/><linearGradient id="New_Gradient_Swatch_copy_9-23" x1="38.22" y1="539.44" x2="171.72" y2="509.51" xlink:href="#New_Gradient_Swatch_copy_9"/><linearGradient id="New_Gradient_Swatch_copy_9-24" x1="106.31" y1="485.71" x2="100.51" y2="496.77" xlink:href="#New_Gradient_Swatch_copy_9"/><radialGradient id="Radial_Gradient_1-12" cx="107.09" cy="512.82" r="24.13" xlink:href="#Radial_Gradient_1"/><linearGradient id="New_Gradient_Swatch_copy_13-13" x1="166.85" y1="660.24" x2="223.15" y2="570.08" xlink:href="#New_Gradient_Swatch_copy_13"/><radialGradient id="Radial_Gradient_1-13" cx="219.18" cy="614.39" r="37.62" xlink:href="#Radial_Gradient_1"/><linearGradient id="New_Gradient_Swatch_copy_13-14" x1="193.09" y1="595.19" x2="284.61" y2="567.78" xlink:href="#New_Gradient_Swatch_copy_13"/><linearGradient id="New_Gradient_Swatch_copy_13-15" x1="106.2" y1="604.25" x2="223.94" y2="577.86" xlink:href="#New_Gradient_Swatch_copy_13"/><linearGradient id="New_Gradient_Swatch_copy_9-25" x1="193.09" y1="592.8" x2="284.61" y2="565.4" xlink:href="#New_Gradient_Swatch_copy_9"/><linearGradient id="New_Gradient_Swatch_copy_9-26" x1="106.2" y1="601.86" x2="223.93" y2="575.47" xlink:href="#New_Gradient_Swatch_copy_9"/><linearGradient id="New_Gradient_Swatch_copy_9-27" x1="227.79" y1="493.7" x2="179.42" y2="585.9" xlink:href="#New_Gradient_Swatch_copy_9"/><radialGradient id="Radial_Gradient_1-14" cx="211.06" cy="594.14" r="28.93" xlink:href="#Radial_Gradient_1"/><linearGradient id="New_Gradient_Swatch_copy_9-28" x1="179.43" y1="570.98" x2="203.17" y2="563.87" xlink:href="#New_Gradient_Swatch_copy_9"/><linearGradient id="New_Gradient_Swatch_copy_9-29" x1="95.03" y1="573.01" x2="228.52" y2="543.09" xlink:href="#New_Gradient_Swatch_copy_9"/><linearGradient id="New_Gradient_Swatch_copy_9-30" x1="163.12" y1="519.29" x2="157.32" y2="530.35" xlink:href="#New_Gradient_Swatch_copy_9"/><radialGradient id="Radial_Gradient_1-15" cx="163.89" cy="546.4" r="24.13" xlink:href="#Radial_Gradient_1"/><linearGradient id="New_Gradient_Swatch_copy_13-16" x1="222.05" y1="692.67" x2="278.34" y2="602.51" xlink:href="#New_Gradient_Swatch_copy_13"/><radialGradient id="Radial_Gradient_1-16" cx="274.38" cy="646.82" r="37.62" xlink:href="#Radial_Gradient_1"/><linearGradient id="New_Gradient_Swatch_copy_13-17" x1="248.29" y1="627.61" x2="339.81" y2="600.21" xlink:href="#New_Gradient_Swatch_copy_13"/><linearGradient id="New_Gradient_Swatch_copy_13-18" x1="161.39" y1="636.67" x2="279.14" y2="610.28" xlink:href="#New_Gradient_Swatch_copy_13"/><linearGradient id="New_Gradient_Swatch_copy_9-31" x1="248.29" y1="625.23" x2="339.81" y2="597.83" xlink:href="#New_Gradient_Swatch_copy_9"/><linearGradient id="New_Gradient_Swatch_copy_9-32" x1="161.39" y1="634.29" x2="279.14" y2="607.9" xlink:href="#New_Gradient_Swatch_copy_9"/><linearGradient id="New_Gradient_Swatch_copy_9-33" x1="282.99" y1="526.13" x2="234.61" y2="618.33" xlink:href="#New_Gradient_Swatch_copy_9"/><radialGradient id="Radial_Gradient_1-17" cx="266.25" cy="626.57" r="28.93" xlink:href="#Radial_Gradient_1"/><linearGradient id="New_Gradient_Swatch_copy_9-34" x1="234.62" y1="603.41" x2="258.37" y2="596.3" xlink:href="#New_Gradient_Swatch_copy_9"/><linearGradient id="New_Gradient_Swatch_copy_9-35" x1="150.23" y1="605.44" x2="283.72" y2="575.52" xlink:href="#New_Gradient_Swatch_copy_9"/><linearGradient id="New_Gradient_Swatch_copy_9-36" x1="218.32" y1="551.72" x2="212.51" y2="562.78" xlink:href="#New_Gradient_Swatch_copy_9"/><radialGradient id="Radial_Gradient_1-18" cx="219.09" cy="578.83" r="24.13" xlink:href="#Radial_Gradient_1"/><linearGradient id="New_Gradient_Swatch_copy_13-19" x1="31.61" y1="673.13" x2="87.9" y2="582.98" xlink:href="#New_Gradient_Swatch_copy_13"/><radialGradient id="Radial_Gradient_1-19" cx="83.94" cy="627.28" r="37.62" xlink:href="#Radial_Gradient_1"/><linearGradient id="New_Gradient_Swatch_copy_13-20" x1="57.85" y1="608.08" x2="149.37" y2="580.67" xlink:href="#New_Gradient_Swatch_copy_13"/><linearGradient id="New_Gradient_Swatch_copy_13-21" x1="-29.04" y1="617.14" x2="88.69" y2="590.75" xlink:href="#New_Gradient_Swatch_copy_13"/><linearGradient id="New_Gradient_Swatch_copy_9-37" x1="57.85" y1="605.7" x2="149.37" y2="578.29" xlink:href="#New_Gradient_Swatch_copy_9"/><linearGradient id="New_Gradient_Swatch_copy_9-38" x1="-29.04" y1="614.76" x2="88.69" y2="588.36" xlink:href="#New_Gradient_Swatch_copy_9"/><linearGradient id="New_Gradient_Swatch_copy_9-39" x1="92.55" y1="506.59" x2="44.17" y2="598.79" xlink:href="#New_Gradient_Swatch_copy_9"/><radialGradient id="Radial_Gradient_1-20" cx="75.81" cy="607.04" r="28.93" xlink:href="#Radial_Gradient_1"/><linearGradient id="New_Gradient_Swatch_copy_9-40" x1="44.18" y1="583.88" x2="67.93" y2="576.77" xlink:href="#New_Gradient_Swatch_copy_9"/><linearGradient id="New_Gradient_Swatch_copy_9-41" x1="-40.22" y1="585.91" x2="93.29" y2="555.98" xlink:href="#New_Gradient_Swatch_copy_9"/><linearGradient id="New_Gradient_Swatch_copy_9-42" x1="27.88" y1="532.18" x2="22.07" y2="543.24" xlink:href="#New_Gradient_Swatch_copy_9"/><radialGradient id="Radial_Gradient_1-21" cx="28.65" cy="559.3" r="24.13" xlink:href="#Radial_Gradient_1"/><linearGradient id="New_Gradient_Swatch_copy_13-22" x1="88.42" y1="706.71" x2="144.71" y2="616.55" xlink:href="#New_Gradient_Swatch_copy_13"/><radialGradient id="Radial_Gradient_1-22" cx="140.74" cy="660.86" r="37.62" xlink:href="#Radial_Gradient_1"/><linearGradient id="New_Gradient_Swatch_copy_13-23" x1="114.66" y1="641.66" x2="206.17" y2="614.25" xlink:href="#New_Gradient_Swatch_copy_13"/><linearGradient id="New_Gradient_Swatch_copy_13-24" x1="27.77" y1="650.72" x2="145.5" y2="624.32" xlink:href="#New_Gradient_Swatch_copy_13"/><linearGradient id="New_Gradient_Swatch_copy_9-43" x1="114.66" y1="639.27" x2="206.17" y2="611.87" xlink:href="#New_Gradient_Swatch_copy_9"/><linearGradient id="New_Gradient_Swatch_copy_9-44" x1="27.77" y1="648.33" x2="145.5" y2="621.94" xlink:href="#New_Gradient_Swatch_copy_9"/><linearGradient id="New_Gradient_Swatch_copy_9-45" x1="149.36" y1="540.18" x2="100.98" y2="632.37" xlink:href="#New_Gradient_Swatch_copy_9"/><radialGradient id="Radial_Gradient_1-23" cx="132.62" cy="640.62" r="28.93" xlink:href="#Radial_Gradient_1"/><linearGradient id="New_Gradient_Swatch_copy_9-46" x1="100.99" y1="617.45" x2="124.73" y2="610.34" xlink:href="#New_Gradient_Swatch_copy_9"/><linearGradient id="New_Gradient_Swatch_copy_9-47" x1="16.6" y1="619.49" x2="150.09" y2="589.56" xlink:href="#New_Gradient_Swatch_copy_9"/><linearGradient id="New_Gradient_Swatch_copy_9-48" x1="84.68" y1="565.76" x2="78.88" y2="576.82" xlink:href="#New_Gradient_Swatch_copy_9"/><radialGradient id="Radial_Gradient_1-24" cx="85.46" cy="592.87" r="24.13" xlink:href="#Radial_Gradient_1"/><linearGradient id="Áåçûìÿííûé_ãðàäèåíò_33" x1="809.52" y1="442.31" x2="863.07" y2="442.31" gradientUnits="userSpaceOnUse"><stop offset="0" stop-color="#e39a65"/><stop offset="1" stop-color="#e95f8d"/></linearGradient><linearGradient id="Áåçûìÿííûé_ãðàäèåíò_33-2" x1="736.21" y1="368.92" x2="826.15" y2="368.92" xlink:href="#Áåçûìÿííûé_ãðàäèåíò_33"/><linearGradient id="Áåçûìÿííûé_ãðàäèåíò_33-3" x1="143.07" y1="399.06" x2="233.02" y2="399.06" xlink:href="#Áåçûìÿííûé_ãðàäèåíò_33"/><linearGradient id="Áåçûìÿííûé_ãðàäèåíò_33-4" x1="247.79" y1="393.29" x2="727.85" y2="393.29" xlink:href="#Áåçûìÿííûé_ãðàäèåíò_33"/><radialGradient id="Áåçûìÿííûé_ãðàäèåíò_113" cx="512.95" cy="37.87" r="366.66" gradientUnits="userSpaceOnUse"><stop offset="0" stop-color="#e39a65"/><stop offset="0.47" stop-color="#a92ffb"/><stop offset="0.59" stop-color="#891cfb"/><stop offset="0.74" stop-color="#6507fa"/><stop offset="0.8" stop-color="#0d0c6f"/></radialGradient><radialGradient id="Áåçûìÿííûé_ãðàäèåíò_109" cx="288.7" cy="332.32" r="400.93" gradientUnits="userSpaceOnUse"><stop offset="0" stop-color="#e39a65"/><stop offset="0.47" stop-color="#a92ffb"/><stop offset="0.57" stop-color="#891cfb"/><stop offset="0.68" stop-color="#6507fa"/><stop offset="0.74" stop-color="#0d0c6f"/></radialGradient><radialGradient id="Áåçûìÿííûé_ãðàäèåíò_343" cx="325.58" cy="251.84" r="359.54" gradientUnits="userSpaceOnUse"><stop offset="0" stop-color="#e39a65"/><stop offset="0.47" stop-color="#a92ffb"/><stop offset="0.59" stop-color="#891cfb"/><stop offset="0.73" stop-color="#6507fa"/><stop offset="1" stop-color="#3919bb"/></radialGradient><radialGradient id="Áåçûìÿííûé_ãðàäèåíò_343-2" cx="415.14" cy="114.35" r="366.73" xlink:href="#Áåçûìÿííûé_ãðàäèåíò_343"/><linearGradient id="Áåçûìÿííûé_ãðàäèåíò_441" x1="455.45" y1="210.61" x2="749.32" y2="210.61" gradientUnits="userSpaceOnUse"><stop offset="0" stop-color="#3919bb"/><stop offset="1" stop-color="#6507fa"/></linearGradient><radialGradient id="Áåçûìÿííûé_ãðàäèåíò_343-3" cx="281.27" cy="36.03" r="571.17" xlink:href="#Áåçûìÿííûé_ãðàäèåíò_343"/><linearGradient id="Áåçûìÿííûé_ãðàäèåíò_33-5" x1="255.1" y1="250.81" x2="381.16" y2="250.81" xlink:href="#Áåçûìÿííûé_ãðàäèåíò_33"/><radialGradient id="Áåçûìÿííûé_ãðàäèåíò_199" cx="266.27" cy="147.98" r="271.51" gradientUnits="userSpaceOnUse"><stop offset="0" stop-color="#e39a65"/><stop offset="0.15" stop-color="#a92ffb"/><stop offset="0.41" stop-color="#3919bb"/><stop offset="0.93" stop-color="#3919bb"/></radialGradient><linearGradient id="Áåçûìÿííûé_ãðàäèåíò_144" x1="271.08" y1="114.35" x2="368.47" y2="114.35" gradientUnits="userSpaceOnUse"><stop offset="0" stop-color="#e39a65"/><stop offset="0.25" stop-color="#a92ffb"/><stop offset="0.56" stop-color="#3919bb"/></linearGradient><linearGradient id="Áåçûìÿííûé_ãðàäèåíò_483" x1="280.21" y1="109.4" x2="359.33" y2="109.4" gradientUnits="userSpaceOnUse"><stop offset="0" stop-color="#4f1fec"/><stop offset="1" stop-color="#a92ffb"/></linearGradient><linearGradient id="Áåçûìÿííûé_ãðàäèåíò_483-2" x1="278.33" y1="109.4" x2="357.45" y2="109.4" xlink:href="#Áåçûìÿííûé_ãðàäèåíò_483"/><linearGradient id="Áåçûìÿííûé_ãðàäèåíò_193" x1="280.22" y1="98.97" x2="379.97" y2="98.97" gradientUnits="userSpaceOnUse"><stop offset="0" stop-color="#131060"/><stop offset="0.19" stop-color="#141062"/><stop offset="0.28" stop-color="#19106a"/><stop offset="0.36" stop-color="#221078"/><stop offset="0.42" stop-color="#2e0f8b"/><stop offset="0.48" stop-color="#3e0fa3"/><stop offset="0.54" stop-color="#510ec2"/><stop offset="0.58" stop-color="#680de5"/><stop offset="0.61" stop-color="#740df8"/><stop offset="0.62" stop-color="#7a14f0"/><stop offset="0.68" stop-color="#9b3cc3"/><stop offset="0.75" stop-color="#b75d9d"/><stop offset="0.81" stop-color="#cc7680"/><stop offset="0.88" stop-color="#dc886c"/><stop offset="0.94" stop-color="#e5935f"/><stop offset="1" stop-color="#e8975b"/></linearGradient><radialGradient id="Áåçûìÿííûé_ãðàäèåíò_223" cx="258.92" cy="86.79" r="177.61" gradientUnits="userSpaceOnUse"><stop offset="0" stop-color="#e39a65"/><stop offset="0.25" stop-color="#a92ffb"/><stop offset="0.74" stop-color="#3919bb"/></radialGradient><linearGradient id="Áåçûìÿííûé_ãðàäèåíò_193-2" x1="313.51" y1="131.16" x2="327.31" y2="131.16" xlink:href="#Áåçûìÿííûé_ãðàäèåíò_193"/></defs><g class="cls-1"><g id="Layer_2" data-name="Layer 2"><g id="Layer_1-2" data-name="Layer 1"><polygon class="cls-2" points="172.05 549.26 211.64 572.37 258 545.46 218.38 522.4 172.05 549.26"/><path class="cls-3" d="M210.69,576.07a8.92,8.92,0,0,1-4.47-1.2l-36-20.88a5.06,5.06,0,0,1,.08-8.8l35-19.61V506.16a1.91,1.91,0,0,1,3.81,0V526.7a1.93,1.93,0,0,1-1,1.67l-36,20.14a1.25,1.25,0,0,0-.64,1.09,1.22,1.22,0,0,0,.62,1.09l36,20.88a5.07,5.07,0,0,0,5.13,0l31.14-18.2V500.92a1.91,1.91,0,1,1,3.81,0v53.53a1.91,1.91,0,0,1-.94,1.64L215.2,574.85A8.86,8.86,0,0,1,210.69,576.07Z"/><path class="cls-4" d="M210.38,574.48a7.66,7.66,0,0,1-3.83-1l-36-20.88a3.8,3.8,0,0,1,.06-6.6l35.68-20V505.84a.64.64,0,0,1,1.27,0v20.54a.62.62,0,0,1-.32.55l-36,20.15a2.52,2.52,0,0,0,0,4.39l36,20.88a6.34,6.34,0,0,0,6.41,0l31.77-18.57V500.6A.64.64,0,0,1,246,500a.64.64,0,0,1,.64.64v53.52a.62.62,0,0,1-.32.55l-32.08,18.76A7.59,7.59,0,0,1,210.38,574.48Z"/><path class="cls-5" d="M210.22,573.76a7.17,7.17,0,0,1-3.58-1l-36-20.88a3.29,3.29,0,0,1,.05-5.72l35.94-20.11V505.63a.13.13,0,0,1,.26,0v20.54a.15.15,0,0,1-.07.11l-36,20.14a3,3,0,0,0-.05,5.28l36,20.88a6.93,6.93,0,0,0,3.45.92,6.82,6.82,0,0,0,3.47-.94l32-18.72V500.39a.12.12,0,0,1,.12-.13.13.13,0,0,1,.13.13v53.52l-32.14,18.87A7.14,7.14,0,0,1,210.22,573.76Z"/><polygon class="cls-6" points="208.23 521.71 208.23 525.6 251.5 500.57 251.5 496.57 208.23 521.71"/><polygon class="cls-7" points="208.25 521.71 208.25 525.6 165.85 500.98 165.85 496.97 208.25 521.71"/><polygon class="cls-8" points="208.23 519.33 208.23 523.22 251.5 498.19 251.5 494.18 208.23 519.33"/><polygon class="cls-9" points="208.25 519.33 208.25 523.22 165.85 498.59 165.85 494.59 208.25 519.33"/><polygon class="cls-10" points="165.85 494.59 208.25 519.33 251.5 494.18 209.07 469.49 165.85 494.59"/><polygon class="cls-11" points="207.96 518.21 213.4 516.98 251.5 494.18 207.96 518.21"/><path class="cls-12" d="M208.34,477.6l-4.24-17.19-3.17,1.85,4.23,17.1a105.51,105.51,0,0,1,3.1,25.4v14.58l3.17-1.72,0-14.8A106.09,106.09,0,0,0,208.34,477.6Z"/><path class="cls-13" d="M201,462.26l-42.46-24.87,4.25,17.26A105.82,105.82,0,0,1,165.82,480V494.6l42.46,24.74V504.75a105.73,105.73,0,0,0-3.1-25.42Z"/><polygon class="cls-14" points="158.49 437.39 200.95 462.26 204.1 460.41 161.61 435.59 158.49 437.39"/><polygon class="cls-15" points="158.49 437.39 201.85 461.52 206.62 485.77 200.33 462.29 158.49 437.39"/><polygon class="cls-2" points="228.86 582.84 268.45 605.94 314.8 579.04 275.19 555.98 228.86 582.84"/><path class="cls-16" d="M267.5,609.65a8.92,8.92,0,0,1-4.47-1.2l-36-20.88a5.06,5.06,0,0,1,.08-8.81l35-19.6V539.74a1.91,1.91,0,0,1,3.81,0v20.54a1.88,1.88,0,0,1-1,1.66l-36,20.15a1.25,1.25,0,0,0-.65,1.09,1.23,1.23,0,0,0,.63,1.09l36,20.88a5.13,5.13,0,0,0,5.14,0l31.14-18.21V534.5a1.91,1.91,0,1,1,3.81,0V588a1.91,1.91,0,0,1-.94,1.64L272,608.43A8.9,8.9,0,0,1,267.5,609.65Z"/><path class="cls-4" d="M267.18,608.06a7.72,7.72,0,0,1-3.83-1l-36-20.88a3.8,3.8,0,0,1,.06-6.6l35.68-20V539.42a.64.64,0,0,1,.63-.64.64.64,0,0,1,.64.64V560a.63.63,0,0,1-.33.55l-36,20.15a2.5,2.5,0,0,0-1.3,2.18A2.47,2.47,0,0,0,228,585l36,20.89a6.4,6.4,0,0,0,6.41,0l31.77-18.57V534.18a.64.64,0,0,1,.64-.64.64.64,0,0,1,.63.64V587.7a.65.65,0,0,1-.31.55L271.05,607A7.63,7.63,0,0,1,267.18,608.06Z"/><path class="cls-17" d="M267,607.34a7.22,7.22,0,0,1-3.58-1l-36-20.88a3.29,3.29,0,0,1,.06-5.72l35.94-20.11V539.21a.12.12,0,0,1,.12-.13.13.13,0,0,1,.13.13v20.53a.15.15,0,0,1-.07.12l-36,20.14a3,3,0,0,0,0,5.27l36,20.89a6.9,6.9,0,0,0,6.92,0l32-18.72V534a.13.13,0,0,1,.13-.13.12.12,0,0,1,.12.13v53.52l-32.14,18.87A7.1,7.1,0,0,1,267,607.34Z"/><polygon class="cls-18" points="265.04 555.28 265.04 559.17 308.31 534.15 308.31 530.14 265.04 555.28"/><polygon class="cls-19" points="265.06 555.28 265.06 559.17 222.65 534.55 222.65 530.55 265.06 555.28"/><polygon class="cls-20" points="265.04 552.9 265.04 556.79 308.31 531.77 308.31 527.76 265.04 552.9"/><polygon class="cls-21" points="265.06 552.9 265.06 556.79 222.65 532.17 222.65 528.17 265.06 552.9"/><polygon class="cls-22" points="222.65 528.17 265.06 552.9 308.31 527.76 265.88 503.06 222.65 528.17"/><polygon class="cls-23" points="264.77 551.79 270.21 550.55 308.31 527.76 264.77 551.79"/><path class="cls-24" d="M265.14,511.18,260.9,494l-3.16,1.85L262,512.93a105.57,105.57,0,0,1,3.1,25.4v14.59l3.16-1.72V536.39A105.57,105.57,0,0,0,265.14,511.18Z"/><path class="cls-25" d="M257.75,495.84,215.29,471l4.26,17.26a105.81,105.81,0,0,1,3.07,25.31v14.64l42.46,24.74v-14.6a105.71,105.71,0,0,0-3.1-25.41Z"/><polygon class="cls-26" points="215.29 470.97 257.75 495.84 260.9 493.99 218.41 469.17 215.29 470.97"/><polygon class="cls-27" points="215.29 470.97 258.66 495.1 263.43 519.35 257.13 495.87 215.29 470.97"/><polygon class="cls-2" points="284.06 615.27 323.65 638.37 370 611.47 330.38 588.41 284.06 615.27"/><path class="cls-28" d="M322.7,642.08a8.9,8.9,0,0,1-4.47-1.2l-36-20.88a5.07,5.07,0,0,1,.08-8.81l35-19.6V572.17a1.91,1.91,0,1,1,3.81,0v20.54a1.88,1.88,0,0,1-1,1.66l-36,20.15a1.23,1.23,0,0,0-.65,1.09,1.21,1.21,0,0,0,.63,1.09l36,20.88a5.11,5.11,0,0,0,5.13,0l31.14-18.21V566.93a1.91,1.91,0,1,1,3.81,0v53.52a1.88,1.88,0,0,1-.94,1.64L327.2,640.85A8.84,8.84,0,0,1,322.7,642.08Z"/><path class="cls-4" d="M322.38,640.48a7.59,7.59,0,0,1-3.83-1l-36-20.88a3.79,3.79,0,0,1,.06-6.59l35.68-20V571.85a.64.64,0,0,1,.64-.64.64.64,0,0,1,.63.64v20.53a.64.64,0,0,1-.32.56l-36,20.15a2.52,2.52,0,0,0,0,4.38l36,20.89a6.4,6.4,0,0,0,6.41,0l31.77-18.58V566.6A.63.63,0,0,1,358,566a.64.64,0,0,1,.64.63v53.53a.66.66,0,0,1-.31.55l-32.09,18.75A7.59,7.59,0,0,1,322.38,640.48Z"/><path class="cls-29" d="M322.22,639.76a7.1,7.1,0,0,1-3.57-1l-36-20.88a3.28,3.28,0,0,1,0-5.71l35.94-20.11V571.63a.12.12,0,0,1,.13-.12.12.12,0,0,1,.12.12v20.54a.11.11,0,0,1-.06.11l-36,20.15a3,3,0,0,0,0,5.27l36,20.88a6.87,6.87,0,0,0,3.45.93,7,7,0,0,0,3.48-.94l32-18.73V566.39a.12.12,0,0,1,.12-.12.12.12,0,0,1,.13.12v53.53l-32.14,18.86A7.14,7.14,0,0,1,322.22,639.76Z"/><polygon class="cls-30" points="320.23 587.72 320.23 591.6 363.51 566.58 363.51 562.57 320.23 587.72"/><polygon class="cls-31" points="320.25 587.72 320.25 591.6 277.85 566.98 277.85 562.97 320.25 587.72"/><polygon class="cls-32" points="320.23 585.33 320.23 589.22 363.51 564.2 363.51 560.19 320.23 585.33"/><polygon class="cls-33" points="320.25 585.33 320.25 589.22 277.85 564.6 277.85 560.59 320.25 585.33"/><polygon class="cls-34" points="277.85 560.59 320.25 585.33 363.51 560.19 321.07 535.49 277.85 560.59"/><polygon class="cls-35" points="319.96 584.22 325.4 582.98 363.51 560.19 319.96 584.22"/><path class="cls-36" d="M320.34,543.61l-4.24-17.19-3.17,1.85,4.23,17.09a105.57,105.57,0,0,1,3.1,25.4v14.59l3.17-1.73,0-14.8A105.5,105.5,0,0,0,320.34,543.61Z"/><path class="cls-37" d="M313,528.27,270.49,503.4l4.25,17.25A105.38,105.38,0,0,1,277.82,546V560.6l42.46,24.75v-14.6a105.65,105.65,0,0,0-3.1-25.41Z"/><polygon class="cls-38" points="270.49 503.4 312.95 528.27 316.1 526.42 273.61 501.59 270.49 503.4"/><polygon class="cls-39" points="270.49 503.4 313.86 527.53 318.63 551.77 312.33 528.3 270.49 503.4"/><polygon class="cls-2" points="92 595.74 131.59 618.84 177.95 591.93 138.33 568.87 92 595.74"/><path class="cls-40" d="M130.64,622.54a9,9,0,0,1-4.46-1.19l-36-20.89a5.07,5.07,0,0,1,.08-8.81l35-19.59V552.64a1.91,1.91,0,1,1,3.81,0v20.53a1.93,1.93,0,0,1-1,1.67L92.12,595a1.26,1.26,0,0,0,0,2.18l36,20.87a5.07,5.07,0,0,0,5.13,0l31.14-18.2V547.39a1.91,1.91,0,0,1,3.81,0v53.53a1.9,1.9,0,0,1-.94,1.64l-32.08,18.76A9,9,0,0,1,130.64,622.54Z"/><path class="cls-4" d="M130.33,621a7.66,7.66,0,0,1-3.83-1L90.51,599a3.8,3.8,0,0,1,.06-6.6l35.68-20V552.31a.64.64,0,0,1,.64-.63.63.63,0,0,1,.63.63v20.54a.65.65,0,0,1-.32.56l-36,20.14a2.52,2.52,0,0,0-1.3,2.19,2.49,2.49,0,0,0,1.26,2.2l36,20.88a6.33,6.33,0,0,0,3.19.86,6.4,6.4,0,0,0,3.22-.87l31.77-18.58V547.07a.63.63,0,0,1,.63-.63.64.64,0,0,1,.64.63V600.6a.62.62,0,0,1-.32.54L134.19,619.9A7.59,7.59,0,0,1,130.33,621Z"/><path class="cls-41" d="M130.17,620.23a7.17,7.17,0,0,1-3.58-1l-36-20.88a3.28,3.28,0,0,1,0-5.71l35.94-20.12V552.1a.13.13,0,0,1,.13-.13.12.12,0,0,1,.12.13v20.54a.13.13,0,0,1-.06.11l-36,20.15a3,3,0,0,0,0,5.27l36,20.88a6.86,6.86,0,0,0,6.93,0l32-18.72V546.86a.12.12,0,0,1,.12-.13.13.13,0,0,1,.13.13v53.52l-32.15,18.87A7.08,7.08,0,0,1,130.17,620.23Z"/><polygon class="cls-42" points="128.18 568.18 128.18 572.07 171.45 547.05 171.45 543.04 128.18 568.18"/><polygon class="cls-43" points="128.2 568.18 128.2 572.07 85.8 547.45 85.8 543.44 128.2 568.18"/><polygon class="cls-44" points="128.18 565.8 128.18 569.69 171.45 544.66 171.45 540.66 128.18 565.8"/><polygon class="cls-45" points="128.2 565.8 128.2 569.69 85.8 545.07 85.8 541.06 128.2 565.8"/><polygon class="cls-46" points="85.8 541.06 128.2 565.8 171.45 540.66 129.02 515.96 85.8 541.06"/><polygon class="cls-47" points="127.91 564.69 133.35 563.45 171.45 540.66 127.91 564.69"/><path class="cls-48" d="M128.29,524.07l-4.24-17.19-3.17,1.85,4.23,17.1a105.57,105.57,0,0,1,3.1,25.4v14.59l3.17-1.73,0-14.8A106.09,106.09,0,0,0,128.29,524.07Z"/><path class="cls-49" d="M120.9,508.73,78.44,483.86l4.25,17.26a105.82,105.82,0,0,1,3.08,25.31v14.64l42.46,24.75v-14.6a105.59,105.59,0,0,0-3.1-25.41Z"/><polygon class="cls-50" points="78.44 483.86 120.9 508.73 124.05 506.88 81.56 482.06 78.44 483.86"/><polygon class="cls-51" points="78.44 483.86 121.81 508 126.58 532.24 120.28 508.76 78.44 483.86"/><polygon class="cls-2" points="148.81 629.32 188.4 652.42 234.75 625.51 195.14 602.45 148.81 629.32"/><path class="cls-52" d="M187.45,656.12a8.92,8.92,0,0,1-4.47-1.2L147,634a5.07,5.07,0,0,1,.07-8.81l35-19.6V586.21a1.91,1.91,0,0,1,3.81,0v20.54a1.92,1.92,0,0,1-1,1.67l-36,20.14a1.25,1.25,0,0,0-.65,1.09,1.23,1.23,0,0,0,.63,1.09l36,20.88a5.08,5.08,0,0,0,5.14,0l31.14-18.2V581a1.91,1.91,0,1,1,3.81,0v53.52a1.91,1.91,0,0,1-.94,1.65L192,654.9A9,9,0,0,1,187.45,656.12Z"/><path class="cls-4" d="M187.13,654.53a7.72,7.72,0,0,1-3.83-1l-36-20.88a3.8,3.8,0,0,1,.06-6.6l35.68-20V585.89a.63.63,0,0,1,.63-.63.64.64,0,0,1,.64.63v20.54a.63.63,0,0,1-.33.55l-36,20.15a2.53,2.53,0,0,0-.05,4.39l36,20.88a6.38,6.38,0,0,0,3.19.86,6.29,6.29,0,0,0,3.22-.88l31.77-18.57V580.65a.64.64,0,0,1,.64-.64.64.64,0,0,1,.63.64v53.52a.63.63,0,0,1-.31.55L191,653.48A7.7,7.7,0,0,1,187.13,654.53Z"/><path class="cls-53" d="M187,653.81a7.14,7.14,0,0,1-3.58-1l-36-20.88a3.3,3.3,0,0,1,.05-5.72l35.95-20.11V585.68a.13.13,0,0,1,.12-.13.13.13,0,0,1,.13.13v20.54a.11.11,0,0,1-.06.1l-36,20.15a3,3,0,0,0-.05,5.27l36,20.89a6.9,6.9,0,0,0,6.92,0l32-18.72V580.44a.13.13,0,0,1,.13-.13.12.12,0,0,1,.12.13V634l-32.14,18.87A7.1,7.1,0,0,1,187,653.81Z"/><polygon class="cls-54" points="184.99 601.76 184.99 605.65 228.26 580.62 228.26 576.62 184.99 601.76"/><polygon class="cls-55" points="185.01 601.76 185.01 605.65 142.6 581.02 142.6 577.02 185.01 601.76"/><polygon class="cls-56" points="184.99 599.38 184.99 603.26 228.26 578.24 228.26 574.23 184.99 599.38"/><polygon class="cls-57" points="185.01 599.38 185.01 603.26 142.6 578.64 142.6 574.63 185.01 599.38"/><polygon class="cls-58" points="142.6 574.63 185.01 599.38 228.26 574.23 185.83 549.53 142.6 574.63"/><polygon class="cls-59" points="184.72 598.26 190.16 597.02 228.26 574.23 184.72 598.26"/><path class="cls-60" d="M185.09,557.65l-4.24-17.19-3.16,1.85,4.23,17.09a105.59,105.59,0,0,1,3.1,25.41V599.4l3.16-1.73v-14.8A105.59,105.59,0,0,0,185.09,557.65Z"/><path class="cls-61" d="M177.7,542.31l-42.46-24.87,4.26,17.26A105.81,105.81,0,0,1,142.57,560v14.64L185,599.4V584.8a105.67,105.67,0,0,0-3.1-25.42Z"/><polygon class="cls-62" points="135.24 517.44 177.7 542.31 180.85 540.46 138.37 515.64 135.24 517.44"/><polygon class="cls-63" points="135.24 517.44 178.61 541.58 183.38 565.82 177.08 542.34 135.24 517.44"/><polygon class="cls-2" points="204 661.75 243.6 684.84 289.95 657.94 250.33 634.88 204 661.75"/><path class="cls-64" d="M242.65,688.55a8.9,8.9,0,0,1-4.47-1.2l-36-20.88a5.07,5.07,0,0,1,.08-8.81l35-19.6V618.64a1.91,1.91,0,1,1,3.81,0v20.54a1.9,1.9,0,0,1-1,1.66l-36,20.15a1.26,1.26,0,0,0,0,2.18l36,20.88a5.09,5.09,0,0,0,5.13,0l31.14-18.21V613.4a1.91,1.91,0,0,1,3.82,0v53.52a1.91,1.91,0,0,1-.95,1.65l-32.08,18.76A9,9,0,0,1,242.65,688.55Z"/><path class="cls-4" d="M242.33,687a7.59,7.59,0,0,1-3.83-1l-36-20.88a3.79,3.79,0,0,1,0-6.59l35.68-20V618.32a.64.64,0,1,1,1.28,0v20.54a.63.63,0,0,1-.33.55l-36,20.15a2.53,2.53,0,0,0,0,4.39l36,20.88a6.34,6.34,0,0,0,6.41,0l31.77-18.57V613.08a.64.64,0,0,1,.63-.64.64.64,0,0,1,.64.64V666.6a.63.63,0,0,1-.31.54L246.2,685.91A7.71,7.71,0,0,1,242.33,687Z"/><path class="cls-65" d="M242.17,686.24a7.27,7.27,0,0,1-3.58-1l-36-20.89a3.24,3.24,0,0,1-1.64-2.87,3.29,3.29,0,0,1,1.69-2.84l35.94-20.11V618.1a.13.13,0,0,1,.26,0v20.54a.12.12,0,0,1-.07.11l-36,20.15a3,3,0,0,0,0,5.27l36,20.89a6.92,6.92,0,0,0,6.93,0l32-18.73V612.86a.12.12,0,0,1,.12-.12.13.13,0,0,1,.13.12v53.53l-32.14,18.86A7.15,7.15,0,0,1,242.17,686.24Z"/><polygon class="cls-66" points="240.19 634.19 240.19 638.07 283.46 613.05 283.46 609.04 240.19 634.19"/><polygon class="cls-67" points="240.2 634.19 240.2 638.07 197.8 613.45 197.8 609.44 240.2 634.19"/><polygon class="cls-68" points="240.19 631.81 240.19 635.69 283.46 610.67 283.46 606.66 240.19 631.81"/><polygon class="cls-69" points="240.2 631.81 240.2 635.69 197.8 611.07 197.8 607.06 240.2 631.81"/><polygon class="cls-70" points="197.8 607.06 240.2 631.81 283.46 606.66 241.03 581.96 197.8 607.06"/><polygon class="cls-71" points="239.92 630.7 245.35 629.45 283.46 606.66 239.92 630.7"/><path class="cls-72" d="M240.29,590.07l-4.24-17.18-3.17,1.85,4.24,17.09a106.06,106.06,0,0,1,3.09,25.4v14.59l3.17-1.72,0-14.81A106.15,106.15,0,0,0,240.29,590.07Z"/><path class="cls-73" d="M232.9,574.74l-42.46-24.87,4.25,17.26a105.29,105.29,0,0,1,3.08,25.3v14.64l42.46,24.75v-14.6a105.71,105.71,0,0,0-3.1-25.41Z"/><polygon class="cls-74" points="190.44 549.87 232.9 574.74 236.05 572.89 193.56 548.07 190.44 549.87"/><polygon class="cls-75" points="190.44 549.87 233.81 574 238.58 598.24 232.28 574.77 190.44 549.87"/><polygon class="cls-2" points="13.56 642.21 53.15 665.31 99.51 638.4 59.89 615.34 13.56 642.21"/><path class="cls-76" d="M52.21,669a8.81,8.81,0,0,1-4.47-1.21l-36-20.87a5.07,5.07,0,0,1,.08-8.81l35-19.61V599.11a1.91,1.91,0,1,1,3.81,0v20.53a1.9,1.9,0,0,1-1,1.67l-36,20.15a1.22,1.22,0,0,0-.65,1.09,1.25,1.25,0,0,0,.63,1.09l36,20.88a5.09,5.09,0,0,0,5.13,0l31.14-18.2V593.87a1.91,1.91,0,1,1,3.81,0v53.52a1.88,1.88,0,0,1-.94,1.64L56.71,667.79A8.84,8.84,0,0,1,52.21,669Z"/><path class="cls-4" d="M51.89,667.42a7.59,7.59,0,0,1-3.83-1l-36-20.88a3.79,3.79,0,0,1,.07-6.59l35.68-20V598.78a.63.63,0,0,1,.63-.63.64.64,0,0,1,.64.63v20.54a.63.63,0,0,1-.33.55L12.75,640a2.53,2.53,0,0,0,0,4.39l36,20.88a6.37,6.37,0,0,0,6.41,0L86.88,646.7V593.54a.63.63,0,0,1,.63-.63.64.64,0,0,1,.64.63v53.53a.63.63,0,0,1-.31.54L55.75,666.37A7.56,7.56,0,0,1,51.89,667.42Z"/><path class="cls-77" d="M51.73,666.7a7.1,7.1,0,0,1-3.57-1l-36-20.88a3.29,3.29,0,0,1,.05-5.71l36-20.11V598.57a.12.12,0,0,1,.12-.13.13.13,0,0,1,.13.13v20.54a.12.12,0,0,1-.07.11l-36,20.15a3,3,0,0,0,0,5.27l36,20.88a6.86,6.86,0,0,0,6.93,0l32-18.72V593.33a.13.13,0,0,1,.13-.13.13.13,0,0,1,.12.13v53.52L55.34,665.72A7.14,7.14,0,0,1,51.73,666.7Z"/><polygon class="cls-78" points="49.74 614.65 49.74 618.54 93.02 593.52 93.02 589.51 49.74 614.65"/><polygon class="cls-79" points="49.76 614.65 49.76 618.54 7.36 593.92 7.36 589.91 49.76 614.65"/><polygon class="cls-80" points="49.74 612.27 49.74 616.16 93.02 591.13 93.02 587.13 49.74 612.27"/><polygon class="cls-81" points="49.76 612.27 49.76 616.16 7.36 591.54 7.36 587.53 49.76 612.27"/><polygon class="cls-82" points="7.36 587.53 49.76 612.27 93.02 587.13 50.59 562.43 7.36 587.53"/><polygon class="cls-83" points="49.47 611.16 54.92 609.92 93.02 587.13 49.47 611.16"/><path class="cls-84" d="M49.85,570.54l-4.24-17.18-3.17,1.85,4.24,17.09a106.06,106.06,0,0,1,3.09,25.4v14.59l3.17-1.73,0-14.8A105.58,105.58,0,0,0,49.85,570.54Z"/><path class="cls-85" d="M42.46,555.21,0,530.34,4.26,547.6a105.73,105.73,0,0,1,3.07,25.3v14.64l42.46,24.75v-14.6a105.73,105.73,0,0,0-3.1-25.42Z"/><polygon class="cls-86" points="0 530.34 42.46 555.21 45.61 553.36 3.12 528.53 0 530.34"/><polygon class="cls-87" points="0 530.34 43.37 554.47 48.14 578.71 41.84 555.23 0 530.34"/><polygon class="cls-2" points="70.37 675.79 109.96 698.89 156.31 671.98 116.7 648.92 70.37 675.79"/><path class="cls-88" d="M109,702.59a8.92,8.92,0,0,1-4.47-1.2l-36-20.88a5.07,5.07,0,0,1,.08-8.81l35-19.6V632.68a1.91,1.91,0,0,1,3.81,0v20.54a1.92,1.92,0,0,1-1,1.67L70.49,675a1.23,1.23,0,0,0-.64,1.08,1.24,1.24,0,0,0,.62,1.1l36,20.87a5.07,5.07,0,0,0,5.13,0l31.14-18.2V627.44a1.91,1.91,0,0,1,3.81,0V681a1.91,1.91,0,0,1-.94,1.64l-32.08,18.76A9,9,0,0,1,109,702.59Z"/><path class="cls-4" d="M108.7,701a7.72,7.72,0,0,1-3.84-1l-36-20.88a3.8,3.8,0,0,1,.06-6.6l35.68-20V632.36a.64.64,0,0,1,.63-.64.64.64,0,0,1,.64.64V652.9a.63.63,0,0,1-.33.55l-36,20.15a2.52,2.52,0,0,0-1.3,2.18A2.49,2.49,0,0,0,69.52,678l36,20.88a6.37,6.37,0,0,0,6.41,0l31.77-18.58V627.12a.64.64,0,0,1,.64-.63.63.63,0,0,1,.63.63v53.52a.61.61,0,0,1-.31.55L112.56,700A7.69,7.69,0,0,1,108.7,701Z"/><path class="cls-89" d="M108.54,700.28a7.14,7.14,0,0,1-3.58-1L69,678.44a3.29,3.29,0,0,1,0-5.72L105,652.61V632.15a.13.13,0,0,1,.13-.13.14.14,0,0,1,.13.13v20.54a.14.14,0,0,1-.07.11L69.15,673a3,3,0,0,0-.05,5.27l36,20.88a6.9,6.9,0,0,0,6.92,0l32-18.72V626.91a.13.13,0,0,1,.26,0v53.52L112.14,699.3A7.08,7.08,0,0,1,108.54,700.28Z"/><polygon class="cls-90" points="106.55 648.23 106.55 652.12 149.82 627.09 149.82 623.09 106.55 648.23"/><polygon class="cls-91" points="106.57 648.23 106.57 652.12 64.17 627.5 64.17 623.49 106.57 648.23"/><polygon class="cls-92" points="106.55 645.85 106.55 649.74 149.82 624.71 149.82 620.71 106.55 645.85"/><polygon class="cls-93" points="106.57 645.85 106.57 649.74 64.17 625.12 64.17 621.11 106.57 645.85"/><polygon class="cls-94" points="64.17 621.11 106.57 645.85 149.82 620.71 107.39 596.01 64.17 621.11"/><polygon class="cls-95" points="106.28 644.74 111.72 643.5 149.82 620.71 106.28 644.74"/><path class="cls-96" d="M106.65,604.12l-4.23-17.19-3.17,1.85,4.23,17.1a105.51,105.51,0,0,1,3.1,25.4v14.59l3.17-1.73,0-14.8A105.59,105.59,0,0,0,106.65,604.12Z"/><path class="cls-97" d="M99.27,588.78,56.81,563.91l4.25,17.26a105.82,105.82,0,0,1,3.08,25.31v14.64l42.46,24.75v-14.6a105.73,105.73,0,0,0-3.1-25.42Z"/><polygon class="cls-98" points="56.81 563.91 99.27 588.78 102.42 586.93 59.93 562.11 56.81 563.91"/><polygon class="cls-99" points="56.81 563.91 100.17 588.05 104.94 612.29 98.65 588.81 56.81 563.91"/><path class="cls-100" d="M836.3,458.05a11.53,11.53,0,0,1-5.72-1.52L811.31,445.4a3.56,3.56,0,0,1,0-6.18l19.27-11.13a11.46,11.46,0,0,1,11.43,0l19.28,11.13a3.57,3.57,0,0,1,0,6.18L842,456.53A11.46,11.46,0,0,1,836.3,458.05Zm0-28.43a8.33,8.33,0,0,0-4.19,1.12l-19.27,11.12a.5.5,0,0,0-.26.45.48.48,0,0,0,.26.44l19.27,11.13h0a8.41,8.41,0,0,0,8.38,0l19.27-11.13a.5.5,0,0,0,.26-.44.52.52,0,0,0-.26-.45l-19.27-11.12A8.36,8.36,0,0,0,836.3,429.62Z"/><path class="cls-101" d="M781.18,394.92a18.64,18.64,0,0,1-9.29-2.48l-33.16-19.15a5,5,0,0,1,0-8.73l33.16-19.15a18.61,18.61,0,0,1,18.57,0l33.17,19.15a5,5,0,0,1,0,8.73l-33.16,19.15A18.64,18.64,0,0,1,781.18,394.92Zm-7.76-5.13a15.58,15.58,0,0,0,15.52,0l33.17-19.15a2,2,0,0,0,0-3.44l-33.17-19.15a15.58,15.58,0,0,0-15.52,0L740.25,367.2a2,2,0,0,0,0,3.44Z"/><path class="cls-102" d="M188.05,425.05a18.48,18.48,0,0,1-9.29-2.48l-33.17-19.15a5,5,0,0,1,0-8.73l33.17-19.15a18.61,18.61,0,0,1,18.57,0l33.17,19.15a5,5,0,0,1,0,8.73l-33.17,19.15A18.57,18.57,0,0,1,188.05,425.05Zm0-48.93a15.51,15.51,0,0,0-7.76,2.07l-33.17,19.15a2,2,0,0,0,0,3.44l33.17,19.14h0a15.53,15.53,0,0,0,15.52,0L229,400.78a2,2,0,0,0,0-3.44L195.8,378.19A15.5,15.5,0,0,0,188.05,376.12Z"/><path class="cls-103" d="M523.91,508.59,286.76,371.66c-3.46-2-3-5.48,1-7.78L439.93,276c4-2.3,10-2.55,13.49-.56L690.58,412.36c3.45,2,3,5.49-1,7.79L537.4,508C533.41,510.33,527.37,510.58,523.91,508.59Z"/><path class="cls-104" d="M529.35,533.31a15.22,15.22,0,0,1-7.47-1.75h0L251.22,375.29c-2.21-1.28-3.43-3.12-3.43-5.18,0-2.38,1.65-4.69,4.53-6.35l184.51-108.1c5.06-2.92,12.49-3.2,16.93-.64L724.42,411.29c2.21,1.27,3.43,3.11,3.43,5.18,0,2.37-1.65,4.68-4.53,6.35L538.81,530.91A19.28,19.28,0,0,1,529.35,533.31Zm-83-277a16.45,16.45,0,0,0-8,2L253.86,366.4c-1.89,1.09-3,2.47-3,3.71a3.21,3.21,0,0,0,1.9,2.53L523.41,528.91h0c3.46,2,9.81,1.71,13.86-.64L721.78,420.18c1.89-1.1,3-2.48,3-3.71a3.23,3.23,0,0,0-1.9-2.54L452.23,257.66A12.13,12.13,0,0,0,446.33,256.34Z"/><path class="cls-105" d="M753.58,182.81,517.36,46.43a6.1,6.1,0,0,0-4.82-.69h0l-4.37,1.53,1.54.36a7.5,7.5,0,0,0-1.44,2.7L454.82,223.78c-1.33,4.3.61,9.53,4.33,11.67L695.37,371.84a6.94,6.94,0,0,0,1.74.71l-.59,1.27,4.18-1.47h0a6.68,6.68,0,0,0,3.8-4.42l53.42-173.45C759.23,190.18,757.3,185,753.58,182.81Z"/><path class="cls-106" d="M686.91,378.31l.09.1L453.67,243.7c-3.43-2-9.43-1.73-13.39.56l-150.75,87-5-1.92,1.41,7.06h0a4.24,4.24,0,0,0,2.26,2.83l235.49,136c3.43,2,9.42,1.74,13.39-.55l151.13-87.26a6.06,6.06,0,0,0,3.21-3.73h0l1.45-6.87Z"/><path class="cls-107" d="M523.91,469,286.76,332.08c-3.46-2-3-5.49,1-7.79l152.2-87.88c4-2.3,10-2.55,13.49-.56L690.58,372.77c3.45,2,3,5.49-1,7.79L537.4,468.44C533.41,470.74,527.37,471,523.91,469Z"/><path class="cls-108" d="M689.61,378.71,537.4,466.59c-4,2.31-10,2.56-13.49.56L286.76,330.23a4.44,4.44,0,0,1-2.16-2.46c-.46,1.59.21,3.18,2.16,4.31L523.91,469c3.46,2,9.5,1.74,13.49-.56l152.21-87.88c2.63-1.52,3.68-3.55,3.12-5.33A6.2,6.2,0,0,1,689.61,378.71Z"/><g class="cls-109"><path class="cls-110" d="M399.88,309.86l-8-4.63c-.64-.37-.56-1,.18-1.45l9.45-5.45a2.79,2.79,0,0,1,2.51-.11l8,4.63c.64.37.56,1-.18,1.44l-9.45,5.46A2.79,2.79,0,0,1,399.88,309.86Z"/><path class="cls-110" d="M412.24,317l-8-4.62c-.65-.37-.57-1,.18-1.45l9.45-5.45a2.77,2.77,0,0,1,2.5-.11l8,4.63c.64.37.56,1-.18,1.44l-9.45,5.46A2.76,2.76,0,0,1,412.24,317Z"/><path class="cls-110" d="M424.61,324.13l-8-4.62c-.64-.37-.56-1,.18-1.45l9.45-5.45a2.79,2.79,0,0,1,2.51-.11l8,4.62c.64.38.56,1-.18,1.45L427.12,324A2.79,2.79,0,0,1,424.61,324.13Z"/><path class="cls-110" d="M441.71,318.24l-8-4.63c-.64-.37-.56-1,.18-1.44l7.94-4.58a2.77,2.77,0,0,1,2.5-.11l8,4.62c.64.38.56,1-.18,1.45l-7.93,4.58A2.79,2.79,0,0,1,441.71,318.24Z"/><path class="cls-110" d="M454.07,325.38l-8-4.63c-.65-.37-.57-1,.18-1.44l7.93-4.58a2.79,2.79,0,0,1,2.51-.11l8,4.62c.65.37.57,1-.18,1.45l-7.93,4.58A2.79,2.79,0,0,1,454.07,325.38Z"/><path class="cls-110" d="M466.44,332.52l-8-4.63c-.64-.37-.56-1,.18-1.45l7.93-4.58a2.82,2.82,0,0,1,2.51-.1l8,4.62c.64.37.56,1-.18,1.45L469,332.41A2.79,2.79,0,0,1,466.44,332.52Z"/><path class="cls-110" d="M478.8,339.65l-8-4.62c-.65-.37-.57-1,.18-1.45l7.93-4.58a2.79,2.79,0,0,1,2.51-.1l8,4.62c.65.37.57,1-.18,1.45l-7.93,4.58A2.79,2.79,0,0,1,478.8,339.65Z"/><path class="cls-110" d="M491.17,346.79l-8-4.62c-.64-.37-.56-1,.18-1.45l7.93-4.58a2.79,2.79,0,0,1,2.51-.1l8,4.62c.64.37.56,1-.18,1.45l-7.93,4.58A2.79,2.79,0,0,1,491.17,346.79Z"/><path class="cls-110" d="M503.53,353.93l-8-4.62c-.65-.37-.57-1,.18-1.45l7.93-4.58a2.79,2.79,0,0,1,2.51-.1l8,4.62c.65.37.57,1-.18,1.45L506,353.83A2.79,2.79,0,0,1,503.53,353.93Z"/><path class="cls-110" d="M515.9,361.07l-8-4.62c-.64-.37-.56-1,.18-1.45l7.93-4.58a2.76,2.76,0,0,1,2.51-.1l8,4.62c.64.37.56,1-.18,1.45L518.41,361A2.82,2.82,0,0,1,515.9,361.07Z"/><path class="cls-110" d="M528.26,368.21l-8-4.62c-.65-.37-.57-1,.18-1.45l7.93-4.58a2.79,2.79,0,0,1,2.51-.11l8,4.63c.65.37.57,1-.18,1.44l-7.93,4.59A2.82,2.82,0,0,1,528.26,368.21Z"/><path class="cls-110" d="M540.63,375.35l-8-4.62c-.64-.38-.56-1,.18-1.45l7.93-4.58a2.79,2.79,0,0,1,2.51-.11l8,4.63c.64.37.56,1-.18,1.44l-7.93,4.58A2.79,2.79,0,0,1,540.63,375.35Z"/><path class="cls-110" d="M553,382.49l-8-4.63c-.65-.37-.57-1,.18-1.44l7.93-4.58a2.79,2.79,0,0,1,2.51-.11l8,4.62c.65.38.57,1-.18,1.45l-7.93,4.58A2.79,2.79,0,0,1,553,382.49Z"/><path class="cls-110" d="M459.93,314.86l-8-4.63c-.64-.37-.56-1,.18-1.44l7.93-4.58a2.79,2.79,0,0,1,2.51-.11l8,4.63c.64.37.56,1-.18,1.44l-7.93,4.58A2.79,2.79,0,0,1,459.93,314.86Z"/><path class="cls-110" d="M447.38,307.61l-8-4.62c-.64-.37-.56-1,.18-1.45l7.93-4.58a2.79,2.79,0,0,1,2.51-.1l8,4.62c.64.37.56,1-.18,1.45l-7.93,4.58A2.79,2.79,0,0,1,447.38,307.61Z"/><path class="cls-110" d="M434.81,300.35l-17.25-10c-.64-.37-.56-1,.18-1.45l7.94-4.58a2.79,2.79,0,0,1,2.51-.1l17.24,10c.64.37.56,1-.18,1.45l-7.93,4.58A2.76,2.76,0,0,1,434.81,300.35Z"/><path class="cls-110" d="M443.59,291.53l-14-8.08c-.64-.37-.56-1,.18-1.45l7.93-4.58a2.79,2.79,0,0,1,2.51-.1l14,8.08c.64.37.56,1-.18,1.44l-7.94,4.59A2.82,2.82,0,0,1,443.59,291.53Z"/><path class="cls-110" d="M472.29,322l-8-4.63c-.65-.37-.57-1,.18-1.44l7.93-4.58a2.79,2.79,0,0,1,2.51-.11l8,4.62c.65.38.57,1-.18,1.45l-7.93,4.58A2.79,2.79,0,0,1,472.29,322Z"/><path class="cls-110" d="M484.66,329.14l-8-4.63c-.64-.37-.56-1,.18-1.45l7.93-4.58a2.82,2.82,0,0,1,2.51-.1l8,4.62c.64.37.56,1-.18,1.45L487.16,329A2.77,2.77,0,0,1,484.66,329.14Z"/><path class="cls-110" d="M497,336.27l-8-4.62c-.65-.37-.57-1,.18-1.45l7.93-4.58a2.79,2.79,0,0,1,2.51-.1l8,4.62c.65.37.57,1-.18,1.45l-7.93,4.58A2.76,2.76,0,0,1,497,336.27Z"/><path class="cls-110" d="M509.39,343.41l-8-4.62c-.64-.37-.56-1,.18-1.45l7.93-4.58a2.79,2.79,0,0,1,2.51-.1l8,4.62c.64.37.56,1-.18,1.45l-7.94,4.58A2.77,2.77,0,0,1,509.39,343.41Z"/><path class="cls-110" d="M521.75,350.55l-8-4.62c-.64-.37-.56-1,.18-1.45l7.94-4.58a2.79,2.79,0,0,1,2.51-.1l8,4.62c.65.37.57,1-.18,1.45l-7.93,4.58A2.79,2.79,0,0,1,521.75,350.55Z"/><path class="cls-110" d="M534.12,357.69l-8-4.62c-.64-.37-.56-1,.18-1.45l7.93-4.58a2.76,2.76,0,0,1,2.51-.1l8,4.62c.64.37.56,1-.18,1.45l-7.94,4.58A2.77,2.77,0,0,1,534.12,357.69Z"/><path class="cls-110" d="M546.48,364.83l-8-4.62c-.64-.37-.56-1,.18-1.45l7.94-4.58a2.79,2.79,0,0,1,2.51-.11l8,4.63c.65.37.56,1-.18,1.45L549,364.73A2.82,2.82,0,0,1,546.48,364.83Z"/><path class="cls-110" d="M558.85,372l-8-4.62c-.64-.38-.56-1,.18-1.45l7.93-4.58a2.79,2.79,0,0,1,2.51-.11l8,4.63c.64.37.56,1-.18,1.44l-7.94,4.58A2.77,2.77,0,0,1,558.85,372Z"/><path class="cls-110" d="M571.21,379.11l-8-4.63c-.64-.37-.56-1,.18-1.44l7.94-4.58a2.79,2.79,0,0,1,2.51-.11l8,4.62c.65.38.56,1-.18,1.45L573.72,379A2.79,2.79,0,0,1,571.21,379.11Z"/><path class="cls-110" d="M593.19,391.8l-17.47-10.09c-.64-.37-.56-1,.18-1.45l7.94-4.58a2.77,2.77,0,0,1,2.5-.1l17.47,10.09c.65.37.57,1-.18,1.44l-7.93,4.58A2.79,2.79,0,0,1,593.19,391.8Z"/><path class="cls-110" d="M617.27,377.9l-14.75-8.51c-.64-.37-.56-1,.18-1.45l7.93-4.58a2.79,2.79,0,0,1,2.51-.11l14.75,8.52c.64.37.56,1-.18,1.45l-7.94,4.58A2.8,2.8,0,0,1,617.27,377.9Z"/><path class="cls-110" d="M494,320.6l-8-4.62c-.64-.37-.56-1,.18-1.45l7.93-4.58a2.79,2.79,0,0,1,2.51-.11l8,4.63c.64.37.56,1-.18,1.45l-7.94,4.58A2.8,2.8,0,0,1,494,320.6Z"/><path class="cls-110" d="M481.27,313.28l-8-4.62c-.65-.37-.57-1,.18-1.45l7.93-4.58a2.79,2.79,0,0,1,2.51-.1l8,4.62c.65.37.57,1-.18,1.45l-7.93,4.58A2.79,2.79,0,0,1,481.27,313.28Z"/><path class="cls-110" d="M468.6,306l-8-4.63c-.64-.37-.56-1,.18-1.44l7.94-4.58a2.79,2.79,0,0,1,2.51-.11l8,4.62c.65.38.56,1-.18,1.45l-7.93,4.58A2.79,2.79,0,0,1,468.6,306Z"/><path class="cls-110" d="M455.93,298.65l-8-4.62c-.64-.37-.56-1,.18-1.45L456,288a2.76,2.76,0,0,1,2.51-.1l8,4.62c.64.37.56,1-.18,1.45l-7.93,4.58A2.82,2.82,0,0,1,455.93,298.65Z"/><path class="cls-110" d="M506.31,327.74l-8-4.62c-.64-.38-.56-1,.18-1.45l7.94-4.58a2.79,2.79,0,0,1,2.51-.11l8,4.63c.64.37.56,1-.18,1.44l-7.93,4.58A2.79,2.79,0,0,1,506.31,327.74Z"/><path class="cls-110" d="M518.68,334.88l-8-4.63c-.64-.37-.56-1,.18-1.44l7.93-4.58a2.79,2.79,0,0,1,2.51-.11l8,4.62c.64.38.56,1-.18,1.45l-7.94,4.58A2.77,2.77,0,0,1,518.68,334.88Z"/><path class="cls-110" d="M531,342l-8-4.63c-.64-.37-.56-1,.18-1.44l7.94-4.59a2.8,2.8,0,0,1,2.5-.1l8,4.62c.64.37.56,1-.18,1.45l-7.93,4.58A2.79,2.79,0,0,1,531,342Z"/><path class="cls-110" d="M543.4,349.15l-8-4.62c-.64-.37-.56-1,.18-1.45l7.93-4.58a2.82,2.82,0,0,1,2.51-.1l8,4.62c.64.37.56,1-.18,1.45l-7.94,4.58A2.76,2.76,0,0,1,543.4,349.15Z"/><path class="cls-110" d="M555.77,356.29l-8-4.62c-.64-.37-.56-1,.18-1.45l7.94-4.58a2.77,2.77,0,0,1,2.5-.1l8,4.62c.64.37.56,1-.18,1.45l-7.93,4.58A2.79,2.79,0,0,1,555.77,356.29Z"/><path class="cls-110" d="M568.13,363.43l-8-4.62c-.65-.37-.56-1,.18-1.45l7.93-4.58a2.79,2.79,0,0,1,2.51-.1l8,4.62c.64.37.56,1-.18,1.45l-7.94,4.58A2.79,2.79,0,0,1,568.13,363.43Z"/><path class="cls-110" d="M580.5,370.57l-8-4.62c-.64-.37-.56-1,.18-1.45l7.94-4.58a2.77,2.77,0,0,1,2.5-.1l8,4.62c.64.37.56,1-.18,1.45L583,370.47A2.79,2.79,0,0,1,580.5,370.57Z"/><path class="cls-110" d="M592.86,377.71l-8-4.62c-.65-.37-.56-1,.18-1.45l7.93-4.58a2.76,2.76,0,0,1,2.51-.1l8,4.62c.64.37.56,1-.18,1.45l-7.94,4.58A2.82,2.82,0,0,1,592.86,377.71Z"/><path class="cls-110" d="M605.23,384.85l-8-4.62c-.64-.37-.56-1,.18-1.45l7.94-4.58a2.77,2.77,0,0,1,2.5-.11l8,4.63c.64.37.56,1-.18,1.44l-7.93,4.59A2.82,2.82,0,0,1,605.23,384.85Z"/><path class="cls-110" d="M487.43,302.94l-8-4.62c-.64-.37-.56-1,.18-1.45l7.93-4.58a2.79,2.79,0,0,1,2.51-.1l8,4.62c.64.37.56,1-.18,1.45l-7.94,4.58A2.79,2.79,0,0,1,487.43,302.94Z"/><path class="cls-110" d="M475.13,295.84l-8-4.62c-.64-.38-.56-1,.18-1.45l7.94-4.58a2.79,2.79,0,0,1,2.51-.11l8,4.63c.65.37.57,1-.18,1.44l-7.93,4.58A2.79,2.79,0,0,1,475.13,295.84Z"/><path class="cls-110" d="M462.83,288.74l-8-4.63c-.64-.37-.56-1,.18-1.45l7.93-4.58a2.82,2.82,0,0,1,2.51-.1l8,4.62c.64.37.56,1-.18,1.45l-7.93,4.58A2.79,2.79,0,0,1,462.83,288.74Z"/><path class="cls-110" d="M450.52,281.63l-8-4.62c-.64-.37-.56-1,.18-1.45l7.93-4.58a2.79,2.79,0,0,1,2.51-.1l8,4.62c.64.37.56,1-.18,1.45L453,281.53A2.79,2.79,0,0,1,450.52,281.63Z"/><path class="cls-110" d="M463.18,274.33l-8-4.62c-.64-.38-.56-1,.18-1.45l2.62-1.52a2.79,2.79,0,0,1,2.51-.1l8,4.62c.64.37.56,1-.18,1.45l-2.63,1.51A2.77,2.77,0,0,1,463.18,274.33Z"/><path class="cls-110" d="M479.23,283.6l-8-4.63c-.65-.37-.57-1,.18-1.44L474,276a2.79,2.79,0,0,1,2.51-.1l8,4.62c.65.37.57,1-.18,1.45l-2.62,1.51A2.79,2.79,0,0,1,479.23,283.6Z"/><path class="cls-110" d="M491.48,290.67l-8-4.62c-.65-.37-.56-1,.18-1.45l2.62-1.51a2.79,2.79,0,0,1,2.51-.11l8,4.63c.65.37.57,1-.18,1.44L494,290.57A2.79,2.79,0,0,1,491.48,290.67Z"/><path class="cls-110" d="M503.74,297.75l-8-4.63c-.64-.37-.56-1,.18-1.45l2.62-1.51a2.79,2.79,0,0,1,2.51-.1l8,4.62c.64.37.56,1-.18,1.45l-2.63,1.51A2.77,2.77,0,0,1,503.74,297.75Z"/><path class="cls-110" d="M516,304.82l-8-4.62c-.64-.38-.56-1,.18-1.45l2.62-1.52a2.82,2.82,0,0,1,2.51-.1l8,4.62c.64.37.56,1-.18,1.45l-2.62,1.51A2.79,2.79,0,0,1,516,304.82Z"/><path class="cls-110" d="M584.39,344.31l-8-4.62c-.64-.37-.56-1,.18-1.45l2.63-1.51a2.77,2.77,0,0,1,2.5-.11l8,4.62c.64.38.56,1-.18,1.45l-2.62,1.52A2.82,2.82,0,0,1,584.39,344.31Z"/><path class="cls-110" d="M596.64,351.38l-8-4.62c-.64-.37-.56-1,.18-1.45l2.63-1.51a2.76,2.76,0,0,1,2.51-.1l8,4.62c.65.37.56,1-.18,1.45l-2.62,1.51A2.76,2.76,0,0,1,596.64,351.38Z"/><path class="cls-110" d="M608.89,358.46l-8-4.63c-.65-.37-.57-1,.18-1.44l2.62-1.52a2.79,2.79,0,0,1,2.51-.1l8,4.62c.65.37.57,1-.18,1.45l-2.62,1.51A2.79,2.79,0,0,1,608.89,358.46Z"/><path class="cls-110" d="M621.15,365.53l-8-4.62c-.64-.37-.56-1,.18-1.45l2.62-1.51a2.79,2.79,0,0,1,2.51-.11l8,4.63c.64.37.56,1-.18,1.44l-2.63,1.52A2.77,2.77,0,0,1,621.15,365.53Z"/><path class="cls-110" d="M499.8,310.08l-8-4.62c-.64-.37-.56-1,.18-1.45l7.94-4.58a2.74,2.74,0,0,1,2.5-.1l8,4.62c.64.37.56,1-.18,1.45L502.31,310A2.79,2.79,0,0,1,499.8,310.08Z"/><path class="cls-110" d="M512.16,317.22l-8-4.62c-.65-.37-.56-1,.18-1.45l7.93-4.58a2.79,2.79,0,0,1,2.51-.11l8,4.63c.64.37.56,1-.18,1.45l-7.94,4.58A2.82,2.82,0,0,1,512.16,317.22Z"/><path class="cls-110" d="M524.53,324.36l-8-4.62c-.64-.38-.56-1,.18-1.45l7.94-4.58a2.77,2.77,0,0,1,2.5-.11l8,4.63c.64.37.56,1-.18,1.44L527,324.25A2.79,2.79,0,0,1,524.53,324.36Z"/><path class="cls-110" d="M536.89,331.5l-8-4.63c-.65-.37-.56-1,.18-1.44l7.93-4.58a2.79,2.79,0,0,1,2.51-.11l8,4.63c.64.37.56,1-.18,1.44l-7.94,4.58A2.79,2.79,0,0,1,536.89,331.5Z"/><path class="cls-110" d="M549.26,338.64l-8-4.63c-.64-.37-.56-1,.18-1.44l7.94-4.58a2.77,2.77,0,0,1,2.5-.11l8,4.62c.64.38.56,1-.18,1.45l-7.93,4.58A2.79,2.79,0,0,1,549.26,338.64Z"/><path class="cls-110" d="M561.62,345.78l-8-4.63c-.65-.37-.57-1,.18-1.45l7.93-4.58a2.82,2.82,0,0,1,2.51-.1l8,4.62c.64.37.56,1-.18,1.45l-7.94,4.58A2.79,2.79,0,0,1,561.62,345.78Z"/><path class="cls-110" d="M574,352.91l-8-4.62c-.64-.37-.56-1,.18-1.45l7.94-4.58a2.77,2.77,0,0,1,2.5-.1l8,4.62c.64.37.56,1-.18,1.45l-7.93,4.58A2.76,2.76,0,0,1,574,352.91Z"/><path class="cls-110" d="M586.35,360.05l-8-4.62c-.65-.37-.57-1,.18-1.45l7.93-4.58a2.79,2.79,0,0,1,2.51-.1l8,4.62c.65.37.57,1-.18,1.45L588.86,360A2.79,2.79,0,0,1,586.35,360.05Z"/><path class="cls-110" d="M598.72,367.19l-8-4.62c-.64-.37-.56-1,.18-1.45l7.93-4.58a2.79,2.79,0,0,1,2.51-.1l8,4.62c.64.37.56,1-.18,1.45l-7.93,4.58A2.79,2.79,0,0,1,598.72,367.19Z"/><path class="cls-110" d="M429.11,311l-23.58-13.61c-.65-.37-.57-1,.18-1.45l7.93-4.58a2.76,2.76,0,0,1,2.51-.1l23.58,13.61c.64.37.56,1-.18,1.45l-7.93,4.58A2.79,2.79,0,0,1,429.11,311Z"/><path class="cls-110" d="M581,398.66l-23.58-13.61c-.64-.37-.56-1,.18-1.45l7.94-4.58a2.77,2.77,0,0,1,2.5-.1l23.58,13.61c.65.37.57,1-.18,1.45l-7.93,4.58A2.76,2.76,0,0,1,581,398.66Z"/><path class="cls-110" d="M531.56,385.88l-8-4.62c-.65-.37-.56-1,.18-1.45l9.45-5.45a2.79,2.79,0,0,1,2.51-.11l8,4.63c.65.37.57,1-.18,1.44l-9.45,5.46A2.76,2.76,0,0,1,531.56,385.88Z"/><path class="cls-110" d="M441.77,334,429,326.65c-.65-.37-.57-1,.18-1.45l9.45-5.46a2.8,2.8,0,0,1,2.5-.1L453.91,327c.64.37.56,1-.18,1.45l-9.45,5.46A2.79,2.79,0,0,1,441.77,334Z"/><path class="cls-110" d="M519.65,379l-12.8-7.4c-.65-.37-.57-1,.18-1.45l9.45-5.45a2.77,2.77,0,0,1,2.5-.11l12.81,7.4c.64.37.56,1-.18,1.45l-9.45,5.45A2.79,2.79,0,0,1,519.65,379Z"/><path class="cls-110" d="M459.61,344.34,446.81,337c-.65-.37-.57-1,.18-1.45l9.45-5.46a2.8,2.8,0,0,1,2.5-.1l12.81,7.39c.64.37.56,1-.18,1.45l-9.45,5.46A2.79,2.79,0,0,1,459.61,344.34Z"/><path class="cls-110" d="M459,330l55.67,32.14a.77.77,0,0,1,0,1.45l-9.63,5.56a2.78,2.78,0,0,1-2.51,0L446.89,337Z"/><path class="cls-110" d="M566.12,398.83,575,404c.53.3.46.83-.15,1.18L571,407.4a2.28,2.28,0,0,1-2.06.08l-8.92-5.15c-.52-.3-.46-.83.15-1.18l3.87-2.24A2.26,2.26,0,0,1,566.12,398.83Z"/><path class="cls-110" d="M553.65,391.63l8.92,5.15c.53.3.46.83-.14,1.19l-3.87,2.23a2.28,2.28,0,0,1-2.06.08l-8.92-5.15c-.52-.3-.46-.83.15-1.18l3.87-2.24A2.29,2.29,0,0,1,553.65,391.63Z"/><path class="cls-110" d="M541.29,384.49l8.92,5.15c.53.3.46.84-.15,1.19l-3.87,2.23a2.26,2.26,0,0,1-2.05.08L535.22,388c-.53-.31-.46-.84.15-1.19l3.86-2.23A2.28,2.28,0,0,1,541.29,384.49Z"/><path class="cls-110" d="M560.48,387.69l8.92,5.15c.53.3.46.83-.15,1.18l-3.86,2.24a2.28,2.28,0,0,1-2.06.08l-8.92-5.15c-.52-.3-.46-.83.15-1.19l3.87-2.23A2.26,2.26,0,0,1,560.48,387.69Z"/></g><g class="cls-109"><path class="cls-110" d="M399.88,309.86l-8-4.63c-.64-.37-.56-1,.18-1.45l9.45-5.45a2.79,2.79,0,0,1,2.51-.11l8,4.63c.64.37.56,1-.18,1.44l-9.45,5.46A2.79,2.79,0,0,1,399.88,309.86Z"/><path class="cls-110" d="M412.24,317l-8-4.62c-.65-.37-.57-1,.18-1.45l9.45-5.45a2.77,2.77,0,0,1,2.5-.11l8,4.63c.64.37.56,1-.18,1.44l-9.45,5.46A2.76,2.76,0,0,1,412.24,317Z"/><path class="cls-110" d="M424.61,324.13l-8-4.62c-.64-.37-.56-1,.18-1.45l9.45-5.45a2.79,2.79,0,0,1,2.51-.11l8,4.62c.64.38.56,1-.18,1.45L427.12,324A2.79,2.79,0,0,1,424.61,324.13Z"/><path class="cls-110" d="M441.71,318.24l-8-4.63c-.64-.37-.56-1,.18-1.44l7.94-4.58a2.77,2.77,0,0,1,2.5-.11l8,4.62c.64.38.56,1-.18,1.45l-7.93,4.58A2.79,2.79,0,0,1,441.71,318.24Z"/><path class="cls-110" d="M454.07,325.38l-8-4.63c-.65-.37-.57-1,.18-1.44l7.93-4.58a2.79,2.79,0,0,1,2.51-.11l8,4.62c.65.37.57,1-.18,1.45l-7.93,4.58A2.79,2.79,0,0,1,454.07,325.38Z"/><path class="cls-110" d="M466.44,332.52l-8-4.63c-.64-.37-.56-1,.18-1.45l7.93-4.58a2.82,2.82,0,0,1,2.51-.1l8,4.62c.64.37.56,1-.18,1.45L469,332.41A2.79,2.79,0,0,1,466.44,332.52Z"/><path class="cls-110" d="M478.8,339.65l-8-4.62c-.65-.37-.57-1,.18-1.45l7.93-4.58a2.79,2.79,0,0,1,2.51-.1l8,4.62c.65.37.57,1-.18,1.45l-7.93,4.58A2.79,2.79,0,0,1,478.8,339.65Z"/><path class="cls-110" d="M491.17,346.79l-8-4.62c-.64-.37-.56-1,.18-1.45l7.93-4.58a2.79,2.79,0,0,1,2.51-.1l8,4.62c.64.37.56,1-.18,1.45l-7.93,4.58A2.79,2.79,0,0,1,491.17,346.79Z"/><path class="cls-110" d="M503.53,353.93l-8-4.62c-.65-.37-.57-1,.18-1.45l7.93-4.58a2.79,2.79,0,0,1,2.51-.1l8,4.62c.65.37.57,1-.18,1.45L506,353.83A2.79,2.79,0,0,1,503.53,353.93Z"/><path class="cls-110" d="M515.9,361.07l-8-4.62c-.64-.37-.56-1,.18-1.45l7.93-4.58a2.76,2.76,0,0,1,2.51-.1l8,4.62c.64.37.56,1-.18,1.45L518.41,361A2.82,2.82,0,0,1,515.9,361.07Z"/><path class="cls-110" d="M528.26,368.21l-8-4.62c-.65-.37-.57-1,.18-1.45l7.93-4.58a2.79,2.79,0,0,1,2.51-.11l8,4.63c.65.37.57,1-.18,1.44l-7.93,4.59A2.82,2.82,0,0,1,528.26,368.21Z"/><path class="cls-110" d="M540.63,375.35l-8-4.62c-.64-.38-.56-1,.18-1.45l7.93-4.58a2.79,2.79,0,0,1,2.51-.11l8,4.63c.64.37.56,1-.18,1.44l-7.93,4.58A2.79,2.79,0,0,1,540.63,375.35Z"/><path class="cls-110" d="M553,382.49l-8-4.63c-.65-.37-.57-1,.18-1.44l7.93-4.58a2.79,2.79,0,0,1,2.51-.11l8,4.62c.65.38.57,1-.18,1.45l-7.93,4.58A2.79,2.79,0,0,1,553,382.49Z"/><path class="cls-110" d="M459.93,314.86l-8-4.63c-.64-.37-.56-1,.18-1.44l7.93-4.58a2.79,2.79,0,0,1,2.51-.11l8,4.63c.64.37.56,1-.18,1.44l-7.93,4.58A2.79,2.79,0,0,1,459.93,314.86Z"/><path class="cls-110" d="M447.38,307.61l-8-4.62c-.64-.37-.56-1,.18-1.45l7.93-4.58a2.79,2.79,0,0,1,2.51-.1l8,4.62c.64.37.56,1-.18,1.45l-7.93,4.58A2.79,2.79,0,0,1,447.38,307.61Z"/><path class="cls-110" d="M434.81,300.35l-17.25-10c-.64-.37-.56-1,.18-1.45l7.94-4.58a2.79,2.79,0,0,1,2.51-.1l17.24,10c.64.37.56,1-.18,1.45l-7.93,4.58A2.76,2.76,0,0,1,434.81,300.35Z"/><path class="cls-110" d="M443.59,291.53l-14-8.08c-.64-.37-.56-1,.18-1.45l7.93-4.58a2.79,2.79,0,0,1,2.51-.1l14,8.08c.64.37.56,1-.18,1.44l-7.94,4.59A2.82,2.82,0,0,1,443.59,291.53Z"/><path class="cls-110" d="M472.29,322l-8-4.63c-.65-.37-.57-1,.18-1.44l7.93-4.58a2.79,2.79,0,0,1,2.51-.11l8,4.62c.65.38.57,1-.18,1.45l-7.93,4.58A2.79,2.79,0,0,1,472.29,322Z"/><path class="cls-110" d="M484.66,329.14l-8-4.63c-.64-.37-.56-1,.18-1.45l7.93-4.58a2.82,2.82,0,0,1,2.51-.1l8,4.62c.64.37.56,1-.18,1.45L487.16,329A2.77,2.77,0,0,1,484.66,329.14Z"/><path class="cls-110" d="M497,336.27l-8-4.62c-.65-.37-.57-1,.18-1.45l7.93-4.58a2.79,2.79,0,0,1,2.51-.1l8,4.62c.65.37.57,1-.18,1.45l-7.93,4.58A2.76,2.76,0,0,1,497,336.27Z"/><path class="cls-110" d="M509.39,343.41l-8-4.62c-.64-.37-.56-1,.18-1.45l7.93-4.58a2.79,2.79,0,0,1,2.51-.1l8,4.62c.64.37.56,1-.18,1.45l-7.94,4.58A2.77,2.77,0,0,1,509.39,343.41Z"/><path class="cls-110" d="M521.75,350.55l-8-4.62c-.64-.37-.56-1,.18-1.45l7.94-4.58a2.79,2.79,0,0,1,2.51-.1l8,4.62c.65.37.57,1-.18,1.45l-7.93,4.58A2.79,2.79,0,0,1,521.75,350.55Z"/><path class="cls-110" d="M534.12,357.69l-8-4.62c-.64-.37-.56-1,.18-1.45l7.93-4.58a2.76,2.76,0,0,1,2.51-.1l8,4.62c.64.37.56,1-.18,1.45l-7.94,4.58A2.77,2.77,0,0,1,534.12,357.69Z"/><path class="cls-110" d="M546.48,364.83l-8-4.62c-.64-.37-.56-1,.18-1.45l7.94-4.58a2.79,2.79,0,0,1,2.51-.11l8,4.63c.65.37.56,1-.18,1.45L549,364.73A2.82,2.82,0,0,1,546.48,364.83Z"/><path class="cls-110" d="M558.85,372l-8-4.62c-.64-.38-.56-1,.18-1.45l7.93-4.58a2.79,2.79,0,0,1,2.51-.11l8,4.63c.64.37.56,1-.18,1.44l-7.94,4.58A2.77,2.77,0,0,1,558.85,372Z"/><path class="cls-110" d="M571.21,379.11l-8-4.63c-.64-.37-.56-1,.18-1.44l7.94-4.58a2.79,2.79,0,0,1,2.51-.11l8,4.62c.65.38.56,1-.18,1.45L573.72,379A2.79,2.79,0,0,1,571.21,379.11Z"/><path class="cls-110" d="M593.19,391.8l-17.47-10.09c-.64-.37-.56-1,.18-1.45l7.94-4.58a2.77,2.77,0,0,1,2.5-.1l17.47,10.09c.65.37.57,1-.18,1.44l-7.93,4.58A2.79,2.79,0,0,1,593.19,391.8Z"/><path class="cls-110" d="M617.27,377.9l-14.75-8.51c-.64-.37-.56-1,.18-1.45l7.93-4.58a2.79,2.79,0,0,1,2.51-.11l14.75,8.52c.64.37.56,1-.18,1.45l-7.94,4.58A2.8,2.8,0,0,1,617.27,377.9Z"/><path class="cls-110" d="M494,320.6l-8-4.62c-.64-.37-.56-1,.18-1.45l7.93-4.58a2.79,2.79,0,0,1,2.51-.11l8,4.63c.64.37.56,1-.18,1.45l-7.94,4.58A2.8,2.8,0,0,1,494,320.6Z"/><path class="cls-110" d="M481.27,313.28l-8-4.62c-.65-.37-.57-1,.18-1.45l7.93-4.58a2.79,2.79,0,0,1,2.51-.1l8,4.62c.65.37.57,1-.18,1.45l-7.93,4.58A2.79,2.79,0,0,1,481.27,313.28Z"/><path class="cls-110" d="M468.6,306l-8-4.63c-.64-.37-.56-1,.18-1.44l7.94-4.58a2.79,2.79,0,0,1,2.51-.11l8,4.62c.65.38.56,1-.18,1.45l-7.93,4.58A2.79,2.79,0,0,1,468.6,306Z"/><path class="cls-110" d="M455.93,298.65l-8-4.62c-.64-.37-.56-1,.18-1.45L456,288a2.76,2.76,0,0,1,2.51-.1l8,4.62c.64.37.56,1-.18,1.45l-7.93,4.58A2.82,2.82,0,0,1,455.93,298.65Z"/><path class="cls-110" d="M506.31,327.74l-8-4.62c-.64-.38-.56-1,.18-1.45l7.94-4.58a2.79,2.79,0,0,1,2.51-.11l8,4.63c.64.37.56,1-.18,1.44l-7.93,4.58A2.79,2.79,0,0,1,506.31,327.74Z"/><path class="cls-110" d="M518.68,334.88l-8-4.63c-.64-.37-.56-1,.18-1.44l7.93-4.58a2.79,2.79,0,0,1,2.51-.11l8,4.62c.64.38.56,1-.18,1.45l-7.94,4.58A2.77,2.77,0,0,1,518.68,334.88Z"/><path class="cls-110" d="M531,342l-8-4.63c-.64-.37-.56-1,.18-1.44l7.94-4.59a2.8,2.8,0,0,1,2.5-.1l8,4.62c.64.37.56,1-.18,1.45l-7.93,4.58A2.79,2.79,0,0,1,531,342Z"/><path class="cls-110" d="M543.4,349.15l-8-4.62c-.64-.37-.56-1,.18-1.45l7.93-4.58a2.82,2.82,0,0,1,2.51-.1l8,4.62c.64.37.56,1-.18,1.45l-7.94,4.58A2.76,2.76,0,0,1,543.4,349.15Z"/><path class="cls-110" d="M555.77,356.29l-8-4.62c-.64-.37-.56-1,.18-1.45l7.94-4.58a2.77,2.77,0,0,1,2.5-.1l8,4.62c.64.37.56,1-.18,1.45l-7.93,4.58A2.79,2.79,0,0,1,555.77,356.29Z"/><path class="cls-110" d="M568.13,363.43l-8-4.62c-.65-.37-.56-1,.18-1.45l7.93-4.58a2.79,2.79,0,0,1,2.51-.1l8,4.62c.64.37.56,1-.18,1.45l-7.94,4.58A2.79,2.79,0,0,1,568.13,363.43Z"/><path class="cls-110" d="M580.5,370.57l-8-4.62c-.64-.37-.56-1,.18-1.45l7.94-4.58a2.77,2.77,0,0,1,2.5-.1l8,4.62c.64.37.56,1-.18,1.45L583,370.47A2.79,2.79,0,0,1,580.5,370.57Z"/><path class="cls-110" d="M592.86,377.71l-8-4.62c-.65-.37-.56-1,.18-1.45l7.93-4.58a2.76,2.76,0,0,1,2.51-.1l8,4.62c.64.37.56,1-.18,1.45l-7.94,4.58A2.82,2.82,0,0,1,592.86,377.71Z"/><path class="cls-110" d="M605.23,384.85l-8-4.62c-.64-.37-.56-1,.18-1.45l7.94-4.58a2.77,2.77,0,0,1,2.5-.11l8,4.63c.64.37.56,1-.18,1.44l-7.93,4.59A2.82,2.82,0,0,1,605.23,384.85Z"/><path class="cls-110" d="M487.43,302.94l-8-4.62c-.64-.37-.56-1,.18-1.45l7.93-4.58a2.79,2.79,0,0,1,2.51-.1l8,4.62c.64.37.56,1-.18,1.45l-7.94,4.58A2.79,2.79,0,0,1,487.43,302.94Z"/><path class="cls-110" d="M475.13,295.84l-8-4.62c-.64-.38-.56-1,.18-1.45l7.94-4.58a2.79,2.79,0,0,1,2.51-.11l8,4.63c.65.37.57,1-.18,1.44l-7.93,4.58A2.79,2.79,0,0,1,475.13,295.84Z"/><path class="cls-110" d="M462.83,288.74l-8-4.63c-.64-.37-.56-1,.18-1.45l7.93-4.58a2.82,2.82,0,0,1,2.51-.1l8,4.62c.64.37.56,1-.18,1.45l-7.93,4.58A2.79,2.79,0,0,1,462.83,288.74Z"/><path class="cls-110" d="M450.52,281.63l-8-4.62c-.64-.37-.56-1,.18-1.45l7.93-4.58a2.79,2.79,0,0,1,2.51-.1l8,4.62c.64.37.56,1-.18,1.45L453,281.53A2.79,2.79,0,0,1,450.52,281.63Z"/><path class="cls-110" d="M463.18,274.33l-8-4.62c-.64-.38-.56-1,.18-1.45l2.62-1.52a2.79,2.79,0,0,1,2.51-.1l8,4.62c.64.37.56,1-.18,1.45l-2.63,1.51A2.77,2.77,0,0,1,463.18,274.33Z"/><path class="cls-110" d="M479.23,283.6l-8-4.63c-.65-.37-.57-1,.18-1.44L474,276a2.79,2.79,0,0,1,2.51-.1l8,4.62c.65.37.57,1-.18,1.45l-2.62,1.51A2.79,2.79,0,0,1,479.23,283.6Z"/><path class="cls-110" d="M491.48,290.67l-8-4.62c-.65-.37-.56-1,.18-1.45l2.62-1.51a2.79,2.79,0,0,1,2.51-.11l8,4.63c.65.37.57,1-.18,1.44L494,290.57A2.79,2.79,0,0,1,491.48,290.67Z"/><path class="cls-110" d="M503.74,297.75l-8-4.63c-.64-.37-.56-1,.18-1.45l2.62-1.51a2.79,2.79,0,0,1,2.51-.1l8,4.62c.64.37.56,1-.18,1.45l-2.63,1.51A2.77,2.77,0,0,1,503.74,297.75Z"/><path class="cls-110" d="M516,304.82l-8-4.62c-.64-.38-.56-1,.18-1.45l2.62-1.52a2.82,2.82,0,0,1,2.51-.1l8,4.62c.64.37.56,1-.18,1.45l-2.62,1.51A2.79,2.79,0,0,1,516,304.82Z"/><path class="cls-110" d="M584.39,344.31l-8-4.62c-.64-.37-.56-1,.18-1.45l2.63-1.51a2.77,2.77,0,0,1,2.5-.11l8,4.62c.64.38.56,1-.18,1.45l-2.62,1.52A2.82,2.82,0,0,1,584.39,344.31Z"/><path class="cls-110" d="M596.64,351.38l-8-4.62c-.64-.37-.56-1,.18-1.45l2.63-1.51a2.76,2.76,0,0,1,2.51-.1l8,4.62c.65.37.56,1-.18,1.45l-2.62,1.51A2.76,2.76,0,0,1,596.64,351.38Z"/><path class="cls-110" d="M608.89,358.46l-8-4.63c-.65-.37-.57-1,.18-1.44l2.62-1.52a2.79,2.79,0,0,1,2.51-.1l8,4.62c.65.37.57,1-.18,1.45l-2.62,1.51A2.79,2.79,0,0,1,608.89,358.46Z"/><path class="cls-110" d="M621.15,365.53l-8-4.62c-.64-.37-.56-1,.18-1.45l2.62-1.51a2.79,2.79,0,0,1,2.51-.11l8,4.63c.64.37.56,1-.18,1.44l-2.63,1.52A2.77,2.77,0,0,1,621.15,365.53Z"/><path class="cls-110" d="M499.8,310.08l-8-4.62c-.64-.37-.56-1,.18-1.45l7.94-4.58a2.74,2.74,0,0,1,2.5-.1l8,4.62c.64.37.56,1-.18,1.45L502.31,310A2.79,2.79,0,0,1,499.8,310.08Z"/><path class="cls-110" d="M512.16,317.22l-8-4.62c-.65-.37-.56-1,.18-1.45l7.93-4.58a2.79,2.79,0,0,1,2.51-.11l8,4.63c.64.37.56,1-.18,1.45l-7.94,4.58A2.82,2.82,0,0,1,512.16,317.22Z"/><path class="cls-110" d="M524.53,324.36l-8-4.62c-.64-.38-.56-1,.18-1.45l7.94-4.58a2.77,2.77,0,0,1,2.5-.11l8,4.63c.64.37.56,1-.18,1.44L527,324.25A2.79,2.79,0,0,1,524.53,324.36Z"/><path class="cls-110" d="M536.89,331.5l-8-4.63c-.65-.37-.56-1,.18-1.44l7.93-4.58a2.79,2.79,0,0,1,2.51-.11l8,4.63c.64.37.56,1-.18,1.44l-7.94,4.58A2.79,2.79,0,0,1,536.89,331.5Z"/><path class="cls-110" d="M549.26,338.64l-8-4.63c-.64-.37-.56-1,.18-1.44l7.94-4.58a2.77,2.77,0,0,1,2.5-.11l8,4.62c.64.38.56,1-.18,1.45l-7.93,4.58A2.79,2.79,0,0,1,549.26,338.64Z"/><path class="cls-110" d="M561.62,345.78l-8-4.63c-.65-.37-.57-1,.18-1.45l7.93-4.58a2.82,2.82,0,0,1,2.51-.1l8,4.62c.64.37.56,1-.18,1.45l-7.94,4.58A2.79,2.79,0,0,1,561.62,345.78Z"/><path class="cls-110" d="M574,352.91l-8-4.62c-.64-.37-.56-1,.18-1.45l7.94-4.58a2.77,2.77,0,0,1,2.5-.1l8,4.62c.64.37.56,1-.18,1.45l-7.93,4.58A2.76,2.76,0,0,1,574,352.91Z"/><path class="cls-110" d="M586.35,360.05l-8-4.62c-.65-.37-.57-1,.18-1.45l7.93-4.58a2.79,2.79,0,0,1,2.51-.1l8,4.62c.65.37.57,1-.18,1.45L588.86,360A2.79,2.79,0,0,1,586.35,360.05Z"/><path class="cls-110" d="M598.72,367.19l-8-4.62c-.64-.37-.56-1,.18-1.45l7.93-4.58a2.79,2.79,0,0,1,2.51-.1l8,4.62c.64.37.56,1-.18,1.45l-7.93,4.58A2.79,2.79,0,0,1,598.72,367.19Z"/><path class="cls-110" d="M429.11,311l-23.58-13.61c-.65-.37-.57-1,.18-1.45l7.93-4.58a2.76,2.76,0,0,1,2.51-.1l23.58,13.61c.64.37.56,1-.18,1.45l-7.93,4.58A2.79,2.79,0,0,1,429.11,311Z"/><path class="cls-110" d="M581,398.66l-23.58-13.61c-.64-.37-.56-1,.18-1.45l7.94-4.58a2.77,2.77,0,0,1,2.5-.1l23.58,13.61c.65.37.57,1-.18,1.45l-7.93,4.58A2.76,2.76,0,0,1,581,398.66Z"/><path class="cls-110" d="M531.56,385.88l-8-4.62c-.65-.37-.56-1,.18-1.45l9.45-5.45a2.79,2.79,0,0,1,2.51-.11l8,4.63c.65.37.57,1-.18,1.44l-9.45,5.46A2.76,2.76,0,0,1,531.56,385.88Z"/><path class="cls-110" d="M441.77,334,429,326.65c-.65-.37-.57-1,.18-1.45l9.45-5.46a2.8,2.8,0,0,1,2.5-.1L453.91,327c.64.37.56,1-.18,1.45l-9.45,5.46A2.79,2.79,0,0,1,441.77,334Z"/><path class="cls-110" d="M519.65,379l-12.8-7.4c-.65-.37-.57-1,.18-1.45l9.45-5.45a2.77,2.77,0,0,1,2.5-.11l12.81,7.4c.64.37.56,1-.18,1.45l-9.45,5.45A2.79,2.79,0,0,1,519.65,379Z"/><path class="cls-110" d="M459.61,344.34,446.81,337c-.65-.37-.57-1,.18-1.45l9.45-5.46a2.8,2.8,0,0,1,2.5-.1l12.81,7.39c.64.37.56,1-.18,1.45l-9.45,5.46A2.79,2.79,0,0,1,459.61,344.34Z"/><path class="cls-110" d="M459,330l55.67,32.14a.77.77,0,0,1,0,1.45l-9.63,5.56a2.78,2.78,0,0,1-2.51,0L446.89,337Z"/><path class="cls-110" d="M566.12,398.83,575,404c.53.3.46.83-.15,1.18L571,407.4a2.28,2.28,0,0,1-2.06.08l-8.92-5.15c-.52-.3-.46-.83.15-1.18l3.87-2.24A2.26,2.26,0,0,1,566.12,398.83Z"/><path class="cls-110" d="M553.65,391.63l8.92,5.15c.53.3.46.83-.14,1.19l-3.87,2.23a2.28,2.28,0,0,1-2.06.08l-8.92-5.15c-.52-.3-.46-.83.15-1.18l3.87-2.24A2.29,2.29,0,0,1,553.65,391.63Z"/><path class="cls-110" d="M541.29,384.49l8.92,5.15c.53.3.46.84-.15,1.19l-3.87,2.23a2.26,2.26,0,0,1-2.05.08L535.22,388c-.53-.31-.46-.84.15-1.19l3.86-2.23A2.28,2.28,0,0,1,541.29,384.49Z"/><path class="cls-110" d="M560.48,387.69l8.92,5.15c.53.3.46.83-.15,1.18l-3.86,2.24a2.28,2.28,0,0,1-2.06.08l-8.92-5.15c-.52-.3-.46-.83.15-1.19l3.87-2.23A2.26,2.26,0,0,1,560.48,387.69Z"/></g><path class="cls-111" d="M691.34,373.25,455.12,236.86c-3.71-2.14-5.65-7.37-4.33-11.67L504.21,51.74c1.32-4.3,5.41-6.05,9.12-3.9L749.56,184.22c3.71,2.15,5.65,7.37,4.33,11.67L700.47,369.34C699.14,373.64,695.06,375.39,691.34,373.25Z"/><path class="cls-112" d="M689.12,367.17,460,234.78a10,10,0,0,1-4.14-11.17L506.92,57.79c1.27-4.11,5.18-5.79,8.73-3.73L744.77,186.45c3.56,2.05,5.41,7.05,4.15,11.17L697.85,363.43C696.58,367.55,692.67,369.22,689.12,367.17Z"/><path class="cls-113" d="M689.12,367.17,460,234.78a10,10,0,0,1-4.14-11.17L506.92,57.79c1.27-4.11,5.18-5.79,8.73-3.73L744.77,186.45c3.56,2.05,5.41,7.05,4.15,11.17L697.85,363.43C696.58,367.55,692.67,369.22,689.12,367.17Z"/><path class="cls-113" d="M689.12,367.17,460,234.78a10,10,0,0,1-4.14-11.17L506.92,57.79c1.27-4.11,5.18-5.79,8.73-3.73L744.77,186.45c3.56,2.05,5.41,7.05,4.15,11.17L697.85,363.43C696.58,367.55,692.67,369.22,689.12,367.17Z"/><path class="cls-114" d="M676.81,316.5,521.7,227a6.86,6.86,0,0,1-2.84-7.66L553.93,105.4c.87-2.83,3.56-4,6-2.57L715,192.38a6.87,6.87,0,0,1,2.84,7.67L682.8,313.93C681.93,316.76,679.25,317.91,676.81,316.5Z"/><path class="cls-115" d="M655.85,319.25,500.75,229.7A6.88,6.88,0,0,1,497.9,222L533,108.15c.87-2.83,3.55-4,6-2.57l155.1,89.55a6.89,6.89,0,0,1,2.85,7.67L661.84,316.68C661,319.51,658.29,320.66,655.85,319.25Z"/><g class="cls-116"><path class="cls-110" d="M655.85,319.25,500.75,229.7A6.88,6.88,0,0,1,497.9,222L533,108.15c.87-2.83,3.55-4,6-2.57l155.1,89.55a6.89,6.89,0,0,1,2.85,7.67L661.84,316.68C661,319.51,658.29,320.66,655.85,319.25Z"/></g><path class="cls-108" d="M694.07,195.13,539,105.58a3.87,3.87,0,0,0-4.37.15,4.2,4.2,0,0,1,2.24.58L692,195.86a6.85,6.85,0,0,1,2.84,7.66L659.71,317.41a4.66,4.66,0,0,1-1.62,2.41,4.11,4.11,0,0,0,3.75-3.14L696.92,202.8A6.89,6.89,0,0,0,694.07,195.13Z"/><path class="cls-113" d="M460.23,412.25a11.69,11.69,0,0,1-5.75-1.35h0L392.34,375a4.49,4.49,0,0,1-2.56-3.82c0-1.77,1.25-3.5,3.43-4.75l32-18.47c3.91-2.26,9.64-2.48,13.06-.51l62.14,35.88a4.49,4.49,0,0,1,2.56,3.83c0,1.76-1.25,3.49-3.43,4.75l-32,18.47A15,15,0,0,1,460.23,412.25Zm-27.68-64.31a13.28,13.28,0,0,0-6.45,1.59l-32,18.47c-1.61.93-2.53,2.09-2.53,3.2a2.85,2.85,0,0,0,1.65,2.27l62.15,35.88c2.82,1.62,8,1.39,11.27-.51l32-18.47c1.61-.92,2.53-2.09,2.53-3.19a2.82,2.82,0,0,0-1.65-2.27L437.37,349A9.89,9.89,0,0,0,432.55,347.94Z"/><path class="cls-108" d="M576.75,165.33l-9.59-5.53a2.51,2.51,0,0,1-1.07-2.76h0a1.43,1.43,0,0,1,2.16-.9l9.59,5.54a2.49,2.49,0,0,1,1.06,2.75h0A1.41,1.41,0,0,1,576.75,165.33Z"/><path class="cls-108" d="M599.59,178.52l-14.14-8.16a2.51,2.51,0,0,1-1.07-2.76h0a1.43,1.43,0,0,1,2.16-.9l14.14,8.17a2.49,2.49,0,0,1,1.06,2.75h0A1.42,1.42,0,0,1,599.59,178.52Z"/><path class="cls-108" d="M557.41,208l-9.59-5.53a2.51,2.51,0,0,1-1.07-2.76h0a1.43,1.43,0,0,1,2.16-.9l9.59,5.54a2.5,2.5,0,0,1,1.06,2.76h0A1.41,1.41,0,0,1,557.41,208Z"/><path class="cls-108" d="M577.77,219.78l-14.14-8.16a2.51,2.51,0,0,1-1.07-2.76h0a1.43,1.43,0,0,1,2.16-.9l14.14,8.17a2.47,2.47,0,0,1,1.06,2.75h0A1.42,1.42,0,0,1,577.77,219.78Z"/><path class="cls-108" d="M548,157.72l-6-3.45a2.49,2.49,0,0,1-1.06-2.76h0a1.42,1.42,0,0,1,2.15-.9l6,3.46a2.51,2.51,0,0,1,1.07,2.76h0A1.42,1.42,0,0,1,548,157.72Z"/><path class="cls-108" d="M566.05,177.11l-18.31-10.57a2.5,2.5,0,0,1-1.06-2.76h0a1.41,1.41,0,0,1,2.15-.89l18.31,10.56a2.51,2.51,0,0,1,1.06,2.76h0A1.42,1.42,0,0,1,566.05,177.11Z"/><path class="cls-108" d="M549.17,185.31l-6-3.46a2.49,2.49,0,0,1-1.07-2.75h0a1.43,1.43,0,0,1,2.16-.9l6,3.46a2.5,2.5,0,0,1,1.06,2.76h0A1.41,1.41,0,0,1,549.17,185.31Z"/><path class="cls-108" d="M580,239l-16-9.24a2.51,2.51,0,0,1-1.07-2.76h0a1.43,1.43,0,0,1,2.16-.9l16,9.24a2.51,2.51,0,0,1,1.06,2.76h0A1.42,1.42,0,0,1,580,239Z"/><path class="cls-108" d="M542.45,199.39l-3.84-2.22a2.51,2.51,0,0,1-1.07-2.76h0a1.43,1.43,0,0,1,2.16-.9l3.84,2.22a2.51,2.51,0,0,1,1.07,2.76h0A1.43,1.43,0,0,1,542.45,199.39Z"/><path class="cls-108" d="M538.81,215.24,534,212.48a2.49,2.49,0,0,1-1.07-2.75h0a1.43,1.43,0,0,1,2.16-.9l4.77,2.76a2.49,2.49,0,0,1,1.07,2.75h0A1.43,1.43,0,0,1,538.81,215.24Z"/><path class="cls-108" d="M557.39,226,544.8,218.7a2.51,2.51,0,0,1-1.07-2.76h0a1.43,1.43,0,0,1,2.16-.9l12.59,7.27a2.51,2.51,0,0,1,1.07,2.76h0A1.43,1.43,0,0,1,557.39,226Z"/><path class="cls-108" d="M540.81,225.37l-9.06-5.23a2.5,2.5,0,0,1-1.06-2.76h0a1.41,1.41,0,0,1,2.15-.89l9.06,5.22a2.51,2.51,0,0,1,1.06,2.76h0A1.42,1.42,0,0,1,540.81,225.37Z"/><path class="cls-108" d="M593.7,247l-5.81-3.36a2.49,2.49,0,0,1-1.07-2.75h0A1.43,1.43,0,0,1,589,240l5.81,3.36a2.49,2.49,0,0,1,1.07,2.75h0A1.43,1.43,0,0,1,593.7,247Z"/><path class="cls-108" d="M571.45,198.18l-16-9.24a2.51,2.51,0,0,1-1.07-2.76h0a1.42,1.42,0,0,1,2.16-.89l16,9.23a2.49,2.49,0,0,1,1.06,2.76h0A1.42,1.42,0,0,1,571.45,198.18Z"/><path class="cls-117" d="M573.34,190.3l-27.88-16.1a2.51,2.51,0,0,1-1.07-2.76h0a1.43,1.43,0,0,1,2.16-.9l27.89,16.1a2.52,2.52,0,0,1,1.06,2.76h0A1.43,1.43,0,0,1,573.34,190.3Z"/><path class="cls-117" d="M556.89,198.75l-16-9.24a2.49,2.49,0,0,1-1.06-2.76h0a1.41,1.41,0,0,1,2.15-.89l16,9.23a2.51,2.51,0,0,1,1.07,2.76h0A1.43,1.43,0,0,1,556.89,198.75Z"/><path class="cls-117" d="M583.58,205.18l-5.81-3.35a2.51,2.51,0,0,1-1.07-2.76h0a1.43,1.43,0,0,1,2.16-.9l5.81,3.36a2.51,2.51,0,0,1,1.07,2.76h0A1.42,1.42,0,0,1,583.58,205.18Z"/><path class="cls-117" d="M642.71,203.42l-34.42-19.88a2.49,2.49,0,0,1-1.07-2.75h0a1.43,1.43,0,0,1,2.16-.9l34.42,19.87a2.51,2.51,0,0,1,1.07,2.76h0A1.43,1.43,0,0,1,642.71,203.42Z"/><path class="cls-118" d="M555.55,215.93l-19.23-11.1a2.51,2.51,0,0,1-1.06-2.76h0a1.42,1.42,0,0,1,2.15-.9l19.24,11.11a2.5,2.5,0,0,1,1.06,2.75h0A1.43,1.43,0,0,1,555.55,215.93Z"/><path class="cls-118" d="M558.45,154.77l-14.13-8.16a2.51,2.51,0,0,1-1.07-2.76h0a1.43,1.43,0,0,1,2.16-.9l14.14,8.17a2.51,2.51,0,0,1,1.06,2.75h0A1.42,1.42,0,0,1,558.45,154.77Z"/><path class="cls-117" d="M537.85,232.64l-16.38-9.46a2.5,2.5,0,0,1-1.06-2.76h0a1.41,1.41,0,0,1,2.15-.89L538.94,229a2.49,2.49,0,0,1,1.06,2.76h0A1.42,1.42,0,0,1,537.85,232.64Z"/><path class="cls-108" d="M646.58,185.71l-7-4a1.84,1.84,0,0,1-.78-2h0a1,1,0,0,1,1.58-.65l7,4a1.83,1.83,0,0,1,.77,2h0A1,1,0,0,1,646.58,185.71Z"/><path class="cls-108" d="M660,193.43l-7-4a1.84,1.84,0,0,1-.78-2h0a1,1,0,0,1,1.58-.65l7,4a1.84,1.84,0,0,1,.78,2h0A1,1,0,0,1,660,193.43Z"/><path class="cls-108" d="M673.32,201.15l-7-4a1.84,1.84,0,0,1-.78-2h0a1,1,0,0,1,1.58-.66l7,4a1.84,1.84,0,0,1,.78,2h0A1,1,0,0,1,673.32,201.15Z"/><path class="cls-118" d="M679.89,205l-.21-.13a1.82,1.82,0,0,1-.78-2h0a1,1,0,0,1,1.57-.66l.22.13a1.83,1.83,0,0,1,.77,2h0A1,1,0,0,1,679.89,205Z"/><path class="cls-119" d="M318.13,287a25.63,25.63,0,0,1-12.83-3.43h0l-46.95-27.11a6.5,6.5,0,0,1,0-11.26l46.95-27.11a25.75,25.75,0,0,1,25.66,0l47,27.11a6.5,6.5,0,0,1,0,11.26l-47,27.11A25.57,25.57,0,0,1,318.13,287Zm-11.3-6.08a22.63,22.63,0,0,0,22.6,0l47-27.1a3.45,3.45,0,0,0,0-6l-47-27.11a22.66,22.66,0,0,0-22.6,0l-46.95,27.11a3.44,3.44,0,0,0,0,6Z"/><ellipse class="cls-103" cx="317.89" cy="251.45" rx="32.25" ry="18.62"/><path class="cls-120" d="M365.7,118.74H273.84l8.55,99.46h0c0,5.52,3.65,11.05,10.95,15.26,14.6,8.43,38.27,8.43,52.87,0,7.3-4.21,11-9.74,11-15.26Z"/><path class="cls-113" d="M365.7,118.74H273.84l1.41,16.37a35.89,35.89,0,0,0,8.51,7.66c17.55,11.64,46.52,13.88,66.28,5.5L347,221a14.28,14.28,0,0,1-3.28,8.67c-3,3.5-8.71,7.62-19.73,9.95,8.13-.52,16-2.57,22.24-6.17,7.3-4.21,11-9.74,11-15.26L364,138.44h0Z"/><ellipse class="cls-113" cx="319.77" cy="118.74" rx="45.93" ry="26.52"/><ellipse class="cls-113" cx="319.77" cy="109.4" rx="39.56" ry="22.84"/><path class="cls-121" d="M368.42,117.49h0v-.08s0-.09,0-.14l-.88-8.9,0,.1c-.39-6.74-5-13.41-13.94-18.56-18.65-10.76-48.89-10.76-67.53,0-9.14,5.28-13.79,12.16-14,19.07v0l-.84,7.93c0,.2-.05.41-.07.61v.13h0c-.51,7.55,4.23,15.2,14.22,21,19,11,49.85,11,68.87,0C364.26,132.81,369,125.1,368.42,117.49Z"/><ellipse class="cls-122" cx="319.77" cy="109.4" rx="39.56" ry="22.84"/><ellipse class="cls-123" cx="317.89" cy="109.4" rx="39.56" ry="22.84"/><path class="cls-113" d="M296.49,96.65c15.45-8.92,40.5-8.92,55.95,0,.19.11.36.24.55.35a31.12,31.12,0,0,0-5.25-3.75c-15.45-8.92-40.49-8.92-55.94,0-15.25,8.8-15.42,23-.55,31.94C281.32,116.34,283.06,104.4,296.49,96.65Z"/><path class="cls-124" d="M291.8,97.21c15.45-8.92,40.49-8.92,55.94,0,6.85,4,10.66,9,11.44,14.17,1-6.49-2.84-13.17-11.44-18.13-15.45-8.92-40.49-8.92-55.94,0-8.6,5-12.41,11.64-11.43,18.13C281.14,106.21,285,101.17,291.8,97.21Z"/><path class="cls-125" d="M353.83,90.13c-18.62-11-49-11.24-67.78-.6s-19,28.16-.34,39.13,49,11.24,67.78.6S372.45,101.1,353.83,90.13Zm-6.09,35.42a51.57,51.57,0,0,1-18,5.93l-.72-2.36a2.26,2.26,0,0,0-2.17-1.61h-14.2a2.26,2.26,0,0,0-2.17,1.61l-.71,2.36a51.56,51.56,0,0,1-18-5.93c-15.45-8.92-15.45-23.38,0-32.3s40.49-8.92,55.94,0S363.19,116.63,347.74,125.55Z"/><path class="cls-108" d="M347.74,91.56c-15.45-8.92-40.49-8.92-55.94,0-8.1,4.67-11.94,10.87-11.55,17,.35-5.56,4.2-11.06,11.55-15.3,15.45-8.92,40.49-8.92,55.94,0,7.36,4.24,11.2,9.74,11.56,15.3C359.69,102.43,355.84,96.23,347.74,91.56Z"/><path class="cls-108" d="M353.49,127.57c-18.81,10.64-49.16,10.37-67.78-.6-8.86-5.22-13.46-11.92-13.83-18.66-.37,7.3,4.23,14.7,13.83,20.35,18.62,11,49,11.24,67.78.6,9.86-5.58,14.58-13,14.17-20.47C367.32,115.65,362.6,122.42,353.49,127.57Z"/><rect class="cls-126" x="314.45" y="130.41" width="10.64" height="2.3" rx="0.65"/><path class="cls-127" d="M324,130.41h-8.49a1.07,1.07,0,0,0-1.08,1.07v.15a.94.94,0,0,0,.06.29,1.06,1.06,0,0,1,1-.79H324a1.06,1.06,0,0,1,1,.79.94.94,0,0,0,.06-.29v-.15A1.07,1.07,0,0,0,324,130.41Z"/><path class="cls-117" d="M321.07,208a7.34,7.34,0,1,1-14.18-3.77c1-3.91,4.73-5,8.65-4S322.11,204.07,321.07,208Z"/><path class="cls-117" d="M326.85,200.25a3.25,3.25,0,1,1-4.54-4.64c1.47-1.45,4.28-2.16,5.54-.88S328.33,198.81,326.85,200.25Z"/><path class="cls-117" d="M319.17,194.11a3.25,3.25,0,1,1-6.39-1.14c.36-2,2.23-4.24,4-3.93S319.54,192.08,319.17,194.11Z"/><path class="cls-117" d="M309.71,193.17a3.25,3.25,0,1,1-6,2.48c-.78-1.91-.39-4.79,1.27-5.47S308.93,191.26,309.71,193.17Z"/><path class="cls-128" d="M322.78,131.56s25.68-8.61,15.28-38.12-30.64-38.5-22.49-62.1c0,0-12.78,19.11-.83,45s14.56,22.89,14.42,35.25a22.32,22.32,0,0,1-12,20Z"/><path class="cls-128" d="M325.09,35.44S322.42,17.79,339,0c0,0-14.64,32.7-9.85,48.85C329.12,48.85,325.25,38.59,325.09,35.44Z"/></g></g></g></svg>