<svg width="50" height="50" viewBox="0 0 50 100" fill="none" xmlns="http://www.w3.org/2000/svg">
<rect y="25" width="50" height="50" rx="25" fill="#2B2830"/>
<path d="M22.0704 40.0484C18.4376 40.5172 15.611 43.2781 15.0813 46.8687C14.9782 47.5906 15.011 48.8328 15.1516 49.55C15.7797 52.6672 18.1844 55.1234 21.2735 55.8078C23.3407 56.2625 25.4688 55.8922 27.2735 54.7578C27.5079 54.6125 27.7376 54.4531 27.7891 54.4015C27.8782 54.3125 27.9016 54.3359 30.6719 57.0968C33.7094 60.1297 33.5735 60.0125 34.0938 59.975C34.586 59.9375 34.9376 59.5859 34.9751 59.0937C35.0126 58.5734 35.1297 58.7093 32.1016 55.6718L29.3219 52.8828L29.486 52.6718C29.7626 52.3156 30.1657 51.5937 30.3766 51.0781C30.7657 50.1172 30.9391 49.3343 30.986 48.3359C31.1735 44.2578 28.1922 40.6672 24.1329 40.0859C23.7063 40.025 22.436 40.0015 22.0704 40.0484ZM23.6032 42.0359C24.5126 42.1343 25.4079 42.4343 26.1344 42.889C26.5938 43.175 26.7813 43.325 27.236 43.775C27.911 44.4406 28.4032 45.2375 28.6985 46.1375C29.1157 47.4125 29.0735 48.964 28.5907 50.1781C27.9766 51.725 26.6829 53.014 25.1407 53.6093C24.2454 53.9515 22.9985 54.0734 22.0422 53.914C20.7766 53.7031 19.661 53.1312 18.7751 52.2359C18.1563 51.6078 17.8094 51.1062 17.4907 50.3703C16.5954 48.289 16.9516 45.8937 18.4141 44.15C19.5251 42.8234 21.1469 42.0453 22.9235 41.989C23.0313 41.989 23.3407 42.0078 23.6032 42.0359Z" fill="#C0BCCA"/>
</svg>
