<svg width="50" height="100" viewBox="0 0 50 100" fill="none" xmlns="http://www.w3.org/2000/svg">
<rect y="25" width="50" height="50" rx="25" fill="#2B2830"/>
<g clip-path="url(#clip0_155_184)">
<path d="M17.7969 49.985C17.8044 46.0076 21.0525 42.782 25.03 42.797C28.9924 42.8121 32.2104 46.0452 32.2029 50.0151C32.1954 53.9925 28.9473 57.2181 24.9698 57.2031C21.0074 57.188 17.7894 53.9549 17.7969 49.985ZM29.7969 50.0001C29.7969 47.3459 27.6691 45.2106 25.0149 45.2031C22.3533 45.1955 20.2029 47.3384 20.2104 50.0001C20.2104 52.6542 22.3458 54.7895 24.9924 54.797C27.654 54.8046 29.7969 52.6617 29.7969 50.0001Z" fill="#C0BCCA"/>
<path d="M16.1504 42.4962C16.1729 41.8721 16.391 41.4962 16.8346 41.2857C17.2782 41.0676 17.7218 41.1052 18.0978 41.4285C18.4662 41.7443 18.812 42.0902 19.1278 42.4586C19.5414 42.9323 19.4887 43.624 19.0451 44.0601C18.609 44.4887 17.9323 44.5413 17.4662 44.1428C17.0902 43.8195 16.7369 43.4661 16.4211 43.0902C16.2632 42.8947 16.2105 42.624 16.1504 42.4962Z" fill="#C0BCCA"/>
<path d="M33.8345 42.3534C33.8345 42.6767 33.7217 42.9624 33.4962 43.188C33.2104 43.4812 32.9247 43.7819 32.624 44.0601C32.1202 44.5263 31.3984 44.5188 30.9322 44.0451C30.4736 43.5789 30.4661 42.8646 30.9247 42.3759C31.218 42.0601 31.5187 41.7519 31.842 41.4661C32.218 41.1278 32.654 41.0677 33.1202 41.2707C33.5638 41.4586 33.8345 41.8797 33.8345 42.3534Z" fill="#C0BCCA"/>
<path d="M17.4963 58.8497C16.8722 58.8196 16.5038 58.6091 16.2857 58.1805C16.0677 57.7444 16.0902 57.2933 16.406 56.9174C16.7218 56.5414 17.0827 56.188 17.4511 55.8647C17.9248 55.4512 18.6166 55.5113 19.0526 55.9549C19.4812 56.391 19.5263 57.0752 19.1203 57.5414C18.8045 57.9098 18.4587 58.2557 18.0827 58.5715C17.9023 58.7294 17.6241 58.7895 17.4963 58.8497Z" fill="#C0BCCA"/>
<path d="M33.8496 57.5037C33.8195 58.1353 33.6015 58.5113 33.1578 58.7218C32.7142 58.9323 32.2706 58.8947 31.8947 58.5714C31.5263 58.2556 31.1804 57.9098 30.8646 57.5413C30.4586 57.0752 30.5112 56.391 30.9398 55.9624C31.3759 55.5188 32.0676 55.4586 32.5413 55.8722C32.9097 56.188 33.2556 56.5338 33.5639 56.9098C33.7293 57.0977 33.7894 57.3759 33.8496 57.5037Z" fill="#C0BCCA"/>
<path d="M26.1955 39.8045C26.1955 40.0226 26.203 40.2331 26.1955 40.4511C26.1654 41.0977 25.6466 41.594 25.0075 41.6015C24.3684 41.6015 23.8346 41.1053 23.8121 40.4662C23.797 40.015 23.797 39.5639 23.8121 39.1203C23.8346 38.4812 24.3609 38 24.9925 38C25.6316 38 26.1504 38.4737 26.188 39.1053C26.203 39.3383 26.188 39.5714 26.1955 39.8045C26.188 39.8045 26.188 39.8045 26.1955 39.8045Z" fill="#C0BCCA"/>
<path d="M14.7895 51.1955C14.5714 51.1955 14.3609 51.203 14.1429 51.1955C13.4887 51.1654 13 50.6542 13 50.0075C13 49.3609 13.4812 48.8346 14.1278 48.8121C14.5789 48.797 15.0301 48.797 15.4737 48.8121C16.0977 48.8346 16.594 49.3685 16.594 49.9925C16.6015 50.6166 16.1128 51.1504 15.4887 51.188C15.2556 51.203 15.0226 51.188 14.7895 51.1955Z" fill="#C0BCCA"/>
<path d="M35.2106 48.8045C35.4361 48.8045 35.6617 48.797 35.8872 48.8045C36.5188 48.8346 37 49.3534 37 49.9849C37 50.624 36.5263 51.1504 35.8948 51.1804C35.4361 51.203 34.9775 51.203 34.5188 51.1804C33.8948 51.1579 33.406 50.624 33.3985 50C33.391 49.3609 33.8948 48.8346 34.5339 48.8045C34.7669 48.797 34.985 48.8045 35.2106 48.8045Z" fill="#C0BCCA"/>
<path d="M26.1878 60.2106C26.1878 60.4361 26.1953 60.6617 26.1878 60.8872C26.1577 61.5188 25.6389 62 25.0073 62C24.3682 62 23.8419 61.5263 23.8118 60.8948C23.7893 60.4361 23.7893 59.9775 23.8118 59.5188C23.8344 58.8948 24.3682 58.406 24.9923 58.3985C25.6164 58.391 26.1502 58.8872 26.1878 59.5113C26.2028 59.7444 26.1878 59.9775 26.1878 60.2106Z" fill="#C0BCCA"/>
</g>
<defs>
<clipPath id="clip0_155_184">
<rect width="24" height="24" fill="white" transform="translate(13 38)"/>
</clipPath>
</defs>
</svg>
