<svg width="50" height="100" viewBox="0 0 50 100" fill="none" xmlns="http://www.w3.org/2000/svg">
<rect y="25" width="50" height="50" rx="25" fill="#2B2830"/>
<g clip-path="url(#clip0_155_177)">
<path d="M16.0047 44.8404C17.2864 44.8404 18.5493 44.8404 19.8357 44.8404C19.8357 43.554 19.8357 42.2817 19.8357 41C20.2723 41 20.6854 41 21.1268 41C21.1268 41.061 21.1268 41.1221 21.1268 41.1831C21.1268 42.5869 21.1268 43.9953 21.1268 45.3991C21.1268 45.8779 20.8779 46.1268 20.4038 46.1268C18.9906 46.1268 17.5822 46.1268 16.169 46.1268C16.1174 46.1268 16.0657 46.1268 16 46.1268C16.0047 45.6995 16.0047 45.2817 16.0047 44.8404Z" fill="#C0BCCA"/>
<path d="M33.9951 55.1597C32.7134 55.1597 31.4505 55.1597 30.1641 55.1597C30.1641 56.4461 30.1641 57.7184 30.1641 59.0001C29.7275 59.0001 29.3144 59.0001 28.873 59.0001C28.873 58.939 28.873 58.878 28.873 58.817C28.873 57.4132 28.873 56.0047 28.873 54.601C28.873 54.1221 29.1219 53.8733 29.5961 53.8733C31.0092 53.8733 32.4176 53.8733 33.8308 53.8733C33.8824 53.8733 33.9341 53.8733 33.9998 53.8733C33.9951 54.3005 33.9951 54.7184 33.9951 55.1597Z" fill="#C0BCCA"/>
<path d="M30.1594 41.0047C30.1594 42.2864 30.1594 43.5493 30.1594 44.8357C31.4458 44.8357 32.7181 44.8357 33.9998 44.8357C33.9998 45.2723 33.9998 45.6854 33.9998 46.1268C33.9388 46.1268 33.8777 46.1268 33.8167 46.1268C32.413 46.1268 31.0045 46.1268 29.6007 46.1268C29.1219 46.1268 28.873 45.8779 28.873 45.4038C28.873 43.9906 28.873 42.5822 28.873 41.169C28.873 41.1174 28.873 41.0657 28.873 41C29.3003 41.0047 29.7181 41.0047 30.1594 41.0047Z" fill="#C0BCCA"/>
<path d="M19.8404 58.9954C19.8404 57.7137 19.8404 56.4508 19.8404 55.1644C18.554 55.1644 17.2817 55.1644 16 55.1644C16 54.7278 16 54.3146 16 53.8733C16.061 53.8733 16.1221 53.8733 16.1831 53.8733C17.5869 53.8733 18.9953 53.8733 20.3991 53.8733C20.8779 53.8733 21.1268 54.1221 21.1268 54.5963C21.1268 56.0094 21.1268 57.4179 21.1268 58.831C21.1268 58.8827 21.1268 58.9343 21.1268 59.0001C20.6995 58.9954 20.2817 58.9954 19.8404 58.9954Z" fill="#C0BCCA"/>
</g>
<defs>
<clipPath id="clip0_155_177">
<rect width="18" height="18" fill="white" transform="translate(16 41)"/>
</clipPath>
</defs>
</svg>
