<svg width="50" height="100" viewBox="0 0 50 100" fill="none" xmlns="http://www.w3.org/2000/svg">
<rect y="25" width="50" height="50" rx="25" fill="#2B2830"/>
<g clip-path="url(#clip0_149_1558)">
<path d="M29.0047 57.8404C30.2864 57.8404 31.5493 57.8404 32.8357 57.8404C32.8357 56.554 32.8357 55.2817 32.8357 54C33.2723 54 33.6854 54 34.1268 54C34.1268 54.061 34.1268 54.1221 34.1268 54.1831C34.1268 55.5869 34.1268 56.9953 34.1268 58.3991C34.1268 58.8779 33.8779 59.1268 33.4038 59.1268C31.9906 59.1268 30.5822 59.1268 29.169 59.1268C29.1174 59.1268 29.0657 59.1268 29 59.1268C29.0047 58.6995 29.0047 58.2817 29.0047 57.8404Z" fill="#C0BCCA"/>
<path d="M21.1221 42.2864C19.8404 42.2864 18.5775 42.2864 17.2911 42.2864C17.2911 43.5728 17.2911 44.8451 17.2911 46.1268C16.8545 46.1268 16.4413 46.1268 16 46.1268C16 46.0657 16 46.0047 16 45.9437C16 44.5399 16 43.1315 16 41.7277C16 41.2488 16.2488 41 16.723 41C18.1362 41 19.5446 41 20.9577 41C21.0094 41 21.061 41 21.1268 41C21.1221 41.4272 21.1221 41.8451 21.1221 42.2864Z" fill="#C0BCCA"/>
<path d="M17.2864 54.0047C17.2864 55.2864 17.2864 56.5493 17.2864 57.8357C18.5728 57.8357 19.8451 57.8357 21.1268 57.8357C21.1268 58.2723 21.1268 58.6854 21.1268 59.1268C21.0657 59.1268 21.0047 59.1268 20.9437 59.1268C19.5399 59.1268 18.1315 59.1268 16.7277 59.1268C16.2488 59.1268 16 58.8779 16 58.4038C16 56.9906 16 55.5822 16 54.169C16 54.1174 16 54.0657 16 54C16.4272 54.0047 16.8451 54.0047 17.2864 54.0047Z" fill="#C0BCCA"/>
<path d="M32.8404 46.1221C32.8404 44.8404 32.8404 43.5775 32.8404 42.2911C31.554 42.2911 30.2817 42.2911 29 42.2911C29 41.8545 29 41.4413 29 41C29.061 41 29.1221 41 29.1831 41C30.5869 41 31.9953 41 33.3991 41C33.8779 41 34.1268 41.2488 34.1268 41.723C34.1268 43.1362 34.1268 44.5446 34.1268 45.9577C34.1268 46.0094 34.1268 46.061 34.1268 46.1268C33.6995 46.1221 33.2817 46.1221 32.8404 46.1221Z" fill="#C0BCCA"/>
</g>
<defs>
<clipPath id="clip0_149_1558">
<rect width="18" height="18" fill="white" transform="translate(16 41)"/>
</clipPath>
</defs>
</svg>
