<svg width="14" height="14" viewBox="0 0 14 14" fill="none" xmlns="http://www.w3.org/2000/svg">
<g clip-path="url(#clip0_144_126)">
<path d="M6.99375 0.191407C3.12969 0.189844 0 3.31797 0 7.17891C0 10.232 1.95781 12.8273 4.68438 13.7805C5.05156 13.8727 4.99531 13.6117 4.99531 13.4336V12.2227C2.875 12.4711 2.78906 11.068 2.64688 10.8336C2.35938 10.343 1.67969 10.218 1.88281 9.98359C2.36563 9.73516 2.85781 10.0461 3.42813 10.8883C3.84063 11.4992 4.64531 11.3961 5.05313 11.2945C5.14219 10.9273 5.33281 10.5992 5.59531 10.3445C3.39844 9.95078 2.48281 8.61016 2.48281 7.01641C2.48281 6.24297 2.7375 5.53203 3.2375 4.95859C2.91875 4.01328 3.26719 3.20391 3.31406 3.08359C4.22188 3.00234 5.16563 3.73359 5.23906 3.79141C5.75469 3.65234 6.34375 3.57891 7.00313 3.57891C7.66563 3.57891 8.25625 3.65547 8.77656 3.79609C8.95313 3.66172 9.82813 3.03359 10.6719 3.11016C10.7172 3.23047 11.0578 4.0211 10.7578 4.95391C11.2641 5.52891 11.5219 6.2461 11.5219 7.0211C11.5219 8.61797 10.6 9.96016 8.39688 10.3477C8.58558 10.5332 8.73541 10.7546 8.83763 10.9987C8.93984 11.2428 8.99238 11.5049 8.99219 11.7695V13.5273C9.00469 13.668 8.99219 13.807 9.22656 13.807C11.9938 12.8742 13.9859 10.2602 13.9859 7.18047C13.9859 3.31797 10.8547 0.191407 6.99375 0.191407Z" fill="#F9F9F9"/>
</g>
<defs>
<clipPath id="clip0_144_126">
<rect width="14" height="14" fill="white"/>
</clipPath>
</defs>
</svg>
