<svg width="16" height="14" viewBox="0 0 16 14" fill="none" xmlns="http://www.w3.org/2000/svg">
<path d="M7.87636 4.42105L10.1818 6.74947V6.63158C10.1818 6.04531 9.95195 5.48305 9.54278 5.0685C9.13361 4.65395 8.57865 4.42105 8 4.42105H7.87636ZM4.74909 5.01053L5.87636 6.15263C5.84 6.30737 5.81818 6.46211 5.81818 6.63158C5.81818 7.21785 6.04805 7.7801 6.45722 8.19466C6.86639 8.60921 7.42135 8.8421 8 8.8421C8.16 8.8421 8.32 8.82 8.47273 8.78316L9.6 9.92526C9.11273 10.1684 8.57455 10.3158 8 10.3158C7.03558 10.3158 6.11065 9.92763 5.4287 9.23671C4.74675 8.54579 4.36364 7.60869 4.36364 6.63158C4.36364 6.04947 4.50909 5.50421 4.74909 5.01053ZM0.727273 0.935789L2.38545 2.61579L2.71273 2.94737C1.51273 3.90526 0.567273 5.15789 0 6.63158C1.25818 9.86632 4.36364 12.1579 8 12.1579C9.12727 12.1579 10.2036 11.9368 11.1855 11.5389L11.4982 11.8484L13.6218 14L14.5455 13.0642L1.65091 0M8 2.94737C8.96442 2.94737 9.88935 3.33553 10.5713 4.02645C11.2532 4.71737 11.6364 5.65447 11.6364 6.63158C11.6364 7.10316 11.5418 7.56 11.3745 7.97263L13.5055 10.1316C14.5964 9.21053 15.4691 8.0021 16 6.63158C14.7418 3.39684 11.6364 1.10526 8 1.10526C6.98182 1.10526 6.00727 1.28947 5.09091 1.62105L6.66909 3.20526C7.08364 3.04316 7.52727 2.94737 8 2.94737Z" fill="#0F0E11"/>
</svg>
