<svg xmlns="http://www.w3.org/2000/svg" xmlns:xlink="http://www.w3.org/1999/xlink" viewBox="0 0 2600 1474.57"><defs><style>.cls-1{fill:url(#linear-gradient);}.cls-2{fill:url(#linear-gradient-2);}.cls-3{fill:url(#linear-gradient-3);}.cls-4{fill:url(#linear-gradient-4);}.cls-5{fill:url(#linear-gradient-5);}.cls-6{fill:url(#linear-gradient-6);}.cls-7{fill:url(#linear-gradient-7);}.cls-8{fill:url(#linear-gradient-8);}.cls-9{fill:url(#linear-gradient-9);}.cls-10{fill:url(#linear-gradient-10);}.cls-11{fill:url(#linear-gradient-11);}.cls-12{fill:url(#linear-gradient-12);}.cls-13{fill:url(#linear-gradient-13);}.cls-14{fill:url(#linear-gradient-14);}.cls-15{fill:url(#linear-gradient-15);}.cls-16{fill:url(#linear-gradient-16);}.cls-17{fill:url(#linear-gradient-17);}.cls-18{fill:url(#linear-gradient-18);}.cls-19{fill:url(#linear-gradient-19);}.cls-20{fill:url(#linear-gradient-20);}.cls-21{fill:url(#linear-gradient-21);}.cls-22{fill:url(#linear-gradient-22);}.cls-23{fill:url(#linear-gradient-23);}.cls-24{fill:url(#linear-gradient-24);}.cls-25{fill:url(#linear-gradient-25);}.cls-26{fill:url(#linear-gradient-26);}.cls-27{fill:url(#linear-gradient-27);}.cls-28{fill:url(#linear-gradient-28);}.cls-29{fill:url(#linear-gradient-29);}.cls-30{fill:url(#linear-gradient-30);}.cls-31{fill:url(#linear-gradient-31);}.cls-32{fill:url(#linear-gradient-32);}.cls-33{fill:url(#linear-gradient-33);}.cls-34{fill:url(#linear-gradient-34);}.cls-35{fill:url(#linear-gradient-35);}.cls-36{fill:url(#linear-gradient-36);}.cls-37{fill:url(#linear-gradient-37);}.cls-38{fill:url(#linear-gradient-38);}.cls-39{fill:url(#linear-gradient-39);}.cls-40{fill:url(#linear-gradient-40);}.cls-41{fill:url(#linear-gradient-41);}</style><linearGradient id="linear-gradient" x1="21.62" y1="269.31" x2="1012.9" y2="269.31" gradientUnits="userSpaceOnUse"><stop offset="0" stop-color="#da8179"/><stop offset="0.31" stop-color="#b545ff"/><stop offset="0.64" stop-color="#6608fa"/><stop offset="1" stop-color="#4813d1"/></linearGradient><linearGradient id="linear-gradient-2" x1="0" y1="737.28" x2="11.1" y2="737.28" xlink:href="#linear-gradient"/><linearGradient id="linear-gradient-3" x1="39.61" y1="918.11" x2="481.72" y2="918.11" xlink:href="#linear-gradient"/><linearGradient id="linear-gradient-4" x1="330.21" y1="1188.92" x2="1319.38" y2="1188.92" xlink:href="#linear-gradient"/><linearGradient id="linear-gradient-5" x1="1630.02" y1="752.9" x2="1983.1" y2="752.9" xlink:href="#linear-gradient"/><linearGradient id="linear-gradient-6" x1="1283.36" y1="741.01" x2="1675.82" y2="741.01" xlink:href="#linear-gradient"/><linearGradient id="linear-gradient-7" x1="887.85" y1="750.29" x2="1257.37" y2="750.29" xlink:href="#linear-gradient"/><linearGradient id="linear-gradient-8" x1="2248.55" y1="748.33" x2="2460.27" y2="748.33" xlink:href="#linear-gradient"/><linearGradient id="linear-gradient-9" x1="453.18" y1="743.88" x2="652.9" y2="743.88" xlink:href="#linear-gradient"/><linearGradient id="linear-gradient-10" x1="2142.31" y1="744.71" x2="2232.58" y2="744.71" xlink:href="#linear-gradient"/><linearGradient id="linear-gradient-11" x1="667.76" y1="861.02" x2="871.17" y2="861.02" xlink:href="#linear-gradient"/><linearGradient id="linear-gradient-12" x1="58.3" y1="766.75" x2="270.54" y2="766.75" xlink:href="#linear-gradient"/><linearGradient id="linear-gradient-13" x1="511.43" y1="1304.43" x2="870.52" y2="1304.43" xlink:href="#linear-gradient"/><linearGradient id="linear-gradient-14" x1="473.66" y1="167.77" x2="837.87" y2="167.77" xlink:href="#linear-gradient"/><linearGradient id="linear-gradient-15" x1="667.91" y1="576.97" x2="872.47" y2="576.97" xlink:href="#linear-gradient"/><linearGradient id="linear-gradient-16" x1="2449.26" y1="535.83" x2="2600" y2="535.83" xlink:href="#linear-gradient"/><linearGradient id="linear-gradient-17" x1="2009.99" y1="470.91" x2="2075.62" y2="470.91" xlink:href="#linear-gradient"/><linearGradient id="linear-gradient-18" x1="28.95" y1="269.45" x2="1005.85" y2="269.45" xlink:href="#linear-gradient"/><linearGradient id="linear-gradient-19" x1="3.71" y1="843.24" x2="4.03" y2="843.24" xlink:href="#linear-gradient"/><linearGradient id="linear-gradient-20" x1="43.29" y1="918.18" x2="478.15" y2="918.18" xlink:href="#linear-gradient"/><linearGradient id="linear-gradient-21" x1="333.9" y1="1188.93" x2="1315.59" y2="1188.93" xlink:href="#linear-gradient"/><linearGradient id="linear-gradient-22" x1="1637.38" y1="752.83" x2="1978.75" y2="752.83" xlink:href="#linear-gradient"/><linearGradient id="linear-gradient-23" x1="1286.94" y1="741.15" x2="1672.12" y2="741.15" xlink:href="#linear-gradient"/><linearGradient id="linear-gradient-24" x1="1355.38" y1="515.31" x2="1358.84" y2="515.31" xlink:href="#linear-gradient"/><linearGradient id="linear-gradient-25" x1="891.5" y1="752.73" x2="1253.77" y2="752.73" xlink:href="#linear-gradient"/><linearGradient id="linear-gradient-26" x1="2252.41" y1="748.27" x2="2456.69" y2="748.27" xlink:href="#linear-gradient"/><linearGradient id="linear-gradient-27" x1="456.67" y1="743.88" x2="649.29" y2="743.88" xlink:href="#linear-gradient"/><linearGradient id="linear-gradient-28" x1="2146.15" y1="744.74" x2="2229.02" y2="744.74" xlink:href="#linear-gradient"/><linearGradient id="linear-gradient-29" x1="671.35" y1="860.85" x2="867.55" y2="860.85" xlink:href="#linear-gradient"/><linearGradient id="linear-gradient-30" x1="61.78" y1="766.72" x2="266.84" y2="766.72" xlink:href="#linear-gradient"/><linearGradient id="linear-gradient-31" x1="515.18" y1="1304.39" x2="866.88" y2="1304.39" xlink:href="#linear-gradient"/><linearGradient id="linear-gradient-32" x1="477.54" y1="167.68" x2="834.16" y2="167.68" xlink:href="#linear-gradient"/><linearGradient id="linear-gradient-33" x1="671.66" y1="576.95" x2="868.84" y2="576.95" xlink:href="#linear-gradient"/><linearGradient id="linear-gradient-34" x1="2453.01" y1="535.99" x2="2596.38" y2="535.99" xlink:href="#linear-gradient"/><linearGradient id="linear-gradient-35" x1="2013.53" y1="470.85" x2="2071.38" y2="470.85" xlink:href="#linear-gradient"/><linearGradient id="linear-gradient-36" x1="86.43" y1="160.38" x2="212.71" y2="160.38" xlink:href="#linear-gradient"/><linearGradient id="linear-gradient-37" x1="99.78" y1="1316.16" x2="221.74" y2="1316.16" xlink:href="#linear-gradient"/><linearGradient id="linear-gradient-38" x1="1132.47" y1="1292.16" x2="1255.13" y2="1292.16" xlink:href="#linear-gradient"/><linearGradient id="linear-gradient-39" x1="1410.82" y1="740.37" x2="1580.26" y2="740.37" xlink:href="#linear-gradient"/><linearGradient id="linear-gradient-40" x1="1020.07" y1="732.02" x2="1122.58" y2="732.02" xlink:href="#linear-gradient"/><linearGradient id="linear-gradient-41" x1="2367.51" y1="936.21" x2="2428.13" y2="936.21" xlink:href="#linear-gradient"/></defs><g id="Layer_2" data-name="Layer 2"><g id="Layer_1-2" data-name="Layer 1"><path class="cls-1" d="M21.62,156.66c.94-33.5,11-65,37-91.41,54-54.79,149.82-46.67,190.92,16,5.6,8.54,10.53,17.18,12,27.2,1.94,13.64,11.28,22.58,25.44,27.81,39.73,14.68,79.54,29.19,119.26,43.9Q605.1,253.86,803.94,327.63c10,3.7,9.85,3.83,12.8-5.15q26.31-80.19,52.69-160.35c2.53-7.67,5.49-15.21,9.94-22.23,10.63-16.77,25.35-23,47-20.23,24.88,3.23,46.79,12.68,66.94,25.2,12.94,8,17.84,20.34,19.19,33.76,1.42,14.14-1.56,27.9-6,41.37-27.1,83-53.6,166.14-82.09,248.79a96.56,96.56,0,0,1-7.5,16.66c-11.87,20.66-28.18,27.48-54.31,23.22-19-3.09-36-10.52-53.36-17.16q-284.85-108.92-569.61-218c-13.19-5-25.59-5.53-37.87,1.71-37.76,22.26-83.55,18.91-119.08-3.81-30.84-19.72-48.08-47-56.59-78.94C23.1,181,22,169.2,21.62,156.66ZM148,35.12a108.51,108.51,0,0,0-22.75,2c-34.84,7.07-60.07,25.21-77,52.2-18.31,29.23-22.76,60.7-16.78,93.3,5.6,30.46,20.06,57.1,47,77.8,34.09,26.19,80.84,32.52,120,9.35,13.84-8.19,28.41-8.09,43.47-2.17,26.34,10.36,52.81,20.49,79.28,30.61Q560.44,389.7,799.77,481.05c22.77,8.67,44.74,19.39,70,22.34,13.79,1.6,25.15-1.55,33.86-11,8.28-9,12.35-19.82,16-30.67,27.1-79.64,52.8-159.63,78.92-239.51,4.5-13.77,8.32-27.73,7-42.25-1.09-11.83-5-22.92-16.48-30.09-17.47-10.9-36.45-19.38-57.73-23.15-25.75-4.57-39.2,1.58-49.27,22.74a172.68,172.68,0,0,0-9,23.07c-17,54.65-35.75,108.84-53.38,163.32-1,3.13-1.94,4-5.74,2.56q-86.55-32.47-173.22-64.68Q497,220.44,353.15,167.39c-24.44-9-49-17.78-73.22-27.28-13.87-5.45-22.93-15.35-24.85-28.62-2-13.95-9.76-25.43-18.67-36.24C214.78,49,185.07,35.62,148,35.12Z"/><path class="cls-2" d="M6,0c1.75,4.15-.75,8.65,4.84,10.19.38.1.15,2.17,0,3.31A254,254,0,0,0,10,38.93Q10,741,10,1443.1c0,4.49.35,9,.35,13.48,0,3.51,2.81,7.27-2.62,10.26-2.26,1.24,0,5.41-1.37,7.73-5.75-16.67-6.22-34-6.17-51.42.24-81.76.13-163.51.1-245.27Q.17,712.09,0,246.28C0,173.69.23,101.1.31,28.51.32,19.06,4.45,10.31,6,0ZM3.71,1447.86H4V238.62H3.71Z"/><path class="cls-3" d="M39.61,1316.27c1.12-35.65,10.21-67.9,35.51-95.47a96.25,96.25,0,0,1,45.14-27.69c9.72-2.81,14.26-10.15,16.88-18.23,6.94-21.41,13.69-42.87,20.41-64.33q73-233.26,146-466.53c3.66-11.69,7.47-23.35,10.93-35.09,3.09-10.47,1.25-13.82-9.93-17.94-45-16.6-89.5-34.13-134.76-50.14a125.84,125.84,0,0,1-25.54-12.06c-19-12-25.3-29-24-48.54,1.52-22.44,8-44,17.73-64.67,7.09-15.17,18.6-26.64,38.25-29.82,8.36-1.35,16.26.13,23.94,3C249.15,407,298.15,425.15,347,443.56c31.06,11.7,61.94,23.77,92.85,35.76,13.76,5.34,26.27,12.11,34.12,23.93,8.85,13.32,9.08,27.72,5.81,42.14-6.49,28.69-16.56,56.6-25.86,84.66-51.67,155.81-100.78,312.26-151.11,468.4-12.26,38-23.69,76.27-37.13,114-6.5,18.23-3.84,35.89,3.77,53.6,19,44.12,15.37,87.14-11.06,128.23-16.1,25-39.11,43.66-71.12,52.43-43,11.77-85.72-1.27-113.14-34.51C50.26,1383.27,40.86,1350.34,39.61,1316.27Zm3.68-1.37c.74,28.37,7.65,54.92,22.54,79.64,12.28,20.39,29,37.51,53.86,46.38,40,14.24,76.22,6.38,107.52-18,34.55-26.93,49.16-62.15,50.22-101.94A120.58,120.58,0,0,0,266,1266.88c-8.42-18.26-10.42-36.94-3.87-55.85,5.38-15.56,10.84-31.11,15.83-46.77,27.23-85.45,54.24-171,81.81-256.33,7.4-22.92,14.91-45.82,22.3-68.75,15.13-46.89,29.47-94,45.14-140.72,8.06-24.06,16.32-48.07,24.18-72.18,8.91-27.32,18.86-54.42,25.09-82.35,6.5-29.19-5.37-48.71-36.29-60.94-7.58-3-15.16-6-22.78-8.9C383.16,461,349,447.84,314.73,434.94Q256,412.83,197.08,391.18c-15-5.52-28.75-2.71-40.78,6.62a52.51,52.51,0,0,0-16.1,21.5c-8.5,19.87-14.94,40.2-16.3,61.45-1.25,19.53,5.66,36,25.4,47.15a141.67,141.67,0,0,0,20.2,9.27q44.1,16.38,88.19,32.78c16.81,6.26,33.64,12.45,50.37,18.87,9.8,3.77,12.65,8.78,10.86,17.94a43.55,43.55,0,0,1-1.3,4.86q-10,31.93-20.12,63.85-22.2,70.65-44.35,141.31-30.35,96.9-60.6,193.83-25.89,82.7-52,165.36c-2.88,9.1-8.25,17.08-19.29,20.24a92.31,92.31,0,0,0-44.71,28.18C52.92,1251.18,44.37,1282.26,43.29,1314.9Z"/><path class="cls-4" d="M1319.38,1293.34c-.93,36.7-12.12,68.45-40.35,94.81-37,34.52-94.79,43.82-139.24,21.86-27.2-13.44-44.37-34-53.9-59.64-7.32-19.67-21.34-33.33-44-40.11-7.19-2.15-14.2-4.75-21.26-7.21q-161-55.9-322-111.8c-56-19.4-112.1-38.5-168.09-57.91-4.71-1.63-6.4-1.35-7.85,3.27q-27.11,86.73-54.69,173.36a60.46,60.46,0,0,1-6.2,13.34c-10.79,17.69-28.08,24.91-50.46,20.85a200.12,200.12,0,0,1-45.13-13.71c-27-11.92-39.67-33.08-35.15-59.26,3.47-20.1,10.65-39.43,16.67-59q31.08-101,62.77-201.88c3.86-12.33,8.61-24.44,16.4-35.4,12.34-17.37,27.87-22.7,50.21-16.4C500,965,521.91,973.38,544,981.39Q826,1083.6,1109.13,1183.17c10.1,3.57,17.75.83,25.38-3.94,15-9.39,31.46-15.46,50-16.8,36.93-2.68,67.74,8.85,92.61,32.15s36.68,51.66,41,82.77C1318.83,1283.12,1319,1289,1319.38,1293.34Zm-125,125.35c2.94-.11,7.4.12,11.69-.52,38.58-5.72,68-23.61,88-52.7,32.77-47.84,27.56-116.51-11.64-160.53-20.61-23.14-47.23-37.42-81.28-39.57a104.52,104.52,0,0,0-63.85,16.12c-8.94,5.64-18,8.75-29.68,4.56-110.85-39.61-221.91-78.76-332.81-118.26-66.42-23.65-132.67-47.69-199-71.51-32.7-11.74-65.16-24-98.49-34.36-21.35-6.63-36.46-1.29-47.9,15.77-7,10.41-11.59,21.7-15.21,33.25q-31,99.27-61.71,198.64c-6.44,21-14.18,41.73-17.84,63.33-3.8,22.46,7.36,42.26,30.16,53.14a184.26,184.26,0,0,0,44.29,14.29c5.94,1.16,11.89,2.23,18.07,1.59,17.38-1.82,27.14-11.61,33.78-24.58,4.84-9.45,7.2-19.6,10.34-29.52q24.78-78.3,49.38-156.65c1.11-3.53,2.68-3.84,6.3-2.55,12.68,4.54,25.49,8.8,38.24,13.17q179.91,61.58,359.15,124.61c42.21,14.75,84.6,29.11,126.79,43.89a58.74,58.74,0,0,1,32.48,26.86c3.6,6.26,5.83,13,8.76,19.47C1109.71,1395.1,1148.08,1418.77,1194.41,1418.69Z"/><path class="cls-5" d="M1630,988.6l238.32-382h-7.42c-56.45,0-112.9-.06-169.35.11-5.39,0-6.61-1.05-5.85-5.77,3.56-22.06,6.65-44.18,10-66.27,1.81-12,7.67-16.43,21.48-16.46q58.63-.15,117.27-.35c39.08-.16,78.15-.45,117.23-.63,14.93-.07,19.68,4.49,19,17.63-1.79,34.8-12,67.85-27.22,99.83-16.79,35.2-39,68-60.58,100.93-25.7,39.21-51.82,78.22-77.72,117.33-9.54,14.41-16.2,30-23.84,45.17a6.09,6.09,0,0,0-.21,1.79h6.31q95,0,189.94-.09c4.53,0,6.39.43,5.55,5-4,21.32-6.32,42.86-11.26,64.06-2.67,11.47-9.4,16.69-23,17q-27.7.63-55.44.85c-48.79.44-97.59.55-146.37,1.28C1708.29,988.57,1669.79,988.49,1630,988.6Zm244.34-385.33c-1.56,2.72-2.65,4.77-3.89,6.76q-25.1,40.25-50.23,80.45-37.42,60-74.86,119.93-53,85-106,170c-3.12,5-3.08,5.11,3.11,5,24.39-.22,48.78.08,73.18-.31,50.11-.79,100.24-.91,150.36-1.36q40.88-.37,81.74-1c12.24-.17,18-4.5,20.36-14.78,4.45-19.41,7.06-39.07,10.14-58.66,1-6.36.87-6.38-6.67-6.38q-51.77,0-103.53,0-44.05,0-88.1-.08c-2,0-5.76,1.09-3.71-3.07,4.94-10,9.38-20.25,14.74-30.1,11.68-21.49,26.18-41.63,39.77-62.2,31.72-48,64.67-95.43,93.73-144.74,18-30.59,31.87-62.57,38.56-96.64,2.35-12,4.46-24,3.82-36.2-.31-5.72-3.36-9.38-8.37-9-6.91.53-13.6-.86-20.42-.74-13.34.24-26.67.45-40,.49-37.37.12-74.74.13-112.11.24q-34.87.09-69.77.33c-10,.06-15.18,3.59-16.57,12.29-3.4,21.23-6.31,42.53-9.72,63.76-.8,5,.86,6,6.43,6,56.82-.19,113.64-.12,170.46-.12Z"/><path class="cls-6" d="M1356.57,514.45c-11-4.21-21.83-8.6-32.91-12.54-3.74-1.33-4-3.2-3.65-6.14.49-3.9,3.73-2.13,5.66-2.17,19.42-.38,38.93-2.13,58.24-.36,41.43,3.79,83,7,123.47,16.52,58.56,13.8,100.8,45.12,129,91.54,19.3,31.81,29.74,66,35.63,101.4,7.17,43.09,4.71,85.62-10.58,127.22-20.49,55.76-57.28,100.93-114.78,132.23-35.07,19.1-73.42,27.51-114.71,26.7-18.82-.37-37.64,1.83-56.5-.05-11-1.1-21.5-4.27-32.53-5.28-12.61-1.15-25.12-.46-37.61.68-11.47,1-17.28-1.92-20.23-11.65-4.7-15.5.66-28.46,13.75-39.32,10.54-8.74,23.75-13.68,36.35-19.48,8.46-3.89,16.69-8.08,23.42-14.1,11.41-10.21,13.67-23,12.76-36.52-1.08-15.93-3.22-31.78-2.88-47.8.6-28,14-49.19,42.16-63,5.59-2.74,11.21-5.44,17.07-8.29-.51-.46-.78-.91-1.18-1.06-30.75-11.07-47.14-32-53.54-59.67-3.82-16.56-4.6-33.3-3.72-50.14a102.2,102.2,0,0,0-2.51-28.29c-5.13-22.28-21.09-36.2-44.83-44-6-2-12.21-3.7-18.19-5.83-10.22-3.64-15.44-10.37-15.62-20.07a94.78,94.78,0,0,1,1.47-19.9c1.65-8.53,7.44-12.07,17.11-10.1,16.29,3.33,32.49,7,48.73,10.54,1.12.6,2.24,1.07,3.46.17Zm81,228.92c-7.89,3.67-15.42,7.11-22.88,10.65-26.14,12.4-40.88,30.94-42.23,57.49-.79,15.55.45,30.93,2.24,46.3,3.29,28.22-6.68,44.7-35.53,57.74-7.43,3.36-14.89,6.69-22.19,10.26-9.93,4.85-18.74,10.89-24.63,19.61-6.2,9.18-7,18.88-2.61,28.76,2.76,6.16,6.26,7.51,13.77,6.84,18.82-1.68,37.66-2.46,56.21,1.89a147.64,147.64,0,0,0,27.65,3.41c19.45.81,38.84-1,58.27-1a193.94,193.94,0,0,0,57.09-8.65c44.64-13.55,80.36-37.86,109-70.17,37.93-42.77,56.86-91.73,60-145.51,2.16-37.44-3.9-74.06-16.24-109.83-14-40.62-35.74-77.1-74.21-104.82-19.76-14.24-41.68-24.32-65.79-31.17-26.21-7.45-53.4-10.67-80.6-13.76-31-3.51-62-7.08-93.38-5.12-5.73.36-11.48.52-17.61.79,1.33,2.24,3.36,2.42,5,3.05,18.78,7.24,37.59,14.42,56.34,21.7,1.61.63,5,.49,3.8,3.24-.93,2.22-3.29.84-5,.47-11.43-2.55-22.84-5.17-34.26-7.76-13.81-3.14-27.6-6.33-41.44-9.36-9.45-2.07-13.29-.37-14.94,6.9a65.92,65.92,0,0,0-1.41,21.86c.7,6.46,4.34,11.32,11.3,13.91,4.89,1.82,9.89,3.43,14.91,5,21.33,6.49,38.91,16.8,47.82,35.86,6.41,13.7,7.29,28.1,6.8,42.67-.53,16,0,31.94,3.63,47.7,5.7,24.62,19.29,44.21,46,55.63C1427.22,740,1432.24,741.33,1437.55,743.37Z"/><path class="cls-7" d="M1057.09,503.71c13.41,18.35,21,38,29.21,57.47,41,97.17,82.65,194.13,122.21,291.76q22.35,55.14,44.38,110.37a82.69,82.69,0,0,1,4.08,13c1.57,7.19-1.49,11.58-9.76,12.51-18.92,2.12-38,3.08-56.84-.2-10.12-1.75-17.27-7.36-22.41-15-7.65-11.41-12-24-17-36.34-4.72-11.74-8.87-23.65-14.49-35.13-5.09-10.41-13.76-15.45-26.62-15.42q-54.88.14-109.78.13c-2.49,0-3.79.17-3.51,2.91,1.78,17.22-2.76,34.1-4,51.16-.61,8.12-1.2,16.28-2.47,24.33-3.36,21.33-11,27.82-35.27,30.35-18.23,1.9-36.56,1.31-54.84,1.05-10.13-.14-13.73-4.35-11.42-13.06,4.92-18.6,12.19-36.63,18.64-54.84,27.41-77.4,52.7-155.34,79.1-233,9.41-27.66,20.39-54.92,30-82.53,6.66-19,10.36-38.81,17.83-57.67C1041,538.11,1051.65,522.05,1057.09,503.71Zm.7,8c-6.8,20.16-18.93,37.17-24.5,56.45-5.44,18.82-10.49,37.77-17,56.32-8.89,25.25-19.22,50.11-27.74,75.48-24.27,72.22-47.77,144.63-73.25,216.54-7.82,22.05-15.47,44.16-22.79,66.35-2.63,8-.17,10.58,9.22,10.65,16.76.12,33.56.69,50.27-1,21.79-2.17,32-6,34-26,2.67-26.47,8.25-52.78,7-79.51-.12-2.61.75-3.39,3.78-3.4,35.46-.11,70.91.07,106.37-.4,25-.34,31.3,4.15,40.13,24.73,5.27,12.29,9.77,24.83,14.78,37.21,3.87,9.55,7.67,19.14,13.89,27.81,4.45,6.19,10.41,10.77,18.67,12.28,18.69,3.43,37.51,2.27,56.25.31,6-.63,7.85-3.72,6.53-9.09a87.8,87.8,0,0,0-3.7-11.49c-27.41-68.47-54.62-137-83.39-205q-46.15-109.2-92.12-218.45A148.52,148.52,0,0,0,1057.79,511.74Z"/><path class="cls-8" d="M2432.44,709.39c0,39.11.08,78.22-.05,117.32,0,15-1.28,29.93,1.23,44.83,1.51,8.87,4.9,17.24,11.54,24.07,13.92,14.3,16.49,31,14.52,48.74a71.87,71.87,0,0,1-13.59,35.09c-18.22,24.79-54.82,31.69-79.22,14.31-19.89-14.16-30.31-33-31.36-55.5-.9-19,6.27-35.94,19.61-50.88a34.68,34.68,0,0,0,9.25-24.07c-.09-17.3-.35-34.61-.49-51.91q-.71-86.88-1.38-173.74c-.15-17.63-.46-35.26-.75-52.89-.17-10.14-3.37-12.93-14.7-12.47-8,.33-16-.19-23.92.18-7.51.36-15,1-22.58,1.35a110.31,110.31,0,0,1-22.78-1.1c-14.63-2.29-23.59-10.29-27.12-22.71-2.87-10.13-2.6-20.45-.42-30.69,2.57-12,11.12-19,24.62-21.32a335.37,335.37,0,0,1,73.31-4.34c16.72.77,33.37,2.62,50.17,2.44,17.86-.19,27.14,6.93,29.55,22.38,4.1,26.23,6.67,52.53,5.78,79.06-.44,13-.08,26-.08,39v72.9Zm-3.53-87.84c2-33.63,1.71-67.24-4.4-100.56-3-16.57-9.89-22.47-27.8-21.86-4,.14-8,.07-12-.08-21.85-.8-43.58-3.75-65.57-2.34-15.58,1-31.17,1.64-46.36,5.18q-15.57,3.64-18.75,17.5a67.56,67.56,0,0,0-.63,26.34c2.26,13.49,10.9,21.56,25.23,23.8a89.71,89.71,0,0,0,19.9,1.1c17.06-1.19,34.13-1.35,51.21-1.47,10.17-.07,14.71,3.56,15.37,12.46.47,6.47.64,13,.7,19.44.43,41.77.23,83.55,1.09,125.33.58,28.12.36,56.26.51,84.4.08,16.14-.24,32.31.45,48.43.48,11.27-2.14,21.33-10,30.33-14.64,16.74-21.55,35.44-17.89,56.54,3.21,18.51,12.93,34.3,29.92,45.62,22.24,14.82,53.53,9.9,71.55-12,9.36-11.38,13.71-24.47,14.95-38.25,1.44-16-1.68-31.06-14.17-43.91a45.23,45.23,0,0,1-12-24.43c-2.66-15.55-1.47-31.17-1.41-46.8C2429,758.05,2428.91,689.8,2428.91,621.55Z"/><path class="cls-9" d="M512.88,743.36c9,5.62,18.65,10.34,26.8,16.87,16.5,13.22,24,30.34,27.82,49.09,3.29,16,2,32.17,2.8,48.26.43,8.66,1.15,17.25,3.25,25.73,6,24,23.44,38.42,49.79,45.36a63.34,63.34,0,0,1,13.19,4.58c9.5,4.91,14.09,12.27,14.46,21.81a47.85,47.85,0,0,1-2.24,15.78c-2.12,7-8,10.95-16.14,10.88-29.47-.24-56.15-7.79-79.69-23.42-22.62-15-31.64-35.79-33.65-59.71-2.15-25.52-2.17-51.18-5.67-76.6-3.42-24.78-17.3-42.85-45.4-51.21-10-3-14.85-9.6-15-18.63a149.46,149.46,0,0,1,1-18.42,14.66,14.66,0,0,1,11.26-13.25C496.33,712,509,691.2,514.75,665.65c3.77-16.69,3.92-33.71,5.69-50.58,1.63-15.56,2.7-31.23,7.26-46.4,9.92-33,34.94-52.28,72.67-59.61,12.52-2.43,25-4.13,37.91-2.17,7.05,1.07,11,4.23,12.69,10.37,4.68,16.56,1.36,30.52-15.32,41-7.58,4.78-15,9.79-23.86,12.52C577,581.53,564.87,604.34,568,635.05c1.49,14.71,4.89,29.23,3.26,44.18-2.08,19.16-11.8,34.43-28.61,46.52A172.81,172.81,0,0,1,518,740.17C516.26,741,514,741.41,512.88,743.36Zm-8-.62c14.72-7,28.4-13.62,40-23,13.53-11,20.9-24.51,22.74-40.6,1.58-13.91-1.19-27.5-2.91-41.19-4.24-33.7,8.49-59,46.66-70.42,8.2-2.46,14.91-7.23,21.9-11.6,15.45-9.67,18.66-22.57,14.2-37.92-1.41-4.88-4.6-7.15-10.12-8-15.13-2.37-29.54.62-43.9,4.11-33.68,8.19-54.4,27.37-62.55,56.89-5.29,19.16-6.24,38.82-8,58.38-1.44,15.57-2,31.23-7,46.4-6.21,19.13-16.54,36.39-38.78,43.67-15.14,5-21.42,12.43-20.27,25.79a10.71,10.71,0,0,1-.08,1.49c-.59,13.19,2.55,17.33,16.57,22.28a73.55,73.55,0,0,1,21,10.95c16.15,12.56,22.15,29.22,23.78,47.19,2.09,23.2,3.2,46.48,4.75,69.73C524,915.39,529,933,544.1,946.73c24.44,22.24,55.34,31.46,90.09,31.91a10.27,10.27,0,0,0,10-6.4c6.1-15.81,5.93-33.37-18.7-39.64a121.54,121.54,0,0,1-17.37-5.66c-17.17-7.22-29-18.47-35.27-34.28-4.39-11.14-5.75-22.67-6.24-34.33-.67-16,.4-31.93-2.56-47.82-4.62-24.72-17.11-44.83-42.33-58C516.26,749.61,511.08,746.33,504.9,742.74Z"/><path class="cls-10" d="M2231.43,738.79c0,50.25-.12,100.51.05,150.76.08,24.28.71,48.57,1.09,72.86,0,.66,0,1.33,0,2-.09,18.07-4.84,22.17-25.38,21.29-19.81-.84-39.62-.27-59.43,0-4.24.06-5.47-.85-5.45-4.65.16-41.62,0-83.23.12-124.85.08-30.29.52-60.58.57-90.86q.21-111.37.2-222.73c0-8.31-.76-16.63.89-24.9,1.9-9.51,7.61-14.59,18.62-14,20.95,1.1,41.88.55,62.81.32,4.17-.05,3.41,2.07,3.41,4.14,0,22.14-.08,44.28,0,66.42.14,35.78.43,71.56.59,107.34.08,19,0,37.94,0,56.91Zm-3.3,1.24h-2.55q0-60.66,0-121.32c0-35.46-.22-70.92,0-106.38,0-4.65-1.61-5.49-6.37-5.29-11.22.46-22.48.19-33.68.81-7.65.43-15.05-1.31-22.63-1.06-9.5.32-13.73,3.62-15.24,11.87a87.54,87.54,0,0,0-1,15.92q0,70.41,0,140.83-.15,151.08-.46,302.16c0,4,1.37,5.08,5.8,4.94,19.22-.58,38.44-.81,57.68.11,15,.71,18.95-2.73,19.36-15.94,0-1.34,0-2.67,0-4-.29-17-.8-33.93-.83-50.9Q2228,825.91,2228.13,740Z"/><path class="cls-11" d="M870.91,803.16c1,33-.8,65.83-8.29,98.27C855.33,933,837,957,801,968.29c-14.15,4.44-29,6.86-43.75,9.26-26,4.24-52.09,8-78.08,12.22-5,.82-6.28-.46-7.48-4.4-3.42-11.2-3.91-22.57-3.91-34,0-9.65,6.1-15.14,16.16-17.42,12.88-2.93,25.89-5.41,38.84-8.06,15.56-3.19,30.92-7,46.09-11.38,25.61-7.34,38.41-24.39,44.39-46.2A96,96,0,0,0,817,840.12c-.41-14.47.92-29-1-43.39-1.27-9.67-4.06-11.67-15.08-11.81-25.52-.34-51-.57-76.56-.84-1.72,0-3.43,0-5.15,0-10.16-.41-15.21-4.28-15.82-13.07a212.62,212.62,0,0,1-.34-24.86c.47-9.9,6.68-14.4,18.44-14.05,41.52,1.21,83.07.28,124.59.93,12.77.2,20.15,5.86,21.35,16.93C869.38,767.63,870.46,785.38,870.91,803.16Zm-93-67.22c-18.86-.25-37.72,0-56.57-.67-10.27-.38-14.46,3.21-14.56,12.13-.09,7.81-.11,15.64.28,23.44.32,6.44,4.22,9.54,11.61,10,1.71.11,3.43.08,5.14.1q39.15.42,78.3.87c11.33.14,15.3,3.24,17.41,12.86,1,4.79,1,9.62.91,14.42-.27,19.92,2,39.94-3.46,59.65-6.44,23.06-19.89,41-46.91,48.72-15,4.26-30.32,7.62-45.5,11.35-13.73,3.38-28,4.8-41.56,8.82-5.84,1.74-10.41,4.82-11.08,10.32-1.33,11,0,21.89,2.19,32.74,1,4.79,3.19,7,9.06,5,2.26-.76,4.85-.76,7.29-1.13,32.22-4.91,64.54-9.33,96.4-15.94,33.43-6.93,55.95-24.27,67.47-52.43,5.35-13.07,7.45-26.79,9.41-40.48,6.12-42.66,4-85.35,0-128-.45-4.8-6.57-10.62-11.75-10.74-6.25-.14-12.46-.8-18.65-.93C814.86,735.7,796.37,735.94,777.87,735.94Z"/><path class="cls-12" d="M270.45,631.83c.66,9.23-2.51,19.2-5.27,29.19q-35.87,129.54-71.85,259.05c-7.21,25.91-25,39.39-55.32,41-18.38,1-33.95-6.21-47.83-16.2a102.69,102.69,0,0,1-25.73-27.15c-8.19-12.41-7-25.59-3.28-38.76q26.77-94,53.76-188c8.27-28.66,17-57.22,25.6-85.79a62.21,62.21,0,0,1,4.92-11.66c9.41-17.18,26.21-24.15,47.55-19.93A315,315,0,0,1,231,584C255.73,592.16,268.9,607.54,270.45,631.83Zm-3.63,2.25c.57-21-10.86-36.82-32.86-45.43a246.17,246.17,0,0,0-42.81-12.18C173,573,158.78,578.71,149.92,593a64.11,64.11,0,0,0-6.77,15.33c-27.6,90.41-52.31,181.45-78.63,272.15-3.21,11.09-4.68,22.58,1.79,33.15,11.06,18.06,26.38,32.55,48.56,40.57,27,9.77,62.06,1.08,72.77-28.66,1.09-3,2.18-6,3-9.09q8.69-30.93,17.28-61.87Q219.52,812.8,231,771.05c9-32.47,18.09-64.91,26.83-97.42C261.39,660.55,266.43,647.71,266.82,634.08Z"/><path class="cls-13" d="M511.43,1274.61c.5-23.28,8-45.95,21.55-67,11.37-17.6,30.72-23.32,52.3-16q124.83,42.45,249.58,85c19.42,6.62,28.32,20.23,32.54,37,8.93,35.57-1.53,66.81-28.12,94.21-10.7,11-24.71,15.08-40.63,10.65-24.45-6.79-48.54-14.59-73-21.47-67.56-19-131-46.24-194.08-74.12-11.21-5-15.25-14.93-17.69-25.06A98.89,98.89,0,0,1,511.43,1274.61Zm355.45,61.26c-.52-7.5-1.18-15-3.18-22.27-4.18-15.27-12.26-27.82-30.15-33.92q-61.75-21-123.41-42.31-28.33-9.7-56.7-19.34c-23.61-8-47.19-16-70.91-23.72-18.79-6.1-35.25-.9-45.74,14a83.42,83.42,0,0,0-5,8.4c-14.2,26.39-21,53.76-13.56,82.8,2.64,10.31,8.53,18.58,20.37,23.15,11.27,4.35,22.1,9.58,33.18,14.31,49.25,21,99,41.06,151.21,56,24.57,7,48.89,14.73,73.41,21.91,16.64,4.87,30.82,1.33,41.88-10.67C856.65,1384.25,867.19,1361.77,866.88,1335.87Z"/><path class="cls-14" d="M473.66,134.29c3-21.87,7-46.59,26.25-66.78,9.76-10.24,22.37-16.36,37.92-17.22A40.79,40.79,0,0,1,554,52.67c81.16,29.18,161.62,59.81,242.26,90,24.73,9.27,37.7,26,41.32,48.79a8.92,8.92,0,0,1-.11,4.91c-9,22.38-15.6,45.49-27.4,67-5.91,10.79-14.1,19.41-28.57,21.5-9.16,1.33-17.79-.79-26.13-3.82q-96.3-35-192.55-70.06c-15.25-5.55-30.25-11.69-45.76-16.64C485.64,184.36,474.06,161,473.66,134.29Zm66.53-81.07c-2.45.27-4.92.43-7.34.84C512.91,57.43,500.49,68.81,492,84s-12.55,31.7-14.21,48.53c-2.33,23.61,10,48.18,38,57.94,37.1,12.9,73.71,26.87,110.57,40.29,44.06,16,88.09,32.14,132.26,47.94,21.28,7.61,36.35,2.67,46.88-14.61.89-1.46,1.67-3,2.47-4.49,10.89-20.42,17.17-42.26,25.68-63.41a9.68,9.68,0,0,0,.12-5.44c-3.91-21.79-17-37.18-40.68-45.73-22.44-8.11-44.61-16.77-66.93-25.12Q669.66,98.72,613,77.65c-20.32-7.52-40.78-14.78-61.17-22.18A36.42,36.42,0,0,0,540.19,53.22Z"/><path class="cls-15" d="M848.89,649c-4.77,0-9.53.07-14.29,0-12.4-.19-17.37-3.76-20.21-14.36-4-15-10.28-29.17-21.65-41.27-14.76-15.71-34.61-23.93-56.41-29.28-17.1-4.19-34.63-6.26-52.22-7.93-12.17-1.15-13.34-1.88-15.12-12.28-1.62-9.44-1.13-18.92-.42-28.37.53-7,5.48-10.65,13.53-10.62,29.35.1,58.68.57,87.09,8.07,70.69,18.65,108.68,67.88,102.66,132.78-.24,2.56-1.16,3.41-4.11,3.33C861.46,648.88,855.17,649,848.89,649Zm-.4-3.07c5.34,0,10.68-.15,16,.06,3,.12,3.81-.88,4-3.38,1.35-19.16-1.05-37.88-8.83-55.89C843.56,549.44,811,528,769,516.24c-27.51-7.68-56.19-7.87-84.79-8.33-8.93-.14-12.27,4.22-12.35,10.42-.11,8.31-.69,16.6.69,24.9s2.08,8.95,11.57,9.74a371.15,371.15,0,0,1,45.07,6.2c23.85,4.94,46.09,12.7,63.21,29,13.82,13.13,21.16,29,25.6,46.08,2.18,8.42,6.37,11.45,16.2,11.7C839,646,843.73,645.93,848.49,645.93Z"/><path class="cls-16" d="M2540.16,497.51c18.09,0,36.18.09,54.27-.07,4,0,5.62.49,5.57,4.52-.26,21.79-.16,43.58-.08,65.38,0,2.6-.1,4.4-4,4.51-31.94.93-63.79,4-95.8,3.16a124.21,124.21,0,0,1-26.38-3.88c-13.66-3.39-21.92-11.18-23.71-23.45a65.13,65.13,0,0,1,2.33-30.65c4.72-13.94,15.44-20.42,33.49-20.5s36.18,0,54.27,0Zm-10.07,3.25V500c-16.38,0-32.77-.25-49.14.09-12.17.25-20.32,6-24.2,16-3.79,9.77-4.42,19.9-3.13,30.07,1.17,9.15,5.85,16.4,16.17,20.12a93.18,93.18,0,0,0,28.79,5.51c31.25.92,62.38-1.87,93.56-3.06,3.2-.12,4.24-1,4.23-3.79q-.16-30.19,0-60.4c0-3.13-1.19-3.92-4.59-3.9C2571.22,500.81,2550.66,500.76,2530.09,500.76Z"/><path class="cls-17" d="M2010.33,454.44V429.06c0-3.32-.21-6.63.84-9.9,1.77-5.52,5.3-8.7,11.65-8.44,11,.45,22.08-.3,33,1.28,8.81,1.28,12.61,4.47,14.23,12.11,1.5,7.08,1.06,14.23,1,21.37,0,2.07-.73,4.41,2.91,5,2.05.34,1.78,1.88,1.42,3.22-6.06,22.27-10.71,44.84-18.33,66.78a22.85,22.85,0,0,1-1,2.34c-4.36,9-13.31,11.09-21.23,4.12-15.82-13.91-26-30.17-24.71-50.61.47-7.29.76-14.59,1.13-21.89ZM2035,414.08c-1.87,0-4.73.05-7.59,0-10.52-.19-13.08,1.89-13.53,11.13-.07,1.49,0,3,.11,4.49.77,13.78,1.7,27.59,0,41.34-2.5,20,5.6,36.51,20.38,51.1,3.05,3,6.42,6.23,11.52,5.36s6.45-5.19,7.91-9c.06-.16.07-.33.12-.49,7.15-20,11.39-40.64,16.83-61,.35-1.32,1.51-3.33-.53-4.06-3.47-1.24-2.68-3.61-2.69-5.81,0-7.47.67-15-1-22.39-1.45-6.46-4.2-8.58-11.73-9.65C2048.56,414.2,2042.29,414.22,2035,414.08Z"/><path class="cls-18" d="M148,35.12c37.12.5,66.83,13.9,88.46,40.13,8.91,10.81,16.64,22.29,18.67,36.24,1.92,13.27,11,23.17,24.85,28.62,24.2,9.5,48.78,18.25,73.22,27.28Q497,220.55,640.75,273.69q86.7,32.13,173.22,64.68c3.8,1.43,4.73.57,5.74-2.56,17.63-54.48,36.42-108.67,53.38-163.32a172.68,172.68,0,0,1,9-23.07c10.07-21.16,23.52-27.31,49.27-22.74,21.28,3.77,40.26,12.25,57.73,23.15,11.51,7.17,15.39,18.26,16.48,30.09,1.34,14.52-2.48,28.48-7,42.25C972.48,302.05,946.78,382,919.68,461.68c-3.69,10.85-7.76,21.65-16,30.67-8.71,9.49-20.07,12.64-33.86,11-25.27-2.95-47.24-13.67-70-22.34q-239.4-91.21-478.59-182.83C294.71,288.1,268.24,278,241.9,267.61c-15.06-5.92-29.63-6-43.47,2.17-39.14,23.17-85.89,16.84-120-9.35-26.94-20.7-41.4-47.34-47-77.8-6-32.6-1.53-64.07,16.78-93.3,16.9-27,42.13-45.13,77-52.2A108.51,108.51,0,0,1,148,35.12Zm-61.48,126c-.31,6.64,1.17,15.16,3.9,23.53,4.11,12.64,11.13,24.51,23.14,32,29.69,18.42,60.73,9.44,79.08-8.77,24.71-24.5,26.85-64.71,5.35-91.47-23.25-28.94-72.71-30-96.57-2C90.11,127.6,86.46,142.89,86.47,161.14Z"/><ellipse class="cls-19" cx="3.87" cy="843.24" rx="0.23" ry="855.06"/><path class="cls-20" d="M43.29,1314.9c1.08-32.64,9.63-63.72,33.3-90.51a92.31,92.31,0,0,1,44.71-28.18c11-3.16,16.41-11.14,19.29-20.24q26.17-82.63,52-165.36,30.33-96.92,60.6-193.83,22.11-70.68,44.35-141.31,10-31.94,20.12-63.85a43.55,43.55,0,0,0,1.3-4.86c1.79-9.16-1.06-14.17-10.86-17.94-16.73-6.42-33.56-12.61-50.37-18.87q-44.08-16.41-88.19-32.78a141.67,141.67,0,0,1-20.2-9.27c-19.74-11.1-26.65-27.62-25.4-47.15,1.36-21.25,7.8-41.58,16.3-61.45a52.51,52.51,0,0,1,16.1-21.5c12-9.33,25.75-12.14,40.78-6.62Q256,412.83,314.73,434.94C349,447.84,383.16,461,417.36,474.09c7.62,2.91,15.2,5.9,22.78,8.9,30.92,12.23,42.79,31.75,36.29,60.94-6.23,27.93-16.18,55-25.09,82.35-7.86,24.11-16.12,48.12-24.18,72.18-15.67,46.74-30,93.83-45.14,140.72-7.39,22.93-14.9,45.83-22.3,68.75-27.57,85.37-54.58,170.88-81.81,256.33-5,15.66-10.45,31.21-15.83,46.77-6.55,18.91-4.55,37.59,3.87,55.85A120.58,120.58,0,0,1,277.43,1321c-1.06,39.79-15.67,75-50.22,101.94-31.3,24.4-67.56,32.26-107.52,18-24.9-8.87-41.58-26-53.86-46.38C50.94,1369.82,44,1343.27,43.29,1314.9Zm178.45,4.35c-.23-18.8-5.6-34.81-14.89-46.54-23.75-30-71.77-29.39-94.49,1.19-8.21,11-11.72,23.4-12.42,36.32-1.11,20.29,3.31,39.3,19.06,55.22,17.55,17.75,48.05,21.62,70.38,8.57C212.51,1360.48,220.87,1340.32,221.74,1319.25Z"/><path class="cls-21" d="M1194.41,1418.69c-46.33.08-84.7-23.59-102-62.06-2.93-6.49-5.16-13.21-8.76-19.47a58.74,58.74,0,0,0-32.48-26.86c-42.19-14.78-84.58-29.14-126.79-43.89q-179.4-62.69-359.15-124.61c-12.75-4.37-25.56-8.63-38.24-13.17-3.62-1.29-5.19-1-6.3,2.55q-24.57,78.36-49.38,156.65c-3.14,9.92-5.5,20.07-10.34,29.52-6.64,13-16.4,22.76-33.78,24.58-6.18.64-12.13-.43-18.07-1.59a184.26,184.26,0,0,1-44.29-14.29c-22.8-10.88-34-30.68-30.16-53.14,3.66-21.6,11.4-42.34,17.84-63.33q30.51-99.4,61.71-198.64c3.62-11.55,8.23-22.84,15.21-33.25,11.44-17.06,26.55-22.4,47.9-15.77,33.33,10.34,65.79,22.62,98.49,34.36,66.34,23.82,132.59,47.86,199,71.51,110.9,39.5,222,78.65,332.81,118.26,11.72,4.19,20.74,1.08,29.68-4.56a104.52,104.52,0,0,1,63.85-16.12c34,2.15,60.67,16.43,81.28,39.57,39.2,44,44.41,112.69,11.64,160.53-19.93,29.09-49.37,47-88,52.7C1201.81,1418.81,1197.35,1418.58,1194.41,1418.69Zm60.72-127.11a71.71,71.71,0,0,0-7-31.64c-10-20.81-31.22-34-54-33.24-27.93,1-45.79,12-55.68,35.55-8.66,20.62-7.72,41.53,1.82,61.82,5.68,12.07,13.88,22.58,28.29,28.32,19.38,7.71,38.19,7.3,55.63-3.6C1246.47,1334.85,1254.18,1314.51,1255.13,1291.58Z"/><path class="cls-22" d="M1874.36,603.27h-7.52c-56.82,0-113.64-.07-170.46.12-5.57,0-7.23-1.06-6.43-6,3.41-21.23,6.32-42.53,9.72-63.76,1.39-8.7,6.54-12.23,16.57-12.29q34.89-.19,69.77-.33c37.37-.11,74.74-.12,112.11-.24,13.34,0,26.67-.25,40-.49,6.82-.12,13.51,1.27,20.42.74,5-.39,8.06,3.27,8.37,9,.64,12.21-1.47,24.24-3.82,36.2-6.69,34.07-20.53,66.05-38.56,96.64-29.06,49.31-62,96.73-93.73,144.74-13.59,20.57-28.09,40.71-39.77,62.2-5.36,9.85-9.8,20.07-14.74,30.1-2,4.16,1.66,3.06,3.71,3.07q44.06.11,88.1.08,51.77,0,103.53,0c7.54,0,7.67,0,6.67,6.38-3.08,19.59-5.69,39.25-10.14,58.66-2.36,10.28-8.12,14.61-20.36,14.78q-40.87.56-81.74,1c-50.12.45-100.25.57-150.36,1.36-24.4.39-48.79.09-73.18.31-6.19.06-6.23,0-3.11-5q53-85,106-170,37.41-60,74.86-119.93,25.13-40.22,50.23-80.45C1871.71,608,1872.8,606,1874.36,603.27Z"/><path class="cls-23" d="M1437.55,743.37c-5.31-2-10.33-3.4-15.09-5.43-26.73-11.42-40.32-31-46-55.63-3.65-15.76-4.16-31.7-3.63-47.7.49-14.57-.39-29-6.8-42.67-8.91-19.06-26.49-29.37-47.82-35.86-5-1.53-10-3.14-14.91-5-7-2.59-10.6-7.45-11.3-13.91a65.92,65.92,0,0,1,1.41-21.86c1.65-7.27,5.49-9,14.94-6.9,13.84,3,27.63,6.22,41.44,9.36,11.42,2.59,22.83,5.21,34.26,7.76,1.68.37,4,1.75,5-.47,1.16-2.75-2.19-2.61-3.8-3.24-18.75-7.28-37.56-14.46-56.34-21.7-1.64-.63-3.67-.81-5-3.05,6.13-.27,11.88-.43,17.61-.79,31.39-2,62.38,1.61,93.38,5.12,27.2,3.09,54.39,6.31,80.6,13.76,24.11,6.85,46,16.93,65.79,31.17,38.47,27.72,60.2,64.2,74.21,104.82,12.34,35.77,18.4,72.39,16.24,109.83-3.1,53.78-22,102.74-60,145.51-28.66,32.31-64.38,56.62-109,70.17a193.94,193.94,0,0,1-57.09,8.65c-19.43-.06-38.82,1.78-58.27,1a147.64,147.64,0,0,1-27.65-3.41c-18.55-4.35-37.39-3.57-56.21-1.89-7.51.67-11-.68-13.77-6.84-4.42-9.88-3.59-19.58,2.61-28.76,5.89-8.72,14.7-14.76,24.63-19.61,7.3-3.57,14.76-6.9,22.19-10.26,28.85-13,38.82-29.52,35.53-57.74-1.79-15.37-3-30.75-2.24-46.3,1.35-26.55,16.09-45.09,42.23-57.49C1422.13,750.48,1429.66,747,1437.55,743.37Zm142.64,6.7c.44-13-1.33-29-4.69-44.92-7-32.93-19.69-63.86-43-90.84-27.86-32.2-64.51-50.46-111.12-52.55-7.46-.34-7.56-.34-7,6.26,1.07,13.93,2.07,27.88,3.45,41.79,1.94,19.54,2.19,39.2,5.51,58.64,3.56,20.88,14.54,37.4,36.48,47.39,5.38,2.45,11.18,4.19,16.79,6.26s7.94,5.78,7.15,10.74c-.89,5.65-.66,11.29-.73,16.94-.1,9.11-2.84,12.69-12.46,15.69-26.11,8.12-40.33,25.17-46.92,47.83-3.08,10.56-4.06,21.43-5.18,32.26q-3.63,35-7.5,70c-.37,3.3.67,3.83,4.29,3.37,19.4-2.44,38.74-5.21,57.93-8.66s36.55-10.32,50.61-22.59A157.94,157.94,0,0,0,1559.59,843C1574.77,814.55,1580.38,784.43,1580.19,750.07Z"/><path class="cls-24" d="M1356.57,514.45l2.27,1.21c-1.22.9-2.34.43-3.46-.17Z"/><path class="cls-25" d="M1057.79,511.74a148.52,148.52,0,0,1,16.36,29.8q46,109.25,92.12,218.45c28.77,68,56,136.58,83.39,205a87.8,87.8,0,0,1,3.7,11.49c1.32,5.37-.51,8.46-6.53,9.09-18.74,2-37.56,3.12-56.25-.31-8.26-1.51-14.22-6.09-18.67-12.28-6.22-8.67-10-18.26-13.89-27.81-5-12.38-9.51-24.92-14.78-37.21-8.83-20.58-15.12-25.07-40.13-24.73-35.46.47-70.91.29-106.37.4-3,0-3.9.79-3.78,3.4,1.25,26.73-4.33,53-7,79.51-2,20-12.19,23.8-34,26-16.71,1.66-33.51,1.09-50.27,1-9.39-.07-11.85-2.68-9.22-10.65,7.32-22.19,15-44.3,22.79-66.35,25.48-71.91,49-144.32,73.25-216.54,8.52-25.37,18.85-50.23,27.74-75.48,6.53-18.55,11.58-37.5,17-56.32C1038.86,548.91,1051,531.9,1057.79,511.74Zm64.79,288.79-68.09-137.31c-4,10.83-6.61,21.43-9.21,32-8.26,33.64-16.41,67.3-24.86,100.91-1,4.09.14,4.67,4.44,4.65,30.87-.12,61.73,0,92.59-.05C1118.91,800.77,1120.36,800.64,1122.58,800.53Z"/><path class="cls-26" d="M2428.91,621.55c0,68.25.13,136.5-.1,204.74-.06,15.63-1.25,31.25,1.41,46.8a45.23,45.23,0,0,0,12,24.43c12.49,12.85,15.61,27.87,14.17,43.91-1.24,13.78-5.59,26.87-14.95,38.25-18,21.93-49.31,26.85-71.55,12-17-11.32-26.71-27.11-29.92-45.62-3.66-21.1,3.25-39.8,17.89-56.54,7.88-9,10.5-19.06,10-30.33-.69-16.12-.37-32.29-.45-48.43-.15-28.14.07-56.28-.51-84.4-.86-41.78-.66-83.56-1.09-125.33-.06-6.48-.23-13-.7-19.44-.66-8.9-5.2-12.53-15.37-12.46-17.08.12-34.15.28-51.21,1.47a89.71,89.71,0,0,1-19.9-1.1c-14.33-2.24-23-10.31-25.23-23.8a67.56,67.56,0,0,1,.63-26.34q3.16-13.87,18.75-17.5c15.19-3.54,30.78-4.19,46.36-5.18,22-1.41,43.72,1.54,65.57,2.34,4,.15,8,.22,12,.08,17.91-.61,24.77,5.29,27.8,21.86C2430.62,554.31,2430.93,587.92,2428.91,621.55Zm-.81,313.27c.31-6.51-2.38-13.5-7.61-19.71-12.58-14.93-34.93-14.06-46.77,1.45-12.87,16.86-4,37.8,10.69,47.28a25,25,0,0,0,27.65,0C2422.72,957,2428.34,947.81,2428.1,934.82Z"/><path class="cls-27" d="M504.9,742.74c6.18,3.59,11.36,6.87,16.83,9.74,25.22,13.2,37.71,33.31,42.33,58,3,15.89,1.89,31.87,2.56,47.82.49,11.66,1.85,23.19,6.24,34.33,6.23,15.81,18.1,27.06,35.27,34.28a121.54,121.54,0,0,0,17.37,5.66c24.63,6.27,24.8,23.83,18.7,39.64a10.27,10.27,0,0,1-10,6.4c-34.75-.45-65.65-9.67-90.09-31.91C529,933,524,915.39,522.81,896.85c-1.55-23.25-2.66-46.53-4.75-69.73-1.63-18-7.63-34.63-23.78-47.19a73.55,73.55,0,0,0-21-10.95c-14-5-17.16-9.09-16.57-22.28a10.71,10.71,0,0,0,.08-1.49c-1.15-13.36,5.13-20.84,20.27-25.79,22.24-7.28,32.57-24.54,38.78-43.67,4.92-15.17,5.52-30.83,7-46.4,1.81-19.56,2.76-39.22,8-58.38,8.15-29.52,28.87-48.7,62.55-56.89,14.36-3.49,28.77-6.48,43.9-4.11,5.52.86,8.71,3.13,10.12,8,4.46,15.35,1.25,28.25-14.2,37.92-7,4.37-13.7,9.14-21.9,11.6-38.17,11.45-50.9,36.72-46.66,70.42,1.72,13.69,4.49,27.28,2.91,41.19-1.84,16.09-9.21,29.57-22.74,40.6C533.3,729.12,519.62,735.69,504.9,742.74Z"/><path class="cls-28" d="M2228.13,740q0,85.88,0,171.75c0,17,.54,33.93.83,50.9,0,1.33,0,2.66,0,4-.41,13.21-4.38,16.65-19.36,15.94-19.24-.92-38.46-.69-57.68-.11-4.43.14-5.81-.91-5.8-4.94q.38-151.08.46-302.16.06-70.41,0-140.83a87.54,87.54,0,0,1,1-15.92c1.51-8.25,5.74-11.55,15.24-11.87,7.58-.25,15,1.49,22.63,1.06,11.2-.62,22.46-.35,33.68-.81,4.76-.2,6.4.64,6.37,5.29-.21,35.46,0,70.92,0,106.38q0,60.66,0,121.32Z"/><path class="cls-29" d="M777.87,735.94c18.5,0,37-.24,55.48.13,6.19.13,12.4.79,18.65.93,5.18.12,11.3,5.94,11.75,10.74,4,42.67,6.07,85.36,0,128-2,13.69-4.06,27.41-9.41,40.48-11.52,28.16-34,45.5-67.47,52.43-31.86,6.61-64.18,11-96.4,15.94-2.44.37-5,.37-7.29,1.13-5.87,2-8.1-.26-9.06-5-2.17-10.85-3.52-21.76-2.19-32.74.67-5.5,5.24-8.58,11.08-10.32,13.55-4,27.83-5.44,41.56-8.82,15.18-3.73,30.51-7.09,45.5-11.35,27-7.69,40.47-25.66,46.91-48.72,5.5-19.71,3.19-39.73,3.46-59.65.06-4.8.14-9.63-.91-14.42-2.11-9.62-6.08-12.72-17.41-12.86q-39.15-.49-78.3-.87c-1.71,0-3.43,0-5.14-.1-7.39-.46-11.29-3.56-11.61-10-.39-7.8-.37-15.63-.28-23.44.1-8.92,4.29-12.51,14.56-12.13C740.15,736,759,735.69,777.87,735.94Z"/><path class="cls-30" d="M266.82,634.08c-.39,13.63-5.43,26.47-8.95,39.55-8.74,32.51-17.86,65-26.83,97.42Q219.51,812.8,208,854.53q-8.6,30.94-17.28,61.87c-.86,3.07-2,6.08-3,9.09-10.71,29.74-45.77,38.43-72.77,28.66-22.18-8-37.5-22.51-48.56-40.57-6.47-10.57-5-22.06-1.79-33.15,26.32-90.7,51-181.74,78.63-272.15A64.11,64.11,0,0,1,149.92,593c8.86-14.24,23.06-20,41.23-16.48A246.17,246.17,0,0,1,234,588.65C256,597.26,267.39,613.07,266.82,634.08Z"/><path class="cls-31" d="M866.88,1335.87c.31,25.9-10.23,48.38-28.61,68.32-11.06,12-25.24,15.54-41.88,10.67C771.87,1407.68,747.55,1400,723,1393c-52.23-14.94-102-35-151.21-56-11.08-4.73-21.91-10-33.18-14.31-11.84-4.57-17.73-12.84-20.37-23.15-7.42-29-.64-56.41,13.56-82.8a83.42,83.42,0,0,1,5-8.4c10.49-14.88,27-20.08,45.74-14,23.72,7.7,47.3,15.75,70.91,23.72q28.38,9.59,56.7,19.34,61.71,21.15,123.41,42.31c17.89,6.1,26,18.65,30.15,33.92C865.7,1320.9,866.36,1328.37,866.88,1335.87Z"/><path class="cls-32" d="M540.19,53.22a36.42,36.42,0,0,1,11.68,2.25c20.39,7.4,40.85,14.66,61.17,22.18q56.65,21,113.18,42.23c22.32,8.35,44.49,17,66.93,25.12,23.68,8.55,36.77,23.94,40.68,45.73a9.68,9.68,0,0,1-.12,5.44c-8.51,21.15-14.79,43-25.68,63.41-.8,1.51-1.58,3-2.47,4.49C795,281.35,780,286.29,758.68,278.68c-44.17-15.8-88.2-31.89-132.26-47.94-36.86-13.42-73.47-27.39-110.57-40.29-28.07-9.76-40.36-34.33-38-57.94C479.48,115.68,483.51,99.26,492,84s20.88-26.55,40.82-29.92C535.27,53.65,537.74,53.49,540.19,53.22Z"/><path class="cls-33" d="M848.49,645.93c-4.76,0-9.53.09-14.28,0-9.83-.25-14-3.28-16.2-11.7-4.44-17.11-11.78-33-25.6-46.08-17.12-16.26-39.36-24-63.21-29a371.15,371.15,0,0,0-45.07-6.2c-9.49-.79-10.2-1.52-11.57-9.74s-.8-16.59-.69-24.9c.08-6.2,3.42-10.56,12.35-10.42,28.6.46,57.28.65,84.79,8.33,42,11.72,74.55,33.2,90.64,70.48,7.78,18,10.18,36.73,8.83,55.89-.18,2.5-.94,3.5-4,3.38C859.17,645.78,853.83,645.93,848.49,645.93Z"/><path class="cls-34" d="M2530.09,500.76c20.57,0,41.13.05,61.7-.06,3.4,0,4.62.77,4.59,3.9q-.21,30.2,0,60.4c0,2.8-1,3.67-4.23,3.79-31.18,1.19-62.31,4-93.56,3.06a93.18,93.18,0,0,1-28.79-5.51c-10.32-3.72-15-11-16.17-20.12-1.29-10.17-.66-20.3,3.13-30.07,3.88-10,12-15.77,24.2-16,16.37-.34,32.76-.09,49.14-.09Z"/><path class="cls-35" d="M2035,414.08c7.27.14,13.54.12,19.79,1,7.53,1.07,10.28,3.19,11.73,9.65,1.65,7.42.95,14.92,1,22.39,0,2.2-.78,4.57,2.69,5.81,2,.73.88,2.74.53,4.06-5.44,20.37-9.68,41-16.83,61,0,.16-.06.33-.12.49-1.46,3.8-2.68,8.09-7.91,9s-8.47-2.34-11.52-5.36C2019.58,507.54,2011.48,491,2014,471c1.73-13.75.8-27.56,0-41.34-.08-1.5-.18-3-.11-4.49.45-9.24,3-11.32,13.53-11.13C2030.29,414.13,2033.15,414.08,2035,414.08Z"/><path class="cls-36" d="M86.47,161.14c0-18.25,3.64-33.54,14.9-46.77,23.86-28,73.32-26.92,96.57,2,21.5,26.76,19.36,67-5.35,91.47-18.35,18.21-49.39,27.19-79.08,8.77-12-7.45-19-19.32-23.14-32C87.64,176.3,86.16,167.78,86.47,161.14Zm7-.64a65.89,65.89,0,0,0,8.17,32.36c17.57,32.16,60,37,86.57,9.91,22.42-22.82,23.1-62.36,1.46-85.7-23.16-25-68.64-21.62-86.57,6.43C96.09,134.52,93.55,146.52,93.51,160.5Z"/><path class="cls-37" d="M221.74,1319.25c-.87,21.07-9.23,41.23-32.36,54.76-22.33,13-52.83,9.18-70.38-8.57-15.75-15.92-20.17-34.93-19.06-55.22.7-12.92,4.21-25.27,12.42-36.32,22.72-30.58,70.74-31.2,94.49-1.19C216.14,1284.44,221.51,1300.45,221.74,1319.25Zm-118.21-9.33c-.13,17.15,2,28.41,7.63,39,8.71,16.26,22.43,27.4,43.53,29.29,21.34,1.93,37.66-6.43,49.7-21.33,19.08-23.59,17.94-61.21-2.23-84.32-20.76-23.77-58.69-25.3-81.4-3A58.09,58.09,0,0,0,103.53,1309.92Z"/><path class="cls-38" d="M1255.13,1291.58c-1,22.93-8.66,43.27-31,57.21-17.44,10.9-36.25,11.31-55.63,3.6-14.41-5.74-22.61-16.25-28.29-28.32-9.54-20.29-10.48-41.2-1.82-61.82,9.89-23.55,27.75-34.59,55.68-35.55,22.78-.79,44,12.43,54,33.24A71.71,71.71,0,0,1,1255.13,1291.58Zm-3.62.49c-.18-12.38-2.52-23.93-8.84-34.63-10.05-17-25.58-27.44-47.92-27.5s-40,8.77-49.55,26.74c-13.36,25.27-12.62,50.93,3.67,75,19.27,28.47,61.24,30.5,85.19,4.84C1246.24,1323.49,1251.15,1308.23,1251.51,1292.07Z"/><path class="cls-39" d="M1580.19,750.07c.19,34.36-5.42,64.48-20.6,92.9a157.94,157.94,0,0,1-35.87,44.74c-14.06,12.27-31.44,19.14-50.61,22.59s-38.53,6.22-57.93,8.66c-3.62.46-4.66-.07-4.29-3.37q3.9-35,7.5-70c1.12-10.83,2.1-21.7,5.18-32.26,6.59-22.66,20.81-39.71,46.92-47.83,9.62-3,12.36-6.58,12.46-15.69.07-5.65-.16-11.29.73-16.94.79-5-1.68-8.72-7.15-10.74s-11.41-3.81-16.79-6.26c-21.94-10-32.92-26.51-36.48-47.39-3.32-19.44-3.57-39.1-5.51-58.64-1.38-13.91-2.38-27.86-3.45-41.79-.51-6.6-.41-6.6,7-6.26,46.61,2.09,83.26,20.35,111.12,52.55,23.34,27,36.07,57.91,43,90.84C1578.86,721.05,1580.63,737.1,1580.19,750.07Zm-3.46-3.34c.18-9.51-1.52-25.05-4.74-40.46-7-33.27-19.88-64.45-43.78-91.48-26.52-30-61.1-47.34-104.9-49.82-4.36-.25-5.83.37-5.35,4.63,1.38,12.24,2,24.55,3.16,36.81,2,20.36,2.16,40.87,5.73,61.12,3.77,21.34,15.17,38.11,38.65,47.23,4,1.55,8.16,2.72,12.16,4.23,7.16,2.72,10.45,7,9.63,13.77-.76,6.32-.67,12.62-.8,18.93-.17,8.58-4.25,13.46-13.67,16.38-7.21,2.23-14.06,5-20.08,9.25-15.71,11-23.69,26-26.89,42.72-5.87,30.69-7.35,61.82-10.85,92.76-.48,4.17,2.44,2.82,4.61,2.51,15-2.18,30.05-4.33,45-6.68,22.36-3.51,42.86-10.36,58.83-25.28a165.69,165.69,0,0,0,27.6-32.92C1570.13,820,1576.59,787.11,1576.73,746.73Z"/><path class="cls-40" d="M1122.58,800.53c-2.22.11-3.67.24-5.13.24-30.86,0-61.72-.07-92.59.05-4.3,0-5.47-.56-4.44-4.65,8.45-33.61,16.6-67.27,24.86-100.91,2.6-10.61,5.23-21.21,9.21-32Zm-67-126.84-1.21.16c-.57,2-1.2,4-1.7,6q-7.67,31.27-15.31,62.55-6.43,26.19-13,52.35c-.71,2.81.89,2.91,3.35,2.9,12.57-.07,25.15,0,37.72,0H1117Z"/><path class="cls-41" d="M2428.1,934.82c.24,13-5.38,22.18-16,29a25,25,0,0,1-27.65,0c-14.67-9.48-23.56-30.42-10.69-47.28,11.84-15.51,34.19-16.38,46.77-1.45C2425.72,921.32,2428.41,928.31,2428.1,934.82Zm-3.35,3.49c-.07-8.91-2.27-15.33-7-21-10.85-13.07-29.46-12.95-40.14.24-11,13.51-6.59,34.29,9.21,43.9,7.3,4.44,14.92,4.64,22.32.22C2419.26,955.61,2424.39,947.11,2424.75,938.31Z"/></g></g></svg>