<?xml version="1.0" encoding="UTF-8"?>
<svg id="Layer_2" data-name="Layer 2" xmlns="http://www.w3.org/2000/svg" xmlns:xlink="http://www.w3.org/1999/xlink" viewBox="0 0 2578.38 1422.22">
  <defs>
    <style>
      .cls-1 {
        fill: url(#linear-gradient);
        stroke-width: 0px;
      }
    </style>
    <linearGradient id="linear-gradient" x1="-190.43" y1="386.45" x2="2226.39" y2="1266.1" gradientUnits="userSpaceOnUse">
      <stop offset="0" stop-color="#da8179"/>
      <stop offset=".31" stop-color="#b545ff"/>
      <stop offset=".64" stop-color="#6608fa"/>
      <stop offset="1" stop-color="#4813d1"/>
    </linearGradient>
  </defs>
  <g id="Layer_1-2" data-name="Layer 1">
    <path id="Layer_2-2" data-name="Layer 2" class="cls-1" d="M0,127.91C.94,94.41,11,62.91,37,36.5,91-18.28,186.82-10.16,227.92,52.5c5.6,8.55,10.53,17.18,12,27.21,1.94,13.64,11.28,22.57,25.44,27.8,39.73,14.68,79.55,29.19,119.26,43.9,132.59,49.1,265.17,98.24,397.72,147.43,10,3.69,9.85,3.82,12.8-5.16,17.54-53.45,35.1-106.9,52.69-160.34,2.53-7.68,5.49-15.22,9.94-22.24,10.63-16.77,25.35-23,47-20.22,24.88,3.22,46.79,12.67,66.94,25.2,12.94,8,17.84,20.33,19.19,33.75,1.42,14.15-1.56,27.91-6,41.37-27.1,83-53.6,166.15-82.09,248.8-1.97,5.77-4.48,11.35-7.5,16.65-11.87,20.67-28.18,27.49-54.31,23.22-18.94-3.09-36-10.51-53.36-17.16-189.9-72.6-379.77-145.27-569.61-218-13.19-5.05-25.58-5.53-37.87,1.72-37.76,22.25-83.55,18.9-119.07-3.81-30.85-19.72-48.09-47-56.6-78.95-3.01-11.47-4.16-23.22-4.49-35.76ZM126.33,6.37c-7.63-.13-15.26.54-22.75,2-34.84,7.07-60.07,25.22-77,52.21C8.3,89.82,3.85,121.29,9.84,153.88c5.59,30.46,20.05,57.1,47,77.81,34.09,26.19,80.84,32.51,120,9.35,13.84-8.19,28.41-8.09,43.47-2.18,26.34,10.36,52.81,20.5,79.28,30.62,159.49,61.01,319.02,121.95,478.57,182.82,22.76,8.67,44.73,19.39,70,22.34,13.79,1.61,25.15-1.54,33.86-11,8.28-9,12.35-19.82,16-30.67,27.1-79.63,52.8-159.63,78.92-239.51,4.5-13.76,8.32-27.73,7-42.25-1.09-11.83-5-22.92-16.48-30.09-17.46-10.93-36.46-19.42-57.71-23.19-25.75-4.56-39.2,1.58-49.27,22.75-3.55,7.46-6.56,15.17-9,23.07-17,54.64-35.75,108.83-53.38,163.31-1,3.13-1.94,4-5.74,2.56-57.71-21.64-115.45-43.18-173.23-64.62-95.83-35.51-191.7-70.94-287.59-106.3-24.44-9-49-17.78-73.23-27.29-13.87-5.44-22.93-15.35-24.85-28.61-2-14-9.76-25.43-18.67-36.24C193.16,20.28,163.45,6.87,126.33,6.37ZM18,1287.53c1.12-35.65,10.21-67.91,35.51-95.48,12.16-13.27,27.8-22.86,45.14-27.68,9.72-2.82,14.26-10.15,16.88-18.24,6.94-21.41,13.75-42.86,20.42-64.33,48.67-155.5,97.33-311.01,146-466.53,3.66-11.69,7.47-23.35,10.93-35.08,3.09-10.48,1.25-13.83-9.93-18-45-16.59-89.5-34.12-134.76-50.14-8.94-3.05-17.51-7.09-25.54-12.05-19-12.05-25.3-29-24-48.55,1.52-22.43,8-43.95,17.73-64.66,7.1-15.17,18.6-26.65,38.25-29.83,8.36-1.35,16.26.13,23.94,3,48.93,18.26,97.93,36.39,146.79,54.8,31.06,11.7,61.94,23.77,92.85,35.76,13.76,5.34,26.27,12.12,34.12,23.94,8.85,13.32,9.08,27.72,5.82,42.13-6.5,28.69-16.57,56.61-25.87,84.66-51.64,155.87-100.75,312.31-151.08,468.45-12.26,38-23.69,76.27-37.13,114-6.5,18.24-3.84,35.89,3.77,53.61,19,44.11,15.37,87.14-11.06,128.23-16.1,25-39.11,43.65-71.12,52.42-43,11.78-85.72-1.26-113.14-34.51-23.87-28.93-33.28-61.86-34.52-95.92ZM21.68,1286.16c.74,28.37,7.65,54.91,22.54,79.63,12.28,20.39,29,37.51,53.86,46.39,40,14.23,76.22,6.37,107.52-18,34.55-26.94,49.16-62.15,50.22-101.94.42-18.67-3.51-37.19-11.48-54.08-8.42-18.27-10.41-37-3.87-55.86,5.39-15.56,10.84-31.1,15.83-46.77,27.23-85.45,54.24-171,81.81-256.32,7.4-22.93,14.91-45.83,22.3-68.76,15.13-46.89,29.47-94,45.14-140.72,8.06-24.05,16.32-48.07,24.18-72.17,8.91-27.32,18.86-54.43,25.09-82.35,6.51-29.2-5.37-48.71-36.29-60.94-7.58-3-15.16-6-22.78-8.91-34.2-13.07-68.35-26.24-102.63-39.15-39.14-14.73-78.36-29.32-117.65-43.76-15-5.52-28.75-2.7-40.78,6.62-7.14,5.65-12.69,13.06-16.1,21.5-8.5,19.87-14.94,40.2-16.3,61.45-1.25,19.54,5.66,36.05,25.4,47.16,6.48,3.61,13.24,6.71,20.2,9.27,29.4,10.92,58.8,21.85,88.19,32.78,16.81,6.25,33.65,12.45,50.37,18.87,9.8,3.76,12.65,8.78,10.86,17.94-.34,1.64-.78,3.27-1.3,4.86-6.67,21.28-13.37,42.56-20.12,63.84-14.81,47.09-29.59,94.17-44.36,141.26-20.23,64.6-40.43,129.21-60.6,193.83-17.26,55.13-34.59,110.25-52,165.36-2.88,9.1-8.25,17.08-19.29,20.24-17.31,4.85-32.83,14.66-44.64,28.21-23.7,26.79-32.25,57.87-33.33,90.52h.01ZM1297.76,1264.59c-.93,36.7-12.12,68.46-40.35,94.81-37,34.52-94.79,43.83-139.24,21.87-27.2-13.45-44.37-34-53.9-59.64-7.32-19.68-21.34-33.34-43.95-40.11-7.19-2.16-14.2-4.76-21.26-7.21-107.33-37.27-214.67-74.54-322-111.81-56-19.39-112.1-38.5-168.09-57.9-4.71-1.64-6.4-1.36-7.84,3.27-18.09,57.82-36.32,115.6-54.69,173.35-1.52,4.68-3.61,9.17-6.21,13.35-10.79,17.68-28.08,24.9-50.46,20.84-15.53-2.77-30.68-7.37-45.13-13.71-27-11.91-39.67-33.08-35.15-59.25,3.47-20.1,10.66-39.43,16.67-59,20.72-67.33,41.64-134.63,62.77-201.88,3.86-12.34,8.61-24.45,16.4-35.41,12.34-17.36,27.87-22.7,50.21-16.4,22.79,6.43,44.75,14.85,66.85,22.86,188,68.14,376.37,135.4,565.12,201.79,10.1,3.57,17.75.83,25.38-3.94,15-9.4,31.46-15.47,49.95-16.81,36.93-2.68,67.74,8.86,92.61,32.15s36.68,51.66,41,82.78c.76,5.79.96,11.62,1.31,16ZM1172.76,1389.95c3-.12,7.4.11,11.69-.52,38.58-5.72,68-23.61,88-52.7,32.77-47.84,27.56-116.52-11.64-160.53-20.61-23.15-47.23-37.43-81.28-39.58-22.46-1.65-44.86,4.01-63.85,16.12-8.94,5.64-18,8.75-29.68,4.56-110.85-39.61-221.91-78.76-332.81-118.25-66.42-23.65-132.67-47.7-199-71.51-32.7-11.74-65.16-24-98.49-34.37-21.35-6.62-36.46-1.29-47.9,15.77-7,10.41-11.59,21.7-15.21,33.26-20.67,66.18-41.24,132.39-61.71,198.63-6.44,21-14.18,41.73-17.84,63.33-3.8,22.46,7.36,42.26,30.16,53.14,14.1,6.62,28.98,11.42,44.29,14.3,5.94,1.15,11.89,2.23,18.08,1.58,17.37-1.81,27.13-11.6,33.77-24.57,4.84-9.46,7.2-19.61,10.34-29.53,16.52-52.2,32.98-104.42,49.38-156.65,1.11-3.52,2.68-3.84,6.3-2.54,12.68,4.54,25.49,8.8,38.24,13.16,119.94,41.05,239.66,82.59,359.15,124.62,42.21,14.74,84.6,29.1,126.79,43.88,13.77,4.63,25.35,14.2,32.48,26.86,3.6,6.27,5.83,13,8.76,19.47,17.31,38.47,55.68,62.12,102.01,62.12l-.03-.05ZM1608.4,959.85l238.32-382h-7.42c-56.45,0-112.9-.07-169.35.1-5.39,0-6.61-1.05-5.85-5.76,3.56-22.07,6.65-44.19,10-66.28,1.81-12,7.67-16.42,21.48-16.46,39.09-.1,78.18-.21,117.27-.34,39.08-.17,78.16-.45,117.23-.64,14.93-.07,19.68,4.49,19,17.64-1.79,34.79-12,67.84-27.22,99.83-16.79,35.19-39,67.94-60.58,100.92-25.7,39.22-51.82,78.22-77.72,117.33-9.54,14.41-16.2,30-23.84,45.18-.15.58-.22,1.18-.21,1.78h6.31c63.33,0,126.65-.03,189.94-.08,4.53,0,6.39.43,5.55,5-4,21.33-6.32,42.87-11.26,64.07-2.67,11.46-9.4,16.68-23,17-18.47.42-36.95.7-55.44.85-48.79.45-97.59.56-146.37,1.28-38.57.55-77.07.47-116.84.58ZM1852.74,574.52c-1.56,2.72-2.65,4.78-3.89,6.77-16.73,26.82-33.48,53.64-50.23,80.45-24.95,40-49.9,79.97-74.86,119.92-35.33,56.67-70.67,113.33-106,170-3.12,5-3.08,5.1,3.11,5,24.39-.23,48.78.08,73.18-.31,50.11-.8,100.24-.91,150.36-1.37,27.25-.25,54.5-.58,81.74-1,12.24-.17,18-4.5,20.36-14.77,4.46-19.42,7.06-39.07,10.14-58.67,1-6.35.87-6.37-6.67-6.37-34.51,0-69.02,0-103.53,0-29.37,0-58.74-.03-88.1-.08-2.05,0-5.75,1.09-3.71-3.07,4.94-10,9.38-20.25,14.74-30.1,11.69-21.48,26.18-41.63,39.77-62.19,31.72-48,64.67-95.43,93.74-144.75,18-30.58,31.87-62.57,38.56-96.64,2.34-11.95,4.45-24,3.81-36.2-.31-5.72-3.36-9.37-8.37-9-6.9.53-13.6-.86-20.42-.74-13.34.24-26.67.45-40,.5-37.37.12-74.74.13-112.1.23-23.26.06-46.52.17-69.78.33-10,.06-15.18,3.6-16.57,12.29-3.4,21.24-6.31,42.53-9.72,63.77-.8,5,.86,6,6.43,6,56.82-.19,113.64-.13,170.46-.13l7.55.13ZM1335,485.7c-11-4.21-21.83-8.59-32.91-12.54-3.74-1.33-4-3.2-3.65-6.14.49-3.89,3.73-2.13,5.66-2.17,19.42-.38,38.94-2.13,58.24-.36,41.43,3.79,83,7,123.47,16.53,58.56,13.8,100.8,45.11,129,91.54,19.3,31.8,29.74,66,35.63,101.4,7.17,43.09,4.71,85.62-10.58,127.21-20.49,55.76-57.28,100.93-114.78,132.24-35.07,19.1-73.42,27.5-114.71,26.69-18.82-.37-37.64,1.83-56.5-.05-11-1.09-21.5-4.27-32.53-5.27-12.61-1.15-25.12-.46-37.61.68-11.47,1-17.27-1.92-20.23-11.66-4.69-15.5.66-28.46,13.75-39.31,10.54-8.75,23.75-13.69,36.35-19.48,8.46-3.89,16.69-8.09,23.42-14.11,11.41-10.21,13.67-23,12.76-36.52-1.08-15.92-3.21-31.77-2.88-47.8.6-28,14-49.19,42.16-63,5.59-2.74,11.21-5.45,17.07-8.29-.51-.47-.78-.92-1.18-1.06-30.75-11.08-47.14-32-53.54-59.68-3.82-16.55-4.6-33.29-3.72-50.14.49-9.5-.36-19.02-2.51-28.28-5.12-22.29-21.09-36.2-44.83-44-6-2-12.21-3.7-18.19-5.82-10.22-3.64-15.44-10.37-15.62-20.08-.21-6.67.28-13.34,1.47-19.9,1.65-8.53,7.44-12.06,17.11-10.09,16.29,3.32,32.49,7,48.73,10.53,1.12.6,2.24,1.07,3.46.18l-2.31-1.25ZM1416,714.62c-7.89,3.67-15.42,7.11-22.88,10.65-26.14,12.4-40.87,31-42.23,57.5-.79,15.55.45,30.92,2.25,46.3,3.28,28.21-6.69,44.69-35.54,57.74-7.43,3.35-14.89,6.69-22.19,10.25-9.93,4.86-18.74,10.9-24.63,19.62-6.2,9.18-7,18.87-2.61,28.75,2.76,6.17,6.27,7.52,13.77,6.85,18.83-1.69,37.66-2.47,56.21,1.88,9.09,2.01,18.35,3.15,27.65,3.42,19.45.81,38.84-1,58.27-1,19.35-.02,38.6-2.93,57.09-8.64,44.64-13.55,80.36-37.86,109-70.18,37.93-42.76,56.86-91.73,60-145.5,2.16-37.44-3.91-74.07-16.25-109.84-14-40.62-35.74-77.1-74.21-104.81-19.76-14.24-41.68-24.33-65.79-31.18-26.21-7.45-53.4-10.67-80.6-13.75-31-3.52-62-7.08-93.38-5.12-5.73.36-11.48.52-17.61.78,1.33,2.25,3.36,2.43,5,3.06,18.78,7.23,37.59,14.41,56.34,21.7,1.61.63,5,.49,3.8,3.23-.93,2.22-3.29.85-5,.47-11.43-2.55-22.84-5.17-34.26-7.76-13.81-3.13-27.6-6.33-41.44-9.35-9.45-2.07-13.28-.37-14.94,6.89-1.69,7.16-2.16,14.55-1.41,21.87.7,6.45,4.35,11.32,11.3,13.9,4.89,1.82,9.89,3.43,14.91,5,21.33,6.49,38.91,16.8,47.82,35.86,6.41,13.7,7.29,28.11,6.8,42.67-.53,16,0,31.95,3.63,47.71,5.7,24.62,19.29,44.2,46,55.62,4.73,2.01,9.75,3.37,15.06,5.41h.07ZM1035.47,475c13.41,18.34,21,38,29.21,57.46,41,97.17,82.65,194.14,122.22,291.76,14.89,36.76,29.68,73.55,44.37,110.37,1.72,4.21,3.08,8.56,4.08,13,1.57,7.18-1.49,11.57-9.76,12.5-18.92,2.13-37.95,3.09-56.84-.19-10.12-1.76-17.27-7.36-22.41-15-7.65-11.41-12-24-17-36.34-4.72-11.74-8.87-23.65-14.49-35.13-5.09-10.4-13.76-15.45-26.62-15.41-36.59.09-73.18.13-109.78.12-2.49,0-3.79.17-3.51,2.91,1.78,17.23-2.75,34.1-4,51.16-.61,8.13-1.2,16.28-2.47,24.34-3.36,21.32-11,27.81-35.27,30.34-18.23,1.9-36.56,1.31-54.84,1.06-10.13-.15-13.73-4.35-11.42-13.07,4.92-18.6,12.19-36.62,18.64-54.84,27.41-77.39,52.7-155.33,79.1-233,9.38-27.76,20.32-55.04,30.02-82.62,6.65-19,10.35-38.81,17.82-57.68,6.88-17.38,17.48-33.44,22.95-51.74ZM1036.17,483c-6.8,20.17-18.93,37.18-24.5,56.45-5.44,18.83-10.49,37.78-17,56.32-8.89,25.25-19.22,50.12-27.74,75.48-24.26,72.22-47.77,144.63-73.25,216.54-7.82,22.06-15.47,44.16-22.79,66.35-2.63,8-.17,10.59,9.22,10.65,16.76.12,33.56.7,50.27-1,21.79-2.17,32-6,34-26,2.67-26.47,8.25-52.77,7-79.5-.12-2.62.75-3.4,3.78-3.41,35.46-.11,70.91.07,106.37-.4,25-.33,31.3,4.15,40.13,24.73,5.27,12.29,9.77,24.83,14.78,37.21,3.87,9.55,7.67,19.15,13.9,27.82,4.44,6.18,10.4,10.76,18.66,12.28,18.69,3.43,37.52,2.27,56.25.3,6-.63,7.86-3.71,6.53-9.08-.97-3.91-2.2-7.76-3.7-11.5-27.41-68.47-54.62-137-83.38-205-30.78-72.79-61.49-145.6-92.13-218.45-4.31-10.53-9.81-20.52-16.4-29.79h0ZM2410.82,680.64c0,39.11.08,78.22-.05,117.33-.05,15-1.28,29.93,1.24,44.82,1.5,8.88,4.89,17.24,11.54,24.07,13.91,14.3,16.49,31,14.51,48.74-1.33,12.7-6.02,24.81-13.59,35.09-18.22,24.79-54.82,31.69-79.22,14.31-19.89-14.16-30.3-33-31.36-55.49-.9-19,6.27-36,19.61-50.88,6.06-6.54,9.37-15.16,9.25-24.08-.09-17.3-.35-34.61-.49-51.91-.47-57.91-.93-115.82-1.38-173.73-.15-17.63-.46-35.26-.75-52.89-.16-10.15-3.37-12.94-14.69-12.48-8,.33-16-.18-23.93.19-7.51.35-15,1-22.58,1.34-7.61.42-15.24.05-22.78-1.09-14.63-2.3-23.59-10.29-27.11-22.71-2.88-10.14-2.61-20.46-.42-30.7,2.56-12,11.11-18.95,24.61-21.31,24.2-4.13,48.79-5.59,73.31-4.34,16.73.77,33.37,2.62,50.17,2.44,17.86-.2,27.14,6.93,29.55,22.37,4.1,26.23,6.67,52.53,5.78,79.06-.44,13-.08,26-.08,39v72.9l-1.14-.05ZM2407.29,592.81c2-33.64,1.71-67.24-4.39-100.57-3-16.56-9.9-22.47-27.8-21.85-4,.13-8,.07-12-.08-21.85-.8-43.58-3.75-65.56-2.35-15.59,1-31.18,1.64-46.37,5.19-10.38,2.42-16.63,8.25-18.75,17.5-1.94,8.65-2.15,17.6-.63,26.33,2.26,13.5,10.9,21.56,25.24,23.81,6.57,1.1,13.24,1.47,19.89,1.1,17.06-1.2,34.13-1.36,51.22-1.48,10.16-.07,14.71,3.56,15.36,12.46.47,6.47.64,13,.71,19.44.42,41.78.22,83.56,1.08,125.33.58,28.13.36,56.27.51,84.4.08,16.15-.24,32.31.45,48.44.48,11.26-2.14,21.33-10,30.33-14.64,16.73-21.55,35.43-17.89,56.53,3.21,18.52,12.93,34.3,29.92,45.63,22.24,14.81,53.53,9.9,71.55-12,9.36-11.38,13.71-24.47,14.95-38.25,1.44-16.05-1.68-31.06-14.17-43.92-6.42-6.72-10.6-15.25-12-24.43-2.66-15.55-1.47-31.17-1.41-46.79.22-68.28.09-136.53.09-204.77ZM491.26,714.62c9,5.61,18.65,10.34,26.8,16.86,16.5,13.22,24,30.34,27.82,49.09,3.29,16,2,32.17,2.81,48.26.42,8.66,1.14,17.26,3.24,25.74,6,24,23.44,38.41,49.79,45.35,4.55,1.04,8.97,2.58,13.19,4.58,9.5,4.92,14.09,12.27,14.46,21.81.14,5.35-.62,10.69-2.24,15.79-2.12,7-8,10.95-16.14,10.88-29.47-.24-56.15-7.8-79.69-23.42-22.62-15-31.64-35.8-33.65-59.72-2.15-25.52-2.16-51.17-5.67-76.59-3.42-24.79-17.3-42.85-45.4-51.22-10-3-14.85-9.6-15-18.62-.05-6.15.29-12.31,1-18.42.45-6.41,5.01-11.79,11.27-13.26,30.9-8.47,43.56-29.28,49.32-54.83,3.77-16.69,3.92-33.71,5.69-50.58,1.63-15.56,2.71-31.22,7.26-46.39,9.92-33,34.94-52.28,72.67-59.61,12.52-2.43,25-4.14,37.92-2.18,7,1.08,11,4.23,12.68,10.37,4.68,16.56,1.36,30.52-15.32,41-7.58,4.79-15,9.8-23.86,12.53-34.82,10.71-46.92,33.51-43.81,64.23,1.49,14.7,4.89,29.22,3.26,44.17-2.08,19.17-11.8,34.43-28.61,46.52-7.8,5.48-16.03,10.3-24.63,14.42-1.78.9-4.02,1.28-5.16,3.24ZM483.26,714c14.72-7,28.4-13.63,40-23,13.53-11,20.9-24.51,22.74-40.59,1.58-13.92-1.19-27.51-2.91-41.2-4.23-33.69,8.49-59,46.66-70.41,8.2-2.46,14.92-7.24,21.9-11.6,15.46-9.67,18.66-22.58,14.2-37.92-1.41-4.88-4.6-7.15-10.12-8-15.13-2.37-29.54.63-43.9,4.12-33.68,8.18-54.4,27.36-62.55,56.88-5.28,19.1-6.28,38.77-8.08,58.32-1.43,15.57-2,31.24-7,46.4-6.21,19.14-16.54,36.4-38.78,43.67-15.14,5-21.42,12.43-20.27,25.79,0,.5-.02,1-.07,1.49-.6,13.2,2.55,17.34,16.56,22.28,7.54,2.5,14.63,6.2,21,10.95,16.14,12.57,22.14,29.23,23.77,47.19,2.09,23.21,3.2,46.48,4.75,69.73,1.23,18.54,6.18,36.13,21.29,49.88,24.44,22.24,55.34,31.47,90.09,31.92,4.35.2,8.36-2.36,10-6.4,6.1-15.82,5.93-33.37-18.7-39.64-5.92-1.45-11.73-3.35-17.37-5.66-17.17-7.22-29-18.48-35.27-34.28-4.39-11.15-5.75-22.67-6.24-34.34-.67-15.94.4-31.92-2.56-47.81-4.62-24.73-17.11-44.84-42.33-58-5.42-2.9-10.61-6.18-16.79-9.77h-.02ZM2209.81,710c0,50.26-.12,100.51.05,150.76.08,24.29.71,48.57,1.09,72.86v2c-.09,18.06-4.84,22.16-25.38,21.29-19.81-.84-39.62-.27-59.43,0-4.24.05-5.47-.86-5.45-4.66.16-41.61,0-83.23.12-124.85.08-30.28.52-60.57.57-90.86.14-74.24.21-148.48.2-222.73,0-8.31-.76-16.63.9-24.9,1.9-9.5,7.61-14.59,18.61-14,20.95,1.09,41.88.54,62.81.31,4.17-.05,3.41,2.07,3.41,4.14,0,22.14-.07,44.28,0,66.42.14,35.78.43,71.56.59,107.34.08,19,0,37.94,0,56.91l1.91-.03ZM2206.51,711.25h-2.51v-121.33c0-35.46-.22-70.92,0-106.38,0-4.65-1.61-5.49-6.37-5.29-11.22.47-22.48.19-33.68.82-7.65.42-15-1.32-22.63-1.06-9.5.31-13.73,3.61-15.24,11.86-.82,5.26-1.16,10.59-1,15.92v140.84c-.1,100.72-.25,201.44-.46,302.16,0,4,1.37,5.07,5.8,4.94,19.22-.58,38.44-.81,57.68.1,15,.72,18.95-2.72,19.36-15.94v-4c-.29-17-.8-33.93-.83-50.9-.16-57.21-.2-114.45-.12-171.7v-.04ZM849.29,774.42c1,33-.8,65.82-8.29,98.26-7.29,31.54-25.63,55.58-61.64,66.87-14.15,4.43-29,6.85-43.75,9.26-26,4.24-52.09,8-78.08,12.22-5,.82-6.28-.46-7.48-4.4-3.42-11.21-3.91-22.58-3.91-34,0-9.65,6.1-15.14,16.16-17.43,12.88-2.93,25.89-5.41,38.85-8.06,15.55-3.18,30.92-7,46.08-11.37,25.61-7.35,38.41-24.39,44.39-46.2,2.65-9.15,3.92-18.64,3.78-28.16-.41-14.46.92-29-1-43.39-1.27-9.66-4.06-11.66-15.08-11.81-25.52-.33-51-.56-76.56-.83h-5.15c-10.16-.42-15.21-4.29-15.82-13.08-.6-8.27-.71-16.57-.34-24.86.47-9.9,6.68-14.39,18.44-14.05,41.52,1.21,83.07.28,124.59.94,12.78.2,20.16,5.86,21.35,16.92,1.93,17.63,3.01,35.38,3.46,53.17ZM756.29,707.19c-18.86-.25-37.72,0-56.57-.67-10.27-.38-14.46,3.22-14.56,12.13-.08,7.82-.11,15.64.28,23.44.32,6.44,4.22,9.55,11.61,10,1.71.1,3.43.07,5.14.09,26.1.29,52.2.58,78.3.87,11.33.14,15.3,3.25,17.41,12.86,1,4.8,1,9.62.91,14.43-.27,19.92,2,39.94-3.46,59.65-6.44,23.06-19.89,41-46.91,48.71-15,4.27-30.32,7.63-45.5,11.36-13.73,3.37-28,4.8-41.56,8.82-5.84,1.73-10.41,4.81-11.08,10.32-1.33,11,0,21.88,2.2,32.73.95,4.79,3.18,7,9,5,2.26-.76,4.86-.76,7.29-1.13,32.22-4.9,64.54-9.32,96.41-15.93,33.42-6.94,55.94-24.28,67.46-52.43,5.35-13.07,7.45-26.8,9.41-40.49,6.12-42.66,4-85.34,0-128-.45-4.8-6.57-10.63-11.75-10.75-6.24-.14-12.46-.8-18.65-.92-18.43-.28-36.92-.09-55.42-.09h.04ZM248.83,603.08c.66,9.23-2.5,19.2-5.27,29.2-23.91,86.36-47.86,172.71-71.85,259.05-7.21,25.9-25,39.39-55.32,41-18.38,1-33.95-6.21-47.83-16.2-10.17-7.39-18.89-16.59-25.73-27.13-8.19-12.41-7-25.58-3.28-38.76,17.85-62.67,35.78-125.33,53.77-188,8.26-28.66,17-57.23,25.59-85.8,1.24-4.04,2.89-7.95,4.93-11.66,9.4-17.18,26.2-24.15,47.54-19.93,12.87,2.68,25.56,6.16,38,10.43,24.73,8.14,37.9,23.51,39.45,47.8ZM245.2,605.34c.57-21-10.86-36.83-32.86-45.44-13.87-5.35-28.2-9.42-42.81-12.17-18.17-3.53-32.36,2.24-41.23,16.47-2.92,4.79-5.19,9.95-6.77,15.33-27.6,90.41-52.31,181.47-78.63,272.15-3.21,11.09-4.68,22.58,1.79,33.15,11.06,18.06,26.38,32.55,48.56,40.58,27,9.76,62.06,1.07,72.78-28.66,1.08-3,2.17-6,3-9.09,5.79-20.62,11.55-41.25,17.28-61.88,7.71-27.82,15.41-55.65,23.08-83.48,9-32.46,18.09-64.9,26.84-97.42,3.54-13.08,8.58-25.88,8.97-39.54ZM489.82,1245.86c.49-23.28,8-45.95,21.54-67,11.37-17.6,30.72-23.32,52.31-16,83.21,28.3,166.4,56.63,249.57,85,19.42,6.61,28.33,20.22,32.54,37,8.93,35.56-1.53,66.8-28.12,94.21-10.7,11-24.71,15.08-40.63,10.65-24.45-6.8-48.54-14.6-73-21.48-67.55-19-131-46.23-194.08-74.12-11.21-5-15.25-14.93-17.69-25.06-1.73-7.61-2.55-15.4-2.44-23.2ZM845.26,1307.13c-.52-7.51-1.18-15-3.18-22.28-4.17-15.26-12.26-27.82-30.15-33.91-41.17-14-82.3-28.1-123.41-42.31-18.89-6.48-37.79-12.93-56.7-19.34-23.61-8-47.19-16-70.91-23.73-18.79-6.09-35.25-.9-45.74,14-1.83,2.7-3.5,5.5-5,8.4-14.2,26.38-21,53.75-13.56,82.79,2.64,10.32,8.53,18.58,20.37,23.15,11.27,4.35,22.1,9.58,33.18,14.32,49.25,21,99,41.06,151.21,56,24.57,7,48.89,14.74,73.41,21.91,16.64,4.88,30.82,1.33,41.88-10.67,18.34-19.95,28.91-42.46,28.6-68.33ZM452.05,105.54c3-21.87,7-46.59,26.24-66.78,9.76-10.24,22.37-16.36,37.92-17.21,5.5-.32,11,.49,16.17,2.38,81.16,29.17,161.62,59.8,242.26,90.07,24.73,9.27,37.7,26,41.32,48.79.43,1.61.39,3.32-.11,4.91-9,22.38-15.6,45.49-27.39,67-5.92,10.79-14.11,19.42-28.58,21.51-9.16,1.32-17.79-.8-26.13-3.83-64.2-23.33-128.38-46.68-192.55-70.05-15.25-5.56-30.25-11.7-45.76-16.64-31.44-10.08-43-33.49-43.39-60.15ZM518.57,24.47c-2.45.28-4.92.43-7.34.84-19.94,3.37-32.36,14.75-40.82,29.93-8.46,15.18-12.55,31.69-14.21,48.52-2.33,23.61,10,48.18,38,57.94,37.1,12.9,73.71,26.87,110.57,40.3,44.06,16,88.1,32.13,132.26,47.94,21.28,7.61,36.35,2.67,46.88-14.61.89-1.47,1.67-3,2.47-4.49,10.89-20.42,17.17-42.26,25.68-63.41.56-1.76.61-3.65.12-5.44-3.91-21.79-17-37.19-40.68-45.74-22.44-8.1-44.61-16.77-66.93-25.12-37.71-14.09-75.43-28.16-113.15-42.22-20.32-7.53-40.78-14.78-61.17-22.18-3.74-1.39-7.69-2.16-11.68-2.26ZM827.27,620.26c-4.76,0-9.53.06-14.29,0-12.4-.2-17.37-3.76-20.21-14.36-4-15-10.28-29.17-21.65-41.28-14.76-15.71-34.61-23.92-56.41-29.27-17.1-4.2-34.63-6.26-52.22-7.93-12.17-1.16-13.34-1.88-15.12-12.28-1.61-9.45-1.13-18.93-.42-28.37.54-7,5.48-10.65,13.53-10.63,29.35.1,58.68.58,87.09,8.07,70.69,18.64,108.68,67.87,102.66,132.79-.24,2.56-1.16,3.42-4.11,3.33-6.28-.19-12.57-.07-18.85-.07ZM826.87,617.18c5.34,0,10.68-.14,16,.06,3,.12,3.81-.87,4-3.38,1.34-19.16-1.06-37.86-8.87-55.86-16.09-37.27-48.64-58.75-90.63-70.48-27.52-7.68-56.2-7.87-84.8-8.32-8.93-.15-12.27,4.21-12.35,10.42-.11,8.3-.69,16.6.69,24.9,1.38,8.3,2.08,9,11.57,9.73,15.13,1.15,30.19,3.22,45.07,6.2,23.85,5,46.09,12.7,63.21,29,13.82,13.14,21.16,29,25.6,46.08,2.18,8.43,6.37,11.46,16.2,11.7,4.79.05,9.55-.05,14.31-.05ZM2518.54,468.77c18.09,0,36.18.09,54.27-.07,4,0,5.62.48,5.57,4.51-.26,21.79-.16,43.59-.07,65.38,0,2.6-.11,4.4-4,4.52-31.94.92-63.79,4-95.8,3.15-8.91-.34-17.75-1.64-26.38-3.88-13.66-3.39-21.92-11.17-23.71-23.45-1.68-10.26-.88-20.77,2.33-30.65,4.72-13.93,15.44-20.42,33.49-20.5s36.18,0,54.27,0l.03.99ZM2508.47,472v-.71c-16.38,0-32.77-.26-49.14.08-12.17.26-20.32,6-24.2,16-3.79,9.77-4.42,19.9-3.13,30.06,1.17,9.16,5.85,16.4,16.17,20.12,9.25,3.35,18.97,5.21,28.8,5.52,31.24.92,62.37-1.88,93.55-3.06,3.2-.12,4.24-1,4.23-3.79-.11-20.14-.11-40.28,0-60.41,0-3.12-1.19-3.91-4.59-3.89-20.56.15-41.16.08-61.69.08ZM1988.71,425.7v-25.39c0-3.32-.21-6.62.84-9.9,1.77-5.51,5.31-8.69,11.65-8.43,11,.44,22.08-.31,33,1.28,8.81,1.28,12.61,4.46,14.23,12.1,1.5,7.08,1.06,14.23,1,21.37,0,2.07-.73,4.42,2.91,5,2.05.34,1.78,1.88,1.42,3.22-6.06,22.27-10.71,44.83-18.33,66.78-.29.79-.62,1.57-1,2.33-4.36,9-13.31,11.1-21.23,4.13-15.82-13.92-26-30.18-24.71-50.61.47-7.3.76-14.6,1.13-21.9l-.91.02ZM2013.4,385.33c-1.87,0-4.73.05-7.59,0-10.52-.2-13.08,1.88-13.53,11.12-.04,1.5,0,3,.11,4.49.77,13.79,1.7,27.6,0,41.35-2.5,19.95,5.6,36.5,20.38,51.1,3.06,3,6.42,6.23,11.52,5.35s6.45-5.19,7.91-9c.06-.15.07-.32.12-.48,7.15-20,11.39-40.64,16.83-61,.35-1.32,1.51-3.32-.53-4.05-3.47-1.25-2.68-3.62-2.69-5.81,0-7.48.67-15-1-22.39-1.45-6.47-4.2-8.58-11.73-9.66-6.26-.9-12.53-.88-19.8-1.02h0ZM126.33,6.37c37.12.5,66.83,13.91,88.46,40.14,8.91,10.81,16.65,22.28,18.67,36.24,1.92,13.26,11,23.17,24.85,28.61,24.2,9.51,48.79,18.25,73.23,27.29,95.86,35.43,191.72,70.88,287.59,106.35,57.8,21.42,115.54,42.98,173.22,64.67,3.8,1.43,4.73.57,5.74-2.56,17.63-54.48,36.42-108.67,53.38-163.31,2.44-7.9,5.45-15.61,9-23.07,10.08-21.22,23.53-27.36,49.28-22.8,21.25,3.77,40.25,12.26,57.73,23.15,11.51,7.17,15.39,18.26,16.48,30.09,1.34,14.52-2.48,28.49-7,42.25-26.12,79.88-51.82,159.88-78.92,239.51-3.69,10.85-7.76,21.66-16,30.67-8.71,9.5-20.07,12.65-33.86,11-25.27-2.95-47.24-13.67-70-22.34-159.61-60.8-319.15-121.74-478.6-182.82-26.47-10.12-52.94-20.26-79.28-30.62-15.06-5.91-29.63-6-43.47,2.18-39.14,23.16-85.89,16.84-120-9.35-26.94-20.71-41.4-47.35-47-77.81-6-32.59-1.54-64.06,16.77-93.29C43.5,33.55,68.73,15.41,103.6,8.34c7.49-1.45,15.11-2.11,22.73-1.97ZM64.85,132.37c-.31,6.63,1.17,15.15,3.9,23.52,4.11,12.64,11.13,24.51,23.14,32,29.69,18.42,60.73,9.44,79.08-8.76,24.71-24.5,26.85-64.72,5.35-91.47-23.25-28.94-72.71-30-96.57-2-11.26,13.19-14.91,28.49-14.9,46.74v-.03ZM21.67,1286.16c1.08-32.65,9.63-63.73,33.31-90.52,11.83-13.55,27.37-23.34,44.7-28.18,11-3.16,16.41-11.14,19.29-20.24,17.45-55.09,34.78-110.21,52-165.36,20.19-64.57,40.38-129.19,60.56-193.86,14.75-47.11,29.54-94.21,44.35-141.31,6.67-21.29,13.37-42.57,20.12-63.84.52-1.59.96-3.22,1.3-4.86,1.79-9.16-1.06-14.18-10.86-17.94-16.72-6.42-33.56-12.62-50.37-18.87-29.38-10.93-58.78-21.84-88.19-32.75-6.96-2.56-13.72-5.66-20.2-9.27-19.74-11.11-26.68-27.62-25.4-47.16,1.36-21.25,7.8-41.58,16.3-61.45,3.41-8.44,8.96-15.85,16.1-21.5,12-9.32,25.75-12.14,40.78-6.62,39.29,14.43,78.5,29.02,117.65,43.76,34.28,12.91,68.43,26.08,102.63,39.15,7.62,2.92,15.2,5.91,22.78,8.91,30.92,12.23,42.8,31.74,36.29,60.94-6.23,27.92-16.18,55-25.09,82.35-7.86,24.1-16.12,48.12-24.18,72.17-15.67,46.75-30,93.83-45.14,140.72-7.39,22.93-14.9,45.83-22.3,68.76-27.57,85.36-54.58,170.87-81.81,256.32-5,15.67-10.44,31.21-15.83,46.77-6.54,18.91-4.55,37.59,3.87,55.86,7.97,16.89,11.9,35.41,11.48,54.08-1.06,39.79-15.67,75-50.22,101.94-31.3,24.39-67.56,32.25-107.52,18-24.9-8.88-41.58-26-53.86-46.39-14.89-24.7-21.8-51.24-22.54-79.61ZM200.12,1290.5c-.23-18.79-5.6-34.81-14.89-46.54-23.75-30-71.76-29.39-94.49,1.2-8.21,11-11.72,23.39-12.42,36.31-1.11,20.3,3.31,39.3,19.06,55.23,17.55,17.74,48.06,21.62,70.38,8.56,23.13-13.52,31.49-33.68,32.36-54.76ZM1172.79,1390c-46.33.08-84.7-23.6-102-62.07-2.93-6.49-5.16-13.2-8.76-19.47-7.13-12.66-18.71-22.23-32.48-26.86-42.19-14.78-84.58-29.14-126.79-43.88-119.63-41.81-239.36-83.37-359.19-124.67-12.75-4.36-25.56-8.62-38.24-13.16-3.62-1.3-5.19-1-6.3,2.54-16.37,52.24-32.83,104.46-49.38,156.65-3.14,9.92-5.5,20.07-10.34,29.53-6.64,13-16.4,22.76-33.77,24.57-6.19.65-12.14-.43-18.08-1.58-15.31-2.88-30.19-7.68-44.29-14.3-22.8-10.88-34-30.68-30.16-53.14,3.66-21.6,11.4-42.34,17.84-63.33,20.34-66.27,40.91-132.48,61.71-198.63,3.62-11.56,8.23-22.85,15.21-33.26,11.44-17.06,26.55-22.39,47.9-15.77,33.33,10.34,65.79,22.63,98.49,34.37,66.34,23.81,132.59,47.86,199,71.51,110.9,39.49,222,78.64,332.81,118.25,11.72,4.19,20.74,1.08,29.68-4.56,18.99-12.11,41.39-17.77,63.85-16.12,34,2.15,60.67,16.43,81.28,39.58,39.2,44,44.41,112.69,11.64,160.53-19.93,29.09-49.37,47-88,52.7-4.23.63-8.68.4-11.63.57ZM1233.52,1262.88c.11-10.94-2.29-21.76-7-31.64-10-20.81-31.22-34-54-33.24-27.92,1-45.79,12-55.68,35.55-8.66,20.62-7.72,41.54,1.82,61.82,5.68,12.07,13.88,22.58,28.29,28.32,19.38,7.71,38.19,7.3,55.63-3.6,22.27-13.99,29.98-34.33,30.94-57.26v.05ZM1852.74,574.52h-7.52c-56.82,0-113.64-.06-170.46.13-5.57,0-7.23-1.07-6.43-6,3.41-21.24,6.32-42.53,9.72-63.77,1.39-8.69,6.54-12.23,16.57-12.29,23.26-.13,46.52-.24,69.78-.33,37.36-.1,74.73-.11,112.1-.23,13.34-.05,26.67-.26,40-.5,6.82-.12,13.52,1.27,20.42.74,5-.38,8.06,3.27,8.37,9,.64,12.21-1.47,24.25-3.81,36.2-6.69,34.07-20.54,66.06-38.56,96.64-29.07,49.32-62,96.73-93.74,144.75-13.59,20.56-28.08,40.71-39.77,62.19-5.36,9.85-9.8,20.08-14.74,30.1-2,4.16,1.66,3.07,3.71,3.07,29.37.07,58.73.1,88.1.08h103.53c7.54,0,7.67,0,6.67,6.37-3.08,19.6-5.68,39.25-10.14,58.67-2.36,10.27-8.12,14.6-20.36,14.77-27.24.38-54.49.71-81.74,1-50.12.46-100.25.57-150.36,1.37-24.4.39-48.79.08-73.18.31-6.19.05-6.23,0-3.11-5,35.33-56.67,70.67-113.33,106-170,24.94-40,49.89-79.97,74.86-119.92,16.75-26.82,33.5-53.64,50.23-80.45,1.21-2.12,2.3-4.18,3.86-6.9ZM1415.93,714.62c-5.31-2-10.33-3.4-15.09-5.43-26.73-11.42-40.32-31-46-55.62-3.65-15.76-4.16-31.71-3.63-47.71.49-14.56-.39-29-6.8-42.67-8.91-19.06-26.49-29.37-47.82-35.86-5-1.53-10-3.14-14.91-5-7-2.58-10.6-7.45-11.3-13.9-.75-7.32-.28-14.71,1.41-21.87,1.66-7.26,5.49-9,14.94-6.89,13.84,3,27.63,6.22,41.44,9.35,11.42,2.59,22.83,5.21,34.26,7.76,1.68.38,4,1.75,5-.47,1.16-2.74-2.19-2.6-3.8-3.23-18.75-7.29-37.56-14.47-56.34-21.7-1.64-.63-3.67-.81-5-3.06,6.13-.26,11.88-.42,17.61-.78,31.39-2,62.38,1.6,93.38,5.12,27.2,3.08,54.39,6.3,80.6,13.75,24.11,6.85,46,16.94,65.79,31.18,38.47,27.71,60.2,64.19,74.21,104.81,12.34,35.77,18.41,72.4,16.25,109.84-3.11,53.77-22,102.74-60,145.5-28.66,32.32-64.38,56.63-109,70.18-18.5,5.73-37.76,8.66-57.13,8.68-19.43-.05-38.82,1.79-58.27,1-9.3-.27-18.56-1.41-27.65-3.42-18.55-4.35-37.38-3.57-56.21-1.88-7.5.67-11-.68-13.77-6.85-4.42-9.88-3.59-19.57,2.61-28.75,5.89-8.72,14.7-14.76,24.63-19.62,7.3-3.56,14.76-6.9,22.19-10.25,28.85-13,38.82-29.53,35.54-57.74-1.8-15.38-3-30.75-2.25-46.3,1.36-26.55,16.09-45.1,42.23-57.5,7.46-3.56,14.95-7,22.88-10.67ZM1558.57,721.33c.44-13-1.33-29-4.69-44.92-7-32.94-19.69-63.87-43-90.85-27.86-32.2-64.51-50.46-111.12-52.55-7.46-.33-7.56-.34-7,6.26,1.07,13.94,2.07,27.88,3.45,41.8,1.94,19.54,2.19,39.19,5.51,58.64,3.56,20.87,14.54,37.39,36.48,47.39,5.38,2.45,11.18,4.19,16.79,6.26s7.94,5.78,7.15,10.74c-.89,5.65-.66,11.29-.73,16.93-.1,9.11-2.83,12.69-12.46,15.69-26.11,8.13-40.33,25.18-46.92,47.83-3.07,10.57-4.06,21.43-5.18,32.26-2.42,23.33-4.92,46.67-7.5,70-.37,3.31.67,3.83,4.29,3.38,19.4-2.45,38.74-5.21,57.93-8.66s36.43-10.3,50.53-22.53c14.6-12.61,26.77-27.78,35.9-44.77,15.15-28.43,20.76-58.55,20.57-92.9h0ZM1335,485.7l2.27,1.22c-1.22.89-2.34.42-3.46-.18l1.19-1.04ZM1036.17,483c6.58,9.27,12.07,19.27,16.36,29.8,30.67,72.83,61.38,145.65,92.13,218.45,28.76,68,56,136.58,83.38,205,1.5,3.74,2.73,7.59,3.7,11.5,1.33,5.37-.51,8.45-6.53,9.08-18.73,2-37.56,3.13-56.25-.3-8.26-1.52-14.22-6.1-18.66-12.28-6.23-8.67-10-18.27-13.9-27.82-5-12.38-9.51-24.92-14.78-37.21-8.83-20.58-15.12-25.06-40.13-24.73-35.46.47-70.91.29-106.37.4-3,0-3.9.79-3.78,3.41,1.25,26.73-4.33,53-7,79.5-2,20-12.19,23.81-34,26-16.71,1.66-33.51,1.08-50.27,1-9.39-.06-11.85-2.68-9.22-10.65,7.32-22.19,15-44.29,22.79-66.35,25.48-71.91,49-144.32,73.25-216.54,8.52-25.36,18.85-50.23,27.74-75.48,6.53-18.54,11.58-37.49,17-56.32,5.61-19.29,17.74-36.3,24.54-56.46ZM1101,771.79c-22.85-46.07-45.47-91.7-68.09-137.32-4,10.84-6.61,21.44-9.21,32-8.25,33.64-16.41,67.31-24.86,100.91-1,4.1.14,4.67,4.45,4.66,30.86-.13,61.72-.05,92.58-.05,1.42.01,2.88-.1,5.13-.2ZM2407.29,592.81c0,68.24.13,136.49-.1,204.74-.06,15.62-1.25,31.24,1.41,46.79,1.4,9.18,5.58,17.71,12,24.43,12.49,12.86,15.61,27.87,14.17,43.92-1.24,13.78-5.59,26.87-14.95,38.25-18,21.93-49.31,26.84-71.55,12-17-11.33-26.71-27.11-29.92-45.63-3.66-21.1,3.25-39.8,17.89-56.53,7.88-9,10.5-19.07,10-30.33-.69-16.13-.37-32.29-.45-48.44-.15-28.13.07-56.27-.51-84.4-.86-41.77-.66-83.55-1.08-125.33-.07-6.48-.24-13-.71-19.44-.65-8.9-5.2-12.53-15.36-12.46-17.09.12-34.16.28-51.22,1.48-6.65.37-13.32,0-19.89-1.1-14.34-2.25-23-10.31-25.24-23.81-1.52-8.73-1.31-17.68.63-26.33,2.11-9.26,8.36-15.09,18.75-17.5,15.19-3.55,30.78-4.19,46.37-5.19,22-1.4,43.71,1.55,65.56,2.35,4,.15,8,.21,12,.08,17.9-.62,24.76,5.29,27.8,21.85,6.11,33.36,6.42,66.96,4.4,100.6ZM2406.49,906.07c.3-6.51-2.39-13.5-7.62-19.71-12.58-14.92-34.93-14.05-46.77,1.45-12.86,16.86-4,37.81,10.69,47.28,8.38,5.56,19.27,5.56,27.65,0,10.66-6.84,16.28-16.02,16.05-29.02ZM483.28,714c6.18,3.59,11.37,6.87,16.83,9.73,25.22,13.2,37.71,33.31,42.33,58,3,15.89,1.89,31.87,2.56,47.81.49,11.67,1.85,23.19,6.24,34.34,6.23,15.8,18.1,27.06,35.27,34.28,5.64,2.31,11.45,4.21,17.37,5.66,24.63,6.27,24.8,23.82,18.7,39.64-1.64,4.04-5.65,6.6-10,6.4-34.75-.45-65.65-9.68-90.09-31.92-15.11-13.75-20.06-31.34-21.29-49.88-1.55-23.25-2.66-46.52-4.75-69.73-1.63-18-7.63-34.62-23.77-47.19-6.37-4.75-13.46-8.45-21-10.95-14-4.94-17.16-9.08-16.56-22.28.05-.49.08-.99.07-1.49-1.15-13.36,5.13-20.83,20.27-25.79,22.24-7.23,32.54-24.49,38.78-43.63,4.92-15.16,5.53-30.83,7-46.4,1.81-19.55,2.76-39.22,8.05-58.38,8.15-29.52,28.87-48.7,62.55-56.88,14.36-3.49,28.77-6.49,43.9-4.12,5.52.87,8.71,3.14,10.12,8,4.46,15.34,1.26,28.25-14.2,37.92-7,4.36-13.7,9.14-21.9,11.6-38.17,11.45-50.89,36.72-46.66,70.41,1.72,13.69,4.49,27.28,2.91,41.2-1.84,16.08-9.21,29.57-22.74,40.59-11.59,9.43-25.27,16.06-39.99,23.06ZM2206.51,711.29v171.74c0,17,.54,33.94.83,50.9v4c-.41,13.22-4.38,16.66-19.36,15.94-19.24-.91-38.46-.68-57.68-.1-4.43.13-5.81-.92-5.8-4.94.25-100.72.41-201.44.46-302.16.04-46.95.04-93.89,0-140.84-.16-5.33.18-10.66,1-15.92,1.51-8.25,5.74-11.55,15.24-11.86,7.58-.26,15,1.48,22.63,1.06,11.2-.63,22.46-.35,33.68-.82,4.76-.2,6.4.64,6.37,5.29-.21,35.46,0,70.92,0,106.38v121.33h2.63ZM756.25,707.19c18.5,0,37-.23,55.48.14,6.19.12,12.41.78,18.65.92,5.18.12,11.3,6,11.75,10.75,4,42.67,6.07,85.35,0,128-2,13.69-4.06,27.42-9.41,40.49-11.52,28.15-34,45.49-67.46,52.43-31.87,6.61-64.19,11-96.41,15.93-2.43.37-5,.37-7.29,1.13-5.87,2-8.1-.26-9-5-2.18-10.85-3.53-21.76-2.2-32.73.67-5.51,5.24-8.59,11.08-10.32,13.55-4,27.83-5.45,41.56-8.82,15.18-3.73,30.51-7.09,45.5-11.36,27-7.68,40.47-25.65,46.91-48.71,5.5-19.71,3.19-39.73,3.46-59.65.06-4.81.14-9.63-.91-14.43-2.11-9.61-6.08-12.72-17.41-12.86-26.1-.33-52.2-.62-78.3-.87-1.71,0-3.43,0-5.14-.09-7.39-.46-11.29-3.57-11.61-10-.39-7.8-.36-15.62-.28-23.44.1-8.91,4.29-12.51,14.56-12.13,18.75.65,37.61.37,56.47.62ZM245.2,605.34c-.39,13.62-5.43,26.46-8.94,39.54-8.75,32.52-17.87,65-26.84,97.42-7.69,27.8-15.38,55.63-23.08,83.48-5.73,20.63-11.49,41.25-17.28,61.88-.86,3.06-1.95,6.08-3,9.09-10.72,29.73-45.78,38.42-72.78,28.66-22.18-8-37.5-22.52-48.56-40.58-6.47-10.57-5-22.06-1.79-33.15,26.32-90.69,51-181.74,78.63-272.15,1.58-5.38,3.85-10.54,6.77-15.33,8.87-14.23,23.06-20,41.23-16.47,14.61,2.75,28.94,6.82,42.81,12.17,21.97,8.61,33.4,24.43,32.83,45.44ZM845.26,1307.13c.31,25.9-10.23,48.38-28.61,68.31-11.06,12-25.24,15.55-41.88,10.67-24.52-7.17-48.84-14.89-73.41-21.91-52.23-14.93-102-35-151.21-56-11.08-4.74-21.91-10-33.18-14.32-11.84-4.57-17.73-12.83-20.37-23.15-7.42-29-.64-56.41,13.56-82.79,1.5-2.9,3.17-5.7,5-8.4,10.49-14.89,27-20.08,45.74-14,23.72,7.71,47.3,15.76,70.91,23.73,18.92,6.39,37.82,12.84,56.7,19.34,41.14,14.1,82.28,28.2,123.41,42.31,17.89,6.09,26,18.65,30.15,33.91,2.01,7.33,2.67,14.79,3.19,22.3ZM518.57,24.47c3.99.1,7.94.87,11.68,2.26,20.39,7.4,40.85,14.65,61.17,22.18,37.77,14,75.5,28.07,113.18,42.22,22.32,8.35,44.49,17,66.93,25.12,23.68,8.55,36.77,23.95,40.68,45.74.49,1.79.44,3.68-.12,5.44-8.51,21.15-14.79,43-25.68,63.41-.8,1.5-1.58,3-2.47,4.49-10.53,17.28-25.6,22.22-46.88,14.61-44.16-15.81-88.2-31.94-132.26-47.94-36.86-13.43-73.47-27.4-110.57-40.3-28.07-9.76-40.36-34.33-38-57.94,1.66-16.83,5.69-33.24,14.21-48.52s20.88-26.56,40.82-29.93c2.39-.41,4.86-.56,7.31-.84ZM826.87,617.18c-4.76,0-9.52.1-14.28,0-9.83-.24-14-3.27-16.2-11.7-4.44-17.1-11.78-32.94-25.6-46.08-17.12-16.26-39.36-24-63.21-29-14.88-2.98-29.94-5.05-45.07-6.2-9.49-.78-10.2-1.52-11.57-9.73s-.8-16.6-.69-24.9c.08-6.21,3.42-10.57,12.35-10.42,28.6.45,57.28.64,84.8,8.32,42,11.73,74.54,33.21,90.63,70.48,7.78,18,10.18,36.73,8.83,55.89-.18,2.51-.94,3.5-4,3.38-5.31-.22-10.65-.04-15.99-.04ZM2508.47,472c20.57,0,41.13.06,61.7-.05,3.4,0,4.62.77,4.59,3.89-.14,20.14-.14,40.28,0,60.41,0,2.79-1,3.67-4.23,3.79-31.18,1.18-62.31,4-93.55,3.06-9.83-.31-19.55-2.17-28.8-5.52-10.32-3.72-15-11-16.17-20.12-1.29-10.16-.66-20.29,3.13-30.06,3.88-10,12-15.77,24.2-16,16.37-.34,32.76-.08,49.14-.08v.68ZM2013.4,385.33c7.27.14,13.54.12,19.79,1,7.53,1.08,10.28,3.19,11.73,9.66,1.65,7.42.95,14.91,1,22.39,0,2.19-.78,4.56,2.69,5.81,2,.73.88,2.73.53,4.05-5.44,20.38-9.68,41-16.83,61,0,.16-.06.33-.12.48-1.46,3.8-2.68,8.09-7.91,9s-8.46-2.33-11.52-5.35c-14.78-14.6-22.88-31.15-20.38-51.1,1.73-13.75.8-27.56,0-41.35-.11-1.49-.15-2.99-.11-4.49.45-9.24,3-11.32,13.53-11.12,2.87.07,5.73.02,7.6.02ZM64.85,132.4c0-18.25,3.64-33.55,14.9-46.77,23.86-28,73.32-26.92,96.57,2,21.5,26.75,19.36,67-5.35,91.47-18.35,18.2-49.39,27.18-79.08,8.76-12-7.45-19-19.32-23.14-32-2.75-8.31-4.21-16.86-3.9-23.46ZM71.85,131.75c-.1,11.31,2.71,22.46,8.17,32.37,17.58,32.16,60,37,86.57,9.91,22.42-22.83,23.1-62.36,1.46-85.7-23.16-25-68.64-21.63-86.57,6.42-7.01,11.03-9.55,23.03-9.59,37h-.04ZM200.12,1290.5c-.87,21.08-9.23,41.24-32.36,54.76-22.32,13.06-52.83,9.18-70.38-8.56-15.75-15.93-20.17-34.93-19.06-55.23.7-12.92,4.21-25.26,12.42-36.31,22.73-30.59,70.74-31.2,94.49-1.2,9.29,11.73,14.66,27.75,14.89,46.54ZM81.91,1281.17c-.13,17.15,2,28.42,7.63,39,8.71,16.26,22.43,27.39,43.53,29.29,21.34,1.92,37.66-6.43,49.7-21.34,19.08-23.59,17.94-61.21-2.23-84.31-20.75-23.78-58.69-25.31-81.4-3-10.8,10.68-16.99,25.17-17.23,40.36ZM1233.52,1262.83c-1,22.93-8.67,43.27-31,57.21-17.44,10.9-36.25,11.31-55.63,3.6-14.41-5.74-22.61-16.25-28.29-28.32-9.54-20.28-10.48-41.2-1.82-61.82,9.89-23.54,27.76-34.58,55.68-35.55,22.78-.79,44,12.43,54,33.24,4.73,9.87,7.15,20.69,7.06,31.64ZM1229.89,1263.33c-.18-12.39-2.51-23.93-8.84-34.64-10-17-25.58-27.44-47.92-27.5s-40.05,8.77-49.55,26.74c-13.36,25.28-12.62,50.94,3.68,75,19.26,28.47,61.23,30.51,85.18,4.85,12.18-13.03,17.09-28.3,17.45-44.45ZM1558.57,721.33c.19,34.35-5.42,64.47-20.6,92.9-9.12,16.99-21.28,32.16-35.87,44.77-14.06,12.27-31.44,19.15-50.61,22.6s-38.53,6.21-57.93,8.66c-3.62.45-4.66-.07-4.29-3.38,2.6-23.33,5.1-46.67,7.5-70,1.12-10.83,2.11-21.69,5.18-32.26,6.59-22.65,20.81-39.7,46.92-47.83,9.63-3,12.36-6.58,12.46-15.69.07-5.64-.16-11.28.73-16.93.79-5-1.68-8.73-7.15-10.74s-11.41-3.81-16.79-6.26c-21.94-10-32.92-26.52-36.48-47.39-3.32-19.45-3.57-39.1-5.51-58.64-1.38-13.92-2.38-27.86-3.45-41.8-.51-6.6-.41-6.59,7-6.26,46.61,2.09,83.26,20.35,111.12,52.55,23.34,27,36.07,57.91,43,90.85,3.44,15.83,5.2,31.87,4.77,44.85ZM1555.11,717.98c.18-9.5-1.52-25.05-4.74-40.46-6.95-33.26-19.87-64.45-43.78-91.48-26.52-30-61.1-47.33-104.9-49.82-4.36-.24-5.83.37-5.35,4.63,1.38,12.24,2,24.55,3.16,36.81,2,20.37,2.16,40.88,5.73,61.12,3.77,21.35,15.17,38.12,38.65,47.23,4,1.55,8.16,2.72,12.16,4.24,7.16,2.72,10.45,7,9.63,13.76-.76,6.32-.67,12.62-.8,18.94-.17,8.58-4.25,13.45-13.67,16.37-7.21,2.24-14.06,5-20.08,9.26-15.71,11-23.69,26-26.89,42.71-5.87,30.7-7.35,61.83-10.85,92.76-.47,4.17,2.44,2.82,4.61,2.51,15-2.17,30-4.33,45-6.68,22.36-3.5,42.86-10.36,58.83-25.28,10.59-9.73,19.87-20.8,27.6-32.92,19.09-30.39,25.58-63.32,25.69-103.68v-.02ZM1101,771.79c-2.21.1-3.67.24-5.13.24-30.86,0-61.72-.08-92.58.05-4.31,0-5.48-.56-4.45-4.66,8.45-33.6,16.61-67.27,24.86-100.91,2.6-10.6,5.23-21.2,9.21-32,22.58,45.58,45.2,91.21,68.09,137.28ZM1034,645l-1.21.16c-.57,2-1.2,4-1.7,6-5.11,20.85-10.21,41.7-15.31,62.56-4.29,17.45-8.62,34.9-13,52.34-.71,2.81.89,2.92,3.35,2.9,12.58-.07,25.15,0,37.72,0h51.58l-61.43-123.96ZM2406.49,906.07c.23,13-5.39,22.18-16,29-8.38,5.56-19.27,5.56-27.65,0-14.67-9.47-23.55-30.42-10.69-47.28,11.84-15.5,34.19-16.37,46.77-1.45,5.18,6.23,7.87,13.22,7.57,19.73ZM2403.13,909.56c-.07-8.91-2.27-15.33-7-21-10.85-13.07-29.46-13-40.14.23-10.95,13.52-6.59,34.3,9.21,43.9,7.3,4.44,14.92,4.64,22.32.23,10.12-6.05,15.25-14.55,15.61-23.36Z"/>
  </g>
</svg>