<svg width="24" height="25" viewBox="0 0 24 25" fill="none" xmlns="http://www.w3.org/2000/svg">
<path d="M12 4.27698C13.0609 4.27698 14.0783 4.6984 14.8284 5.44855C15.5786 6.1987 16 7.21611 16 8.27698C16 9.33784 15.5786 10.3553 14.8284 11.1054C14.0783 11.8556 13.0609 12.277 12 12.277C10.9391 12.277 9.92172 11.8556 9.17157 11.1054C8.42143 10.3553 8 9.33784 8 8.27698C8 7.21611 8.42143 6.1987 9.17157 5.44855C9.92172 4.6984 10.9391 4.27698 12 4.27698ZM12 14.277C16.42 14.277 20 16.067 20 18.277V20.277H4V18.277C4 16.067 7.58 14.277 12 14.277Z" fill="#0F0E11"/>
</svg>
