<svg width="16" height="17" viewBox="0 0 16 17" fill="none" xmlns="http://www.w3.org/2000/svg">
<path d="M8 0.276978C3.581 0.276978 0 3.85898 0 8.27698C0 12.695 3.581 16.277 8 16.277C12.419 16.277 16 12.695 16 8.27698C16 3.85898 12.419 0.276978 8 0.276978ZM11.707 10.57C11.8945 10.7575 11.9998 11.0118 11.9998 11.277C11.9998 11.5422 11.8945 11.7965 11.707 11.984C11.5195 12.1715 11.2652 12.2768 11 12.2768C10.7348 12.2768 10.4805 12.1715 10.293 11.984L8 9.69098L5.707 11.984C5.61435 12.0772 5.50419 12.1511 5.38285 12.2016C5.26152 12.252 5.13141 12.278 5 12.278C4.86859 12.278 4.73848 12.252 4.61715 12.2016C4.49581 12.1511 4.38565 12.0772 4.293 11.984C4.20005 11.8912 4.12632 11.781 4.07601 11.6597C4.0257 11.5384 3.9998 11.4083 3.9998 11.277C3.9998 11.1456 4.0257 11.0156 4.07601 10.8943C4.12632 10.773 4.20005 10.6628 4.293 10.57L6.586 8.27698L4.293 5.98398C4.10549 5.79647 4.00015 5.54215 4.00015 5.27698C4.00015 5.0118 4.10549 4.75749 4.293 4.56998C4.48051 4.38247 4.73482 4.27713 5 4.27713C5.26518 4.27713 5.51949 4.38247 5.707 4.56998L8 6.86298L10.293 4.56998C10.4805 4.38247 10.7348 4.27713 11 4.27713C11.2652 4.27713 11.5195 4.38247 11.707 4.56998C11.8945 4.75749 11.9998 5.0118 11.9998 5.27698C11.9998 5.54215 11.8945 5.79647 11.707 5.98398L9.414 8.27698L11.707 10.57Z" fill="#0F0E11"/>
</svg>
